<svg width="481" height="610" viewBox="0 0 481 610" fill="none" xmlns="http://www.w3.org/2000/svg">
<path d="M60.904 339.824C77.5678 339.824 91.0764 326.315 91.0764 309.651C91.0764 292.988 77.5678 279.479 60.904 279.479C44.2403 279.479 30.7317 292.988 30.7317 309.651C30.7317 326.315 44.2403 339.824 60.904 339.824Z" fill="#EBEBEB"/>
<path d="M88.7305 304.489C89.2409 304.489 89.8102 305.254 90.2322 306.815C90.7334 309.028 90.8133 311.315 90.4678 313.558C90.0007 316.939 88.8948 320.2 87.2091 323.167C85.1415 326.899 82.2551 330.114 78.7667 332.571C75.2783 335.027 71.2786 336.661 67.068 337.35C63.708 337.935 60.2678 337.878 56.9288 337.183C54.6989 336.752 52.5707 335.903 50.6568 334.681C49.3317 333.768 48.7821 332.963 48.9784 332.492C49.4201 331.451 52.6297 332.03 57.4196 331.785C63.4675 331.57 69.3352 329.67 74.3608 326.298C79.2277 322.707 82.9916 317.824 85.2264 312.203C87.1208 307.777 87.6017 304.557 88.7305 304.489Z" fill="#E0E0E0"/>
<path d="M62.2879 316.944C65.4208 316.755 68.3769 315.429 70.6015 313.215C71.9572 311.857 72.7376 310.029 72.7805 308.111C72.7308 307.216 72.3813 306.365 71.7883 305.693C71.1953 305.022 70.3934 304.57 69.5119 304.41C68.2357 304.386 66.9882 304.791 65.9686 305.559C64.9513 306.343 63.8055 306.944 62.5823 307.335C60.8156 307.738 58.9997 307.031 57.3311 306.354C55.6625 305.676 53.8663 304.911 52.0799 305.235C51.4691 305.276 50.8805 305.48 50.3748 305.825C49.8692 306.17 49.465 306.644 49.204 307.198C49.204 307.198 48.301 309.161 50.1168 311.791C51.5321 313.623 53.3955 315.06 55.5273 315.962C57.659 316.865 59.9874 317.203 62.2879 316.944Z" fill="white"/>
<path d="M48.5761 299.797C48.3164 299.308 47.9148 298.91 47.4242 298.654C46.9336 298.398 46.3771 298.297 45.8278 298.364C45.4764 298.367 45.1342 298.476 44.8463 298.678C44.4221 299.004 44.0947 299.439 43.8992 299.937C43.7038 300.435 43.6478 300.977 43.7372 301.505C43.8214 301.858 43.9775 302.19 44.1957 302.48C44.414 302.77 44.6897 303.012 45.0056 303.19C45.3215 303.369 45.6709 303.481 46.0319 303.518C46.393 303.556 46.7579 303.519 47.1038 303.409C47.4402 303.272 47.7458 303.068 48.0026 302.811C48.2595 302.555 48.4624 302.249 48.5996 301.912C48.7367 301.576 48.8053 301.216 48.8013 300.852C48.7972 300.489 48.7207 300.13 48.5761 299.797Z" fill="white"/>
<path d="M77.3054 299.895C77.0461 299.405 76.6449 299.006 76.1545 298.748C75.664 298.491 75.1072 298.388 74.5571 298.452C74.2066 298.46 73.8658 298.569 73.5756 298.766C73.1497 299.093 72.8213 299.53 72.6258 300.03C72.4303 300.53 72.3752 301.074 72.4664 301.603C72.5507 301.956 72.7067 302.288 72.925 302.578C73.1432 302.868 73.4189 303.11 73.7349 303.288C74.0508 303.467 74.4002 303.579 74.7612 303.616C75.1222 303.654 75.4871 303.617 75.8331 303.507C76.1695 303.37 76.4751 303.167 76.7319 302.91C76.9888 302.653 77.1917 302.347 77.3288 302.011C77.466 301.674 77.5345 301.314 77.5305 300.95C77.5265 300.587 77.45 300.228 77.3054 299.895Z" fill="white"/>
<path d="M406.296 235.023C410.479 216.611 398.945 198.295 380.533 194.112C362.122 189.929 343.805 201.463 339.622 219.875C335.439 238.287 346.973 256.603 365.385 260.786C383.797 264.969 402.113 253.435 406.296 235.023Z" fill="#EBEBEB"/>
<path d="M403.469 223.002C403.979 223.002 404.549 223.865 404.961 225.622C405.462 228.113 405.502 230.675 405.079 233.18C404.513 236.954 403.248 240.589 401.349 243.899C399.016 248.056 395.782 251.638 391.884 254.383C387.986 257.128 383.523 258.965 378.823 259.76C375.065 260.441 371.213 260.411 367.466 259.672C364.967 259.219 362.569 258.317 360.39 257.012C358.878 256.03 358.23 255.186 358.427 254.715C358.868 253.665 362.47 254.46 367.957 254.273C371.118 254.185 374.256 253.71 377.301 252.86C384.654 250.904 391.062 246.377 395.362 240.1C397.183 237.519 398.686 234.728 399.837 231.786C401.859 226.722 402.331 223.061 403.469 223.002Z" fill="#E0E0E0"/>
<path d="M383.24 223.227C383.338 223.227 382.818 224.68 381.129 226.358C378.907 228.567 375.945 229.875 372.816 230.031C369.686 230.187 366.61 229.179 364.178 227.203C362.333 225.701 361.675 224.346 361.774 224.258C361.872 224.17 362.755 225.318 364.61 226.584C366.984 228.275 369.859 229.115 372.769 228.969C375.68 228.823 378.456 227.699 380.648 225.779C382.356 224.376 383.093 223.129 383.24 223.227Z" fill="white"/>
<path d="M359.006 216.307C358.715 215.753 358.263 215.3 357.709 215.009C357.155 214.718 356.525 214.603 355.904 214.678C355.524 214.691 355.156 214.813 354.844 215.031C354.365 215.403 353.996 215.898 353.776 216.464C353.557 217.029 353.495 217.643 353.597 218.241C353.686 218.644 353.859 219.024 354.104 219.356C354.349 219.688 354.662 219.965 355.021 220.169C355.38 220.372 355.778 220.498 356.189 220.538C356.6 220.578 357.014 220.531 357.406 220.4C357.782 220.239 358.122 220.005 358.407 219.711C358.691 219.418 358.914 219.07 359.063 218.689C359.212 218.308 359.284 217.901 359.274 217.492C359.264 217.084 359.173 216.681 359.006 216.307Z" fill="white"/>
<path d="M394.881 219.606C394.766 218.724 394.576 217.854 394.311 217.005C393.947 216.163 393.376 215.427 392.653 214.865C391.753 214.202 390.66 213.854 389.542 213.873C388.425 213.893 387.345 214.279 386.469 214.973C385.76 215.567 385.215 216.335 384.889 217.201C384.653 218.059 384.489 218.936 384.398 219.822C384.3 219.881 383.75 218.781 384.192 216.985C384.5 215.8 385.187 214.748 386.149 213.991C387.111 213.234 388.295 212.812 389.519 212.791C390.744 212.77 391.941 213.15 392.929 213.874C393.916 214.598 394.64 215.625 394.989 216.798C395.499 218.546 394.979 219.655 394.881 219.606Z" fill="white"/>
<path d="M364.326 578.032C363.422 574.469 365.778 570.916 368.409 568.355C371.039 565.793 374.17 563.496 375.544 560.09C377.782 554.584 374.857 547.409 378.646 542.825C380.874 540.126 384.84 539.242 386.822 536.357C387.73 534.756 388.339 533.003 388.618 531.184C390.759 522.017 395.322 513.594 401.83 506.793C402.223 514.975 400.406 523.112 396.569 530.35C395.028 533.235 393.143 536.052 392.643 539.281C391.789 544.533 394.694 549.951 393.369 555.104C391.867 560.993 385.213 564.919 384.869 570.975C384.575 576.099 389.021 580.633 388.658 585.757C388.379 587.938 387.585 590.02 386.341 591.833C382.337 598.409 376.477 602.924 367.643 602.718L356.846 603.042L364.326 578.032Z" fill="#EBEBEB"/>
<path d="M354.608 603.287C353.629 603.429 352.633 603.402 351.664 603.208C350.465 603.024 349.288 602.722 348.15 602.305C346.583 601.75 345.12 600.937 343.821 599.901C343.042 599.261 342.435 598.438 342.054 597.506C341.728 596.46 341.563 595.371 341.564 594.276C341.55 593.112 341.474 591.949 341.338 590.792C341.133 589.554 340.69 588.367 340.032 587.298C338.766 585.05 336.666 582.92 335.998 579.867C335.331 576.815 335.822 573.635 336.342 570.386C336.862 567.137 337.372 563.603 336.146 560.217C334.919 556.831 332.651 553.759 331.483 549.931C330.315 546.103 330.904 541.931 330.678 537.838C330.609 535.762 330.139 533.719 329.294 531.821C328.431 529.907 327.233 528.092 326.291 526.07C324.397 521.977 324.083 517.354 323.582 512.829C323.34 510.545 323.094 508.238 322.846 505.909C322.699 503.565 322.307 501.242 321.678 498.979C320.967 496.691 320.115 494.448 319.126 492.266C318.62 491.134 318.21 489.961 317.899 488.761C317.72 487.525 317.609 486.28 317.565 485.032C317.461 482.53 317.573 480.025 317.899 477.543C318.203 475.049 318.674 472.576 318.949 470.073L319.008 469.641L319.067 469.141L319.509 469.366C321.788 470.539 323.769 472.218 325.3 474.274C326.792 476.302 327.985 478.533 328.843 480.899C330.629 485.552 331.248 490.43 332.131 495.083C333.014 499.735 334.143 504.319 336.509 508.206C337.687 510.169 339.11 511.906 340.356 513.791C341.682 515.633 342.587 517.744 343.006 519.974C343.615 524.558 341.043 528.563 341.573 532.616C341.819 534.613 342.488 536.534 343.536 538.25C344.518 539.988 345.657 541.597 346.746 543.217C347.853 544.796 348.815 546.471 349.622 548.223C350.37 549.942 350.808 551.779 350.918 553.651C351.163 557.302 350.623 560.767 350.869 564.035C351.153 567.148 352.043 570.176 353.489 572.948C354.785 575.617 356.228 578.032 357.415 580.378C358.015 581.5 358.556 582.654 359.035 583.833C359.463 584.939 359.776 586.087 359.967 587.258C360.277 589.307 360.294 591.389 360.016 593.442C359.707 596.297 358.621 599.013 356.876 601.294C356.61 601.646 356.314 601.975 355.992 602.276C355.775 602.503 355.535 602.707 355.276 602.884C354.873 603.179 354.657 603.306 354.657 603.306C355.434 602.702 356.139 602.01 356.758 601.245C358.431 598.961 359.449 596.263 359.702 593.442C359.962 591.419 359.929 589.37 359.604 587.357C359.394 586.21 359.065 585.088 358.623 584.01C358.171 582.891 357.641 581.752 356.993 580.594C355.776 578.268 354.324 575.863 352.998 573.183C351.508 570.367 350.584 567.286 350.28 564.114C350.015 560.767 350.545 557.302 350.28 553.729C350.164 551.921 349.732 550.147 349.004 548.488C348.204 546.77 347.251 545.127 346.157 543.58C345.068 541.98 343.909 540.361 342.908 538.584C341.817 536.79 341.124 534.781 340.877 532.695C340.386 528.366 342.908 524.332 342.28 520.072C341.87 517.945 340.995 515.934 339.718 514.183C338.491 512.328 337.058 510.561 335.851 508.579C333.417 504.584 332.249 499.922 331.375 495.24C330.502 490.558 329.864 485.729 328.107 481.164C327.27 478.865 326.11 476.697 324.662 474.726C323.196 472.74 321.295 471.115 319.106 469.975L319.607 469.71C319.607 469.847 319.607 469.995 319.607 470.142C319.322 472.674 318.851 475.148 318.547 477.621C318.229 480.064 318.12 482.531 318.223 484.992C318.263 486.201 318.364 487.406 318.527 488.604C318.835 489.763 319.236 490.896 319.725 491.991C320.716 494.198 321.575 496.463 322.296 498.773C322.931 501.075 323.326 503.437 323.474 505.821C323.719 508.147 323.965 510.463 324.2 512.74C324.691 517.295 325.005 521.839 326.831 525.785C327.734 527.748 328.941 529.574 329.834 531.556C330.7 533.528 331.18 535.647 331.248 537.799C331.454 541.97 330.894 546.054 332.003 549.764C333.113 553.474 335.449 556.536 336.617 560.031C337.785 563.525 337.323 567.225 336.793 570.455C336.263 573.684 335.704 576.874 336.391 579.759C337.078 582.645 339.041 584.785 340.317 587.101C340.994 588.209 341.444 589.44 341.642 590.723C341.781 591.899 341.85 593.082 341.848 594.267C341.841 595.333 341.993 596.395 342.3 597.417C342.659 598.303 343.228 599.088 343.959 599.704C345.226 600.737 346.655 601.553 348.189 602.119C349.306 602.558 350.463 602.886 351.644 603.1C352.373 603.231 353.112 603.307 353.852 603.326C354.343 603.277 354.608 603.287 354.608 603.287Z" fill="#E0E0E0"/>
<path d="M321.128 475.589C321.128 475.589 321.128 475.697 321.236 475.923C321.344 476.149 321.373 476.502 321.472 476.905C321.678 477.759 321.923 479.044 322.326 480.654C322.728 482.264 323.71 484.08 324.534 486.327C325.508 488.844 326.353 491.41 327.066 494.013C327.871 496.908 328.588 500.118 329.334 503.553C330.08 506.989 330.865 510.669 332.74 514.144C333.613 515.911 334.605 517.687 335.39 519.641C336.153 521.644 336.664 523.734 336.911 525.864C337.429 530.269 338.183 534.643 339.169 538.967C341.289 547.85 343.311 556.311 345.146 564.016L350.172 584.432C351.565 590.203 352.694 594.905 353.489 598.173C353.852 599.763 354.147 601.02 354.363 601.932C354.441 602.325 354.51 602.649 354.569 602.914C354.58 603.025 354.58 603.137 354.569 603.248C354.514 603.146 354.474 603.037 354.451 602.924C354.373 602.668 354.284 602.354 354.176 601.942L353.195 598.222C352.351 594.924 351.143 590.242 349.661 584.481C348.179 578.719 346.442 571.721 344.508 564.084L338.472 539.036C337.482 534.692 336.728 530.298 336.214 525.873C335.982 523.798 335.49 521.76 334.752 519.807C333.996 517.903 333.024 516.137 332.141 514.35C330.256 510.807 329.491 507.018 328.755 503.553C328.018 500.088 327.351 496.908 326.576 494.023C325.8 491.137 324.976 488.565 324.151 486.347C323.327 484.129 322.434 482.274 322.041 480.615C321.648 478.956 321.481 477.67 321.315 476.816C321.246 476.414 321.187 476.09 321.148 475.835C321.133 475.754 321.127 475.672 321.128 475.589Z" fill="#E0E0E0"/>
<path d="M352.694 603.317C345.647 599.067 343.694 586.307 346.687 578.641C349.681 570.975 354.883 563.996 355.717 555.82C356.365 549.529 354.343 543.06 355.845 536.916C357.867 528.632 366.014 522.252 365.965 513.712C365.965 508.932 363.246 504.407 363.491 499.627C363.786 493.738 368.31 489.135 371.127 483.982C375.446 476.129 375.78 466.756 377.291 457.893C378.803 449.029 382.199 439.558 390.12 435.239C391.239 442.777 393.182 447.94 392.505 458.138C392.26 461.799 387.97 468.788 387.342 476.787C386.969 481.577 386.704 486.386 386.361 491.186C386.017 495.986 385.723 500.609 384.025 504.977C382.719 508.314 380.638 511.347 379.667 514.792C377.841 521.29 380.148 528.347 378.685 534.933C377.429 540.508 373.532 545.298 372.717 550.952C371.559 558.902 376.644 567.206 373.984 574.783C372.649 578.543 369.537 581.546 368.634 585.433C367.937 588.446 368.634 591.636 368.026 594.669C367.044 599.577 357.671 603.287 352.694 602.953" fill="#E0E0E0"/>
<path d="M388.128 442.698C388.143 442.842 388.143 442.987 388.128 443.13C388.128 443.444 388.039 443.847 387.961 444.367C387.794 445.447 387.607 447.046 387.225 449.108C386.842 451.169 385.733 453.515 384.869 456.322C384.005 459.129 383.034 462.368 382.219 465.99C381.404 469.612 380.697 473.626 379.961 477.945C379.225 482.264 378.43 486.965 376.261 491.451C375.279 493.699 374.131 495.956 373.316 498.322C372.491 500.79 371.976 503.352 371.785 505.948C371.36 511.47 370.636 516.965 369.616 522.409C367.388 533.549 365.268 544.169 363.334 553.818C361.401 563.466 359.467 572.104 357.926 579.406C356.385 586.709 355.079 592.578 354.147 596.681C353.705 598.644 353.352 600.244 353.107 601.363C352.989 601.864 352.891 602.266 352.812 602.58C352.786 602.718 352.747 602.853 352.694 602.983C352.7 602.841 352.716 602.7 352.743 602.561C352.802 602.247 352.881 601.844 352.969 601.334C353.185 600.215 353.489 598.635 353.882 596.632L357.366 579.347C358.868 572.035 360.655 563.358 362.627 553.729C364.6 544.1 366.652 533.461 368.86 522.32C369.871 516.895 370.595 511.42 371.029 505.919C371.23 503.268 371.764 500.653 372.619 498.135C373.493 495.672 374.632 493.414 375.633 491.176C377.792 486.759 378.577 482.136 379.353 477.837C380.128 473.538 380.835 469.504 381.699 465.872C382.562 462.241 383.505 459.002 384.457 456.194C385.409 453.387 386.489 451.061 386.92 449.039C387.352 447.017 387.578 445.407 387.784 444.328L388.02 443.11C388.042 442.97 388.078 442.832 388.128 442.698Z" fill="#EBEBEB"/>
<path d="M454.96 602.217C454.96 602.355 353.107 602.473 227.49 602.473C101.873 602.473 0 602.355 0 602.217C0 602.08 101.844 601.962 227.48 601.962C353.116 601.962 454.96 602.07 454.96 602.217Z" fill="#455A64"/>
<path d="M219.118 345.458C207.212 356.461 198.682 380.087 196.356 395.83C194.03 411.574 192.832 428.221 184.185 441.57C181.79 445.27 178.738 449.059 179.022 453.446C179.415 459.601 186.217 463.37 192.361 463.89C198.506 464.41 204.748 462.908 210.804 464.017C221.945 466.088 230.651 476.777 241.978 476.64C250.419 476.571 257.78 470.211 261.55 462.653C265.319 455.095 266.173 446.477 266.977 438.115C269.402 412.801 271.198 394.574 273.622 369.26" fill="#1DCEFD"/>
<path d="M192.302 438.655C191.334 438.089 190.511 437.306 189.897 436.367C189.284 435.429 188.898 434.36 188.769 433.246C188.916 433.246 189.338 434.611 190.32 436.093C191.301 437.575 192.4 438.527 192.302 438.655Z" fill="#FAFAFA"/>
<path d="M240.653 465.971C240.434 465.997 240.213 465.997 239.995 465.971L238.12 465.863C236.491 465.745 234.194 465.559 231.25 465.254C225.449 464.656 217.459 463.576 208.733 461.829C204.602 461.105 200.533 460.065 196.562 458.717C193.309 457.581 190.308 455.82 187.728 453.535C185.989 451.987 184.574 450.108 183.567 448.009C183.302 447.439 183.076 446.852 182.889 446.252C182.814 446.046 182.765 445.832 182.742 445.614C182.742 445.614 183.017 446.478 183.724 447.92C184.774 449.955 186.203 451.771 187.935 453.27C190.512 455.479 193.487 457.178 196.7 458.276C200.663 459.59 204.718 460.611 208.831 461.328C217.538 463.065 225.517 464.204 231.289 464.891L238.16 465.666L240.024 465.863C240.237 465.874 240.448 465.911 240.653 465.971Z" fill="#FAFAFA"/>
<path d="M235.931 453.024C234.864 452.685 233.88 452.123 233.046 451.375C232.337 450.839 231.679 450.238 231.083 449.579L231.014 449.491V449.422C231.171 449.049 231.299 448.833 231.348 448.853C231.397 448.872 231.348 449.108 231.299 449.51V449.353L233.379 450.973C234.294 451.573 235.148 452.26 235.931 453.024Z" fill="#FAFAFA"/>
<path d="M207.447 368.171C207.447 368.308 206.652 368.249 206.024 367.582C205.396 366.914 205.347 366.149 205.484 366.139C205.622 366.129 205.867 366.698 206.387 367.228C206.907 367.758 207.477 368.033 207.447 368.171Z" fill="#FAFAFA"/>
<path d="M203.629 380.322C203.629 380.459 202.559 380.479 201.666 379.635C200.773 378.791 200.626 377.73 200.763 377.73C200.901 377.73 201.205 378.555 202.01 379.262C202.815 379.968 203.649 380.175 203.629 380.322Z" fill="#FAFAFA"/>
<path d="M200.498 393.975C200.498 394.044 200.223 394.113 199.772 394.054C199.19 393.959 198.646 393.704 198.201 393.318C197.747 392.944 197.407 392.451 197.22 391.894C197.082 391.463 197.112 391.178 197.22 391.168C197.328 391.158 197.632 392.15 198.584 392.925C199.536 393.7 200.508 393.828 200.498 393.975Z" fill="#FAFAFA"/>
<path d="M197.838 407.422C197.76 407.54 197.033 407.236 196.209 406.735C195.384 406.235 194.776 405.754 194.844 405.606C194.913 405.459 195.649 405.793 196.474 406.293C197.298 406.794 197.907 407.304 197.838 407.422Z" fill="#FAFAFA"/>
<path d="M195.365 422.813C195.286 422.93 194.432 422.489 193.696 421.576C192.96 420.663 192.715 419.731 192.842 419.691C192.97 419.652 193.412 420.418 194.099 421.252C194.786 422.086 195.443 422.695 195.365 422.813Z" fill="#FAFAFA"/>
<path d="M178.09 561.346L172.515 586.513L162.366 605.162C162.191 605.479 162.084 605.829 162.052 606.19C162.019 606.551 162.061 606.914 162.175 607.258C162.289 607.602 162.473 607.918 162.716 608.187C162.958 608.457 163.253 608.673 163.583 608.823C163.964 609.003 164.383 609.087 164.803 609.068C165.224 609.049 165.634 608.928 165.997 608.715C170.728 605.986 188.052 595.857 188.357 593.992C188.71 591.833 196.003 567.814 196.003 567.814L178.09 561.346Z" fill="#1DCEFD"/>
<g opacity="0.6">
<path opacity="0.6" d="M163.583 608.833L188.769 592.313L188.513 593.374C188.289 594.293 187.747 595.103 186.982 595.661C184.931 597.133 179.13 601.098 166.076 608.744C165.7 608.966 165.276 609.09 164.84 609.106C164.405 609.121 163.972 609.027 163.583 608.833Z" fill="white"/>
</g>
<g opacity="0.6">
<path opacity="0.6" d="M185.608 582.94C185.236 583.091 184.934 583.378 184.763 583.741C184.592 584.105 184.565 584.52 184.685 584.903C184.823 585.273 185.097 585.575 185.452 585.749C185.806 585.922 186.213 585.953 186.59 585.835C186.977 585.677 187.292 585.381 187.474 585.004C187.655 584.627 187.69 584.195 187.571 583.794C187.389 583.424 187.07 583.139 186.683 582.998C186.295 582.857 185.868 582.872 185.49 583.038" fill="white"/>
</g>
<path d="M171.994 599.292C171.653 598.325 171.059 597.467 170.274 596.807C169.488 596.148 168.54 595.711 167.528 595.543C167.528 595.474 167.882 595.356 168.51 595.425C169.308 595.533 170.056 595.874 170.659 596.407C171.276 596.921 171.729 597.603 171.965 598.37C172.112 598.91 172.063 599.292 171.994 599.292Z" fill="#263238"/>
<path d="M169.383 602.208C169.246 602.286 168.637 601.275 167.42 600.588C166.65 600.237 165.861 599.933 165.055 599.675C165.498 599.531 165.97 599.494 166.431 599.567C166.891 599.64 167.328 599.822 167.705 600.097C169.089 600.892 169.57 602.178 169.383 602.208Z" fill="#263238"/>
<path d="M176.372 595.808C175.492 594.836 174.54 593.93 173.526 593.099C172.403 592.421 171.232 591.827 170.021 591.323C171.397 591.388 172.726 591.845 173.851 592.64C174.976 593.434 175.85 594.533 176.372 595.808Z" fill="#263238"/>
<path d="M178.708 588.289C178.6 588.427 177.363 587.504 175.577 587.004C173.79 586.503 172.259 586.572 172.24 586.405C173.387 586.105 174.595 586.122 175.734 586.454C176.873 586.786 177.9 587.42 178.708 588.289Z" fill="#263238"/>
<path d="M180.534 580.977C179.526 580.357 178.44 579.876 177.304 579.544C176.136 579.381 174.95 579.381 173.781 579.544C173.781 579.485 174.105 579.23 174.762 579.043C175.631 578.814 176.541 578.79 177.42 578.974C178.299 579.158 179.124 579.545 179.827 580.103C180.367 580.525 180.583 580.889 180.534 580.977Z" fill="#263238"/>
<path d="M177.697 578.121C177.68 577.782 177.748 577.445 177.893 577.139C178.192 576.291 178.655 575.51 179.257 574.842C179.65 574.311 180.21 573.927 180.848 573.753C181.063 573.717 181.285 573.748 181.483 573.841C181.681 573.933 181.846 574.084 181.957 574.273C182.145 574.654 182.187 575.091 182.074 575.5C181.81 576.328 181.265 577.038 180.535 577.509C179.804 577.98 178.933 578.182 178.07 578.082C177.219 577.962 176.423 577.592 175.784 577.019C175.144 576.445 174.689 575.695 174.477 574.862C174.425 574.652 174.419 574.433 174.458 574.22C174.496 574.006 174.58 573.804 174.703 573.625C174.848 573.462 175.04 573.347 175.253 573.298C175.466 573.249 175.689 573.267 175.891 573.351C176.475 573.639 176.972 574.075 177.334 574.617C177.883 575.325 178.302 576.126 178.57 576.982C178.699 577.293 178.756 577.628 178.737 577.964C178.326 576.855 177.746 575.815 177.02 574.882C176.686 574.429 176.248 574.062 175.744 573.812C175.634 573.762 175.512 573.75 175.395 573.777C175.278 573.803 175.173 573.867 175.096 573.959C175.022 574.082 174.974 574.218 174.955 574.36C174.936 574.502 174.948 574.646 174.988 574.784C175.194 575.495 175.601 576.133 176.16 576.62C176.718 577.107 177.405 577.424 178.139 577.532C178.868 577.618 179.604 577.453 180.227 577.064C180.85 576.675 181.321 576.085 181.564 575.392C181.665 575.116 181.665 574.814 181.564 574.538C181.507 574.431 181.418 574.344 181.308 574.291C181.199 574.238 181.075 574.221 180.956 574.244C180.418 574.395 179.938 574.707 179.581 575.137C178.778 576.01 178.14 577.02 177.697 578.121Z" fill="#263238"/>
<path d="M256.632 570.602L255.866 590.792C255.866 590.792 276.115 598.35 276.331 602.09L237.168 602.011L237.07 570.533L256.632 570.602Z" fill="#1DCEFD"/>
<g opacity="0.6">
<path opacity="0.6" d="M243.754 589.055C243.377 589.169 243.055 589.419 242.85 589.756C242.646 590.093 242.573 590.493 242.645 590.881C242.745 591.261 242.987 591.588 243.322 591.794C243.656 592.001 244.057 592.071 244.441 591.99C244.848 591.871 245.194 591.602 245.411 591.238C245.628 590.874 245.698 590.441 245.609 590.027C245.469 589.644 245.188 589.329 244.823 589.146C244.458 588.964 244.037 588.928 243.646 589.045" fill="white"/>
</g>
<g opacity="0.6">
<path opacity="0.6" d="M237.168 601.991L237.276 598.821L274.79 600.077C274.79 600.077 276.528 600.843 276.331 602.04L237.168 601.991Z" fill="white"/>
</g>
<path d="M256.494 590.577C256.494 590.773 255.513 590.851 254.59 591.47C253.668 592.088 253.147 592.883 252.971 592.805C252.794 592.726 253.079 591.627 254.237 590.901C255.395 590.174 256.544 590.4 256.494 590.577Z" fill="#263238"/>
<path d="M260.607 592.284C260.607 592.471 259.822 592.795 259.164 593.6C258.507 594.405 258.33 595.268 258.183 595.259C258.036 595.249 257.879 594.169 258.703 593.178C259.528 592.186 260.597 592.108 260.607 592.284Z" fill="#263238"/>
<path d="M262.924 597.212C262.757 597.212 262.492 596.289 262.982 595.248C263.473 594.208 264.366 593.786 264.455 593.943C264.543 594.1 263.974 594.66 263.581 595.523C263.189 596.387 263.12 597.192 262.924 597.212Z" fill="#263238"/>
<path d="M256.161 585.963C256.082 586.14 255.179 585.875 254.119 585.963C253.059 586.051 252.156 586.375 252.097 586.208C252.038 586.042 252.814 585.364 254.06 585.296C255.307 585.227 256.259 585.816 256.161 585.963Z" fill="#263238"/>
<g opacity="0.3">
<path opacity="0.3" d="M256.475 574.597L256.337 578.189L237.089 577.983L237.07 574.744L256.475 574.597Z" fill="#1E1E1E"/>
</g>
<path d="M256.24 581.89C255.597 582.068 254.919 582.068 254.277 581.89C253.569 581.769 252.879 581.558 252.225 581.262C251.839 581.087 251.466 580.887 251.106 580.663C250.887 580.541 250.688 580.386 250.517 580.201C250.4 580.068 250.329 579.902 250.313 579.725C250.297 579.549 250.338 579.372 250.429 579.22C250.521 579.084 250.645 578.973 250.791 578.898C250.937 578.822 251.099 578.785 251.263 578.788C251.512 578.786 251.76 578.819 251.999 578.886C252.417 578.99 252.824 579.131 253.216 579.308C253.877 579.607 254.486 580.008 255.023 580.496C255.935 581.34 256.24 582.057 256.181 582.096C256.122 582.135 255.651 581.556 254.728 580.859C254.189 580.46 253.602 580.131 252.981 579.878C252.614 579.734 252.237 579.619 251.852 579.534C251.44 579.426 251.087 579.416 250.979 579.603C250.871 579.789 250.93 579.701 250.979 579.819C251.109 579.954 251.257 580.069 251.42 580.162C251.751 580.381 252.095 580.577 252.451 580.751C253.058 581.056 253.692 581.302 254.345 581.487C254.986 581.572 255.619 581.707 256.24 581.89Z" fill="#263238"/>
<path d="M255.994 582.165C255.62 581.606 255.437 580.941 255.474 580.27C255.444 579.543 255.537 578.817 255.749 578.121C255.878 577.71 256.045 577.312 256.249 576.933C256.357 576.675 256.529 576.45 256.749 576.278C256.969 576.106 257.23 575.994 257.506 575.951C257.678 575.963 257.844 576.02 257.987 576.117C258.13 576.213 258.245 576.346 258.32 576.501C258.42 576.73 258.489 576.971 258.526 577.218C258.59 577.657 258.59 578.103 258.526 578.543C258.414 579.275 258.124 579.969 257.682 580.565C256.917 581.546 256.112 581.801 256.102 581.742C256.092 581.684 256.701 581.281 257.29 580.3C257.631 579.741 257.846 579.115 257.918 578.464C257.971 578.086 257.971 577.703 257.918 577.326C257.859 576.913 257.702 576.58 257.545 576.619C257.388 576.658 257.025 576.923 256.858 577.257C256.665 577.595 256.504 577.95 256.377 578.317C256.15 578.948 256.018 579.61 255.984 580.28C255.945 581.419 256.092 582.135 255.994 582.165Z" fill="#263238"/>
<path d="M218.411 349.119C218.411 349.119 206.024 368.681 204.238 376.17C202.451 383.659 168.903 564.409 168.903 564.409L205.121 575.304L236.746 427.426L227.481 574.214C227.47 574.35 227.487 574.486 227.531 574.614C227.576 574.742 227.646 574.86 227.739 574.96C227.831 575.059 227.943 575.139 228.067 575.193C228.192 575.247 228.326 575.275 228.462 575.274L264.867 574.155C265.119 574.156 265.362 574.059 265.544 573.885C265.727 573.712 265.836 573.475 265.849 573.223C266.742 558.961 277.814 380.842 275.782 375.67C273.662 370.252 268.106 351.445 268.106 351.445L218.411 349.119Z" fill="#263238"/>
<path d="M191.694 288.539C189.731 289.982 189.642 292.828 190.064 295.213C190.486 297.598 191.252 300.121 190.418 302.349C189.744 303.734 188.897 305.027 187.895 306.197C187.022 307.463 186.354 309.073 186.914 310.525C187.895 313.224 192.126 313.47 193.195 316.13C193.804 317.651 193.107 319.369 192.273 320.772C191.438 322.176 190.408 323.58 190.31 325.219C190.296 325.837 190.413 326.451 190.653 327.021C190.892 327.591 191.249 328.104 191.7 328.527C192.151 328.95 192.686 329.273 193.27 329.476C193.854 329.679 194.474 329.757 195.09 329.704C196.857 329.439 198.24 328.114 199.742 327.152C201.244 326.19 203.354 325.602 204.719 326.76C206.319 328.124 205.7 330.686 205.7 332.757C205.687 333.901 205.98 335.028 206.548 336.022C207.115 337.016 207.937 337.84 208.929 338.411C209.946 338.936 211.122 339.066 212.229 338.776C213.337 338.486 214.298 337.797 214.927 336.84C215.476 335.859 215.712 334.494 216.762 334.072C218.077 333.532 219.353 334.916 220.737 335.26C221.52 335.387 222.323 335.254 223.023 334.882C223.723 334.509 224.282 333.918 224.614 333.199C225.248 331.735 225.389 330.106 225.017 328.556C223.898 322.402 219.334 317.553 216.301 312.086C213.852 307.672 212.389 302.779 212.011 297.746C211.776 294.644 212.011 291.523 211.688 288.431C211.553 285.308 210.532 282.288 208.743 279.725C206.849 277.271 203.649 275.641 200.616 276.299" fill="#1DCEFD"/>
<path d="M231.829 215.994C222.377 215.729 213.307 223.139 211.688 232.454C210.844 237.293 211.747 242.544 209.518 246.912C206.574 252.693 198.839 255.363 197.102 261.635C195.649 266.867 199.065 272.54 197.622 277.772C196.552 281.55 193.166 284.22 191.517 287.783C190.722 289.514 190.374 291.417 190.506 293.317C190.638 295.218 191.246 297.054 192.273 298.659C193.339 300.236 194.818 301.49 196.55 302.281C198.282 303.072 200.198 303.371 202.088 303.144C204.473 302.801 206.633 301.584 208.959 300.838C213.867 299.208 219.285 299.807 224.448 300.524C229.61 301.24 234.911 302.074 239.975 300.887C245.04 299.699 249.909 295.979 250.664 290.777C251.155 287.43 249.899 284.112 248.868 280.893C242.076 259.613 245.148 236.459 240.398 214.61" fill="#1DCEFD"/>
<path d="M256.995 226.369C257.829 231.983 259.351 237.539 261.765 241.013C263.728 243.811 267.517 245.42 268.096 248.777C268.577 251.614 266.889 254.431 267.164 257.287C267.596 261.792 272.562 264.54 273.966 268.84C275.144 272.422 273.524 276.476 270.795 279.067C268.067 281.658 264.415 283.042 260.774 284.024C255.582 285.418 249.29 285.85 245.56 281.963C243.008 279.313 242.429 275.367 242.115 271.696C241.241 261.881 241.281 251.996 241.31 242.142" fill="#1DCEFD"/>
<path d="M223.054 235.821C222.773 233.572 222.947 231.29 223.566 229.11C224.185 226.929 225.235 224.896 226.656 223.13C228.076 221.363 229.836 219.901 231.833 218.828C233.829 217.756 236.021 217.096 238.277 216.887C247.288 216.033 255.297 222.776 256.642 231.688C257.829 239.541 258.85 247.452 258.811 250.338C258.703 259.014 253.628 262.391 251.567 263.402C250.828 263.675 250.061 263.866 249.28 263.971C249.273 263.981 249.269 263.993 249.269 264.005C249.269 264.018 249.273 264.03 249.28 264.04L251.243 273.993C252.117 280.52 248.475 286.34 241.958 287.292C235.441 288.244 230.317 283.229 229.316 276.702L223.054 235.821Z" fill="#FFBE9D"/>
<path d="M254.875 235.477C254.738 235.683 253.589 235.065 252.127 235.291C250.664 235.516 249.683 236.4 249.506 236.272C249.329 236.145 249.506 235.86 249.958 235.448C250.525 234.913 251.246 234.57 252.019 234.466C252.782 234.348 253.563 234.479 254.247 234.839C254.747 235.094 254.963 235.389 254.875 235.477Z" fill="#263238"/>
<path d="M241.644 238.068C241.507 238.275 240.358 237.656 238.886 237.872C237.414 238.088 236.452 238.981 236.265 238.854C236.079 238.726 236.265 238.441 236.726 238.029C237.296 237.498 238.016 237.155 238.788 237.048C239.552 236.932 240.334 237.066 241.016 237.43C241.516 237.676 241.722 237.98 241.644 238.068Z" fill="#263238"/>
<path d="M247.111 246.529C247.848 246.175 248.626 245.915 249.428 245.754C249.801 245.665 250.144 245.538 250.174 245.273C250.148 244.88 250.004 244.503 249.761 244.193L248.23 241.504C246.1 237.666 244.5 234.486 244.657 234.397C244.814 234.309 246.62 237.342 248.799 241.199L250.282 243.918C250.577 244.339 250.72 244.848 250.684 245.361C250.648 245.5 250.581 245.629 250.49 245.739C250.398 245.849 250.284 245.938 250.154 245.999C249.953 246.083 249.742 246.143 249.526 246.176C248.74 246.399 247.928 246.517 247.111 246.529Z" fill="#263238"/>
<path d="M249.192 263.942C249.192 263.942 243.597 265.237 235.883 261.979C235.883 261.979 239.21 269.144 249.712 266.592L249.192 263.942Z" fill="#EB996E"/>
<path d="M247.033 250.2C246.703 249.889 246.299 249.667 245.859 249.556C245.419 249.444 244.959 249.446 244.52 249.562C244.2 249.639 243.898 249.779 243.634 249.975C243.369 250.17 243.146 250.417 242.979 250.701C242.817 250.974 242.744 251.29 242.768 251.606C242.793 251.922 242.914 252.223 243.116 252.468C243.388 252.69 243.718 252.828 244.067 252.864C244.416 252.901 244.768 252.835 245.079 252.674C245.734 252.325 246.315 251.852 246.787 251.28C246.936 251.141 247.056 250.974 247.141 250.789C247.202 250.702 247.232 250.596 247.227 250.49C247.221 250.383 247.181 250.281 247.111 250.2" fill="#EB996E"/>
<path d="M242.969 248.178C243.205 248.178 243.44 249.719 244.932 250.652C246.424 251.584 248.122 251.162 248.171 251.388C248.22 251.614 247.838 251.751 247.121 251.879C246.191 252.023 245.241 251.839 244.432 251.358C243.66 250.871 243.108 250.104 242.891 249.219C242.734 248.61 242.851 248.237 242.969 248.178Z" fill="#263238"/>
<path d="M240.888 233.877C240.8 234.3 239.308 234.319 237.62 234.78C235.931 235.242 234.596 235.909 234.322 235.585C234.194 235.428 234.38 235.016 234.881 234.604C235.561 234.02 236.365 233.598 237.233 233.372C238.1 233.146 239.008 233.121 239.887 233.298C240.564 233.406 240.927 233.681 240.888 233.877Z" fill="#1DCEFD"/>
<path d="M253.638 231.433C253.432 231.806 252.362 231.61 251.145 231.767C249.928 231.924 248.937 232.317 248.642 232.002C248.515 231.855 248.642 231.492 249.035 231.109C249.587 230.634 250.273 230.342 250.998 230.275C251.715 230.18 252.443 230.314 253.079 230.658C253.54 230.933 253.727 231.256 253.638 231.433Z" fill="#1DCEFD"/>
<path d="M250.762 237.303C250.705 237.655 250.788 238.016 250.994 238.307C251.199 238.599 251.511 238.799 251.862 238.863C252.03 238.903 252.204 238.909 252.375 238.881C252.545 238.852 252.708 238.791 252.855 238.7C253.002 238.609 253.129 238.49 253.23 238.349C253.331 238.209 253.403 238.05 253.442 237.882C253.494 237.529 253.407 237.17 253.201 236.879C252.994 236.588 252.683 236.388 252.333 236.321C251.994 236.245 251.64 236.305 251.346 236.489C251.051 236.673 250.842 236.965 250.762 237.303Z" fill="#263238"/>
<path d="M237.61 239.894C237.556 240.246 237.641 240.606 237.849 240.895C238.056 241.185 238.368 241.382 238.719 241.445C238.887 241.484 239.06 241.49 239.23 241.462C239.4 241.433 239.562 241.372 239.708 241.281C239.854 241.19 239.981 241.07 240.081 240.93C240.18 240.79 240.251 240.631 240.289 240.463C240.347 240.111 240.264 239.75 240.058 239.459C239.853 239.167 239.541 238.967 239.19 238.903C239.021 238.864 238.846 238.858 238.675 238.887C238.504 238.915 238.341 238.978 238.194 239.07C238.047 239.162 237.92 239.282 237.82 239.424C237.719 239.565 237.648 239.725 237.61 239.894Z" fill="#263238"/>
<path d="M224.006 277.006L250.664 271.539L256.465 271.342L256.053 289.01C256.053 289.01 241.389 293.564 240.849 293.849C240.309 294.134 230.709 293.849 230.709 293.849L224.006 277.006Z" fill="#FFBE9D"/>
<path d="M234.518 221.039C232.917 222.964 231.855 225.279 231.44 227.748C231.024 230.216 231.27 232.751 232.152 235.094C233.389 238.225 235.794 241.111 235.588 244.468C235.333 248.63 231.083 251.888 231.318 256.06C231.573 260.752 237.58 263.716 237.59 268.408C237.6 273.099 234.695 275.003 229.11 276.024C225.527 276.672 223.544 272.245 221.768 269.065C219.991 265.885 219.412 262.194 219.049 258.582C218.449 252.574 218.354 246.527 218.764 240.503C219.108 235.595 219.824 230.687 222.347 226.476C223.658 224.343 225.396 222.503 227.451 221.072C229.507 219.641 231.836 218.651 234.292 218.163" fill="#1DCEFD"/>
<path d="M258.321 229.745C256.524 232.483 250.831 230.795 247.386 228.911C245.595 230.061 243.427 230.467 241.341 230.044C239.255 229.621 237.417 228.401 236.216 226.643C234.253 229.146 230.249 228.322 228.796 225.495C227.343 222.668 228.158 218.781 230.16 216.308C232.183 213.994 234.97 212.482 238.013 212.048C241.491 211.376 245.091 211.737 248.367 213.087C251.642 214.437 254.451 216.717 256.446 219.645C258.33 222.501 259.469 226.359 258.35 229.784" fill="#1DCEFD"/>
<path d="M150.165 295.115L144.325 283.248L141.586 277.261C140.899 275.759 141.91 275.062 142.754 276.005C143.078 276.368 146.808 281.03 146.808 281.03L142.882 272.667C141.645 270.027 143.422 269.988 144.109 270.891C144.796 271.794 149.498 279.577 149.498 279.577C144.521 269.212 145.257 268.084 146.043 267.799C146.828 267.514 151.284 276.957 151.284 276.957C151.734 275.696 152.447 274.545 153.375 273.58C155.662 271.274 160.393 272.255 160.844 273.453C161.296 274.65 159.784 275.298 159.784 275.298C159.077 274.948 158.282 274.812 157.499 274.908C156.716 275.004 155.977 275.327 155.375 275.837C154.773 276.347 154.334 277.023 154.111 277.78C153.888 278.537 153.891 279.343 154.121 280.098C155.102 283.18 158.969 281.992 159.028 279.656C159.185 274.532 161.188 275.808 161.188 275.808L161.531 286.978L164.358 292.102L186.57 321.401L193.127 310.898L209.882 327.349L198.466 340.109C196.8 342.015 194.699 343.49 192.34 344.408C189.981 345.326 187.435 345.661 184.919 345.383C182.403 345.106 179.992 344.224 177.89 342.813C175.788 341.403 174.058 339.505 172.848 337.282L150.165 295.115Z" fill="#FFBE9D"/>
<path d="M313.6 274.042C292.458 272.825 258.369 270.116 255.689 271.028C255.689 271.028 258.065 286.733 243.685 289C229.306 291.268 224.055 277.006 224.055 277.006C224.055 277.006 209.332 281.197 203.874 290.247C198.417 299.297 191.713 309.426 191.713 309.426L211.481 328.86L217.007 322.795L221.002 336.065L218.46 349.119L268.204 351.445L271.639 294.271L313.649 290.816L313.6 274.042Z" fill="#455A64"/>
<path d="M211.442 303.969C211.589 303.969 213.817 310.918 216.409 319.585C219 328.252 220.983 335.289 220.835 335.358C220.688 335.427 218.46 328.419 215.869 319.742C213.277 311.065 211.295 304.018 211.442 303.969Z" fill="#263238"/>
<path d="M281.161 281.776C281.269 281.923 277.951 283.886 275.173 287.665C272.396 291.444 271.365 295.095 271.188 295.027C271.269 294.194 271.481 293.379 271.816 292.612C272.519 290.717 273.495 288.935 274.712 287.322C275.933 285.709 277.377 284.278 279.001 283.072C279.643 282.521 280.373 282.083 281.161 281.776Z" fill="#263238"/>
<path d="M234.292 315.109C234.264 315.065 234.248 315.014 234.243 314.962C234.234 314.94 234.229 314.917 234.229 314.893C234.229 314.869 234.234 314.846 234.243 314.824C234.249 314.771 234.273 314.721 234.31 314.681C234.347 314.642 234.396 314.617 234.449 314.608C234.51 314.602 234.572 314.609 234.63 314.63C234.687 314.65 234.74 314.683 234.783 314.726C234.817 314.759 234.853 314.788 234.891 314.815C235.05 314.982 235.245 315.111 235.46 315.193C235.676 315.274 235.908 315.306 236.138 315.286C236.305 315.254 236.464 315.188 236.604 315.092C236.744 314.995 236.863 314.871 236.952 314.726C237.047 314.583 237.112 314.423 237.142 314.254C237.173 314.085 237.168 313.912 237.129 313.745C237.075 313.477 236.938 313.233 236.736 313.048C236.513 312.873 236.255 312.746 235.981 312.675C235.617 312.547 235.402 312.479 235.333 312.439C235.183 312.382 235.041 312.306 234.911 312.214C234.76 312.111 234.632 311.979 234.534 311.825C234.437 311.672 234.371 311.5 234.341 311.32V311.163C234.288 310.757 234.393 310.345 234.636 310.015C234.867 309.676 235.218 309.438 235.617 309.347C235.796 309.318 235.979 309.318 236.157 309.347C236.53 309.375 236.88 309.539 237.139 309.809C237.178 309.859 237.208 309.915 237.227 309.976C237.241 310.027 237.241 310.081 237.227 310.133C237.21 310.183 237.181 310.229 237.141 310.265C237.102 310.301 237.054 310.327 237.001 310.339C236.967 310.357 236.928 310.366 236.889 310.366C236.849 310.366 236.811 310.357 236.776 310.339C236.645 310.218 236.489 310.127 236.32 310.073C236.15 310.018 235.971 310.002 235.794 310.025C235.546 310.078 235.327 310.226 235.186 310.437C235.098 310.553 235.038 310.688 235.009 310.83C234.98 310.973 234.984 311.12 235.019 311.261C235.051 311.438 235.145 311.598 235.284 311.713C235.496 311.865 235.731 311.981 235.981 312.056C236.264 312.14 236.54 312.249 236.805 312.38C237.073 312.492 237.31 312.666 237.496 312.888C237.682 313.11 237.812 313.373 237.875 313.656C237.89 313.78 237.89 313.905 237.875 314.029C237.881 314.478 237.724 314.914 237.433 315.256C237.153 315.614 236.758 315.864 236.314 315.963C236.014 316.025 235.703 316.008 235.411 315.914C234.963 315.769 234.572 315.488 234.292 315.109Z" fill="white"/>
<path d="M243.499 314C243.509 314.042 243.51 314.085 243.503 314.128C243.495 314.17 243.479 314.211 243.455 314.247C243.431 314.283 243.4 314.313 243.364 314.337C243.327 314.36 243.287 314.376 243.244 314.383C243.187 314.403 243.124 314.403 243.067 314.383C243.003 314.356 242.948 314.313 242.906 314.258C242.865 314.203 242.839 314.137 242.832 314.069C242.832 314.019 242.714 312.871 242.508 310.633C242.145 312.135 241.86 313.323 241.664 314.186C241.615 314.373 241.595 314.481 241.585 314.5C241.573 314.572 241.541 314.639 241.492 314.692C241.443 314.746 241.38 314.785 241.31 314.805H241.222C241.153 314.797 241.088 314.772 241.032 314.73C240.977 314.689 240.934 314.633 240.908 314.569L239.455 311.252C239.563 312.528 239.642 313.715 239.691 314.785C239.691 315.001 239.622 315.129 239.426 315.168C239.369 315.187 239.306 315.187 239.249 315.168C239.185 315.142 239.129 315.099 239.088 315.043C239.047 314.988 239.021 314.923 239.014 314.854C239.014 314.854 238.886 313.313 238.66 310.309C238.601 309.534 238.572 309.122 238.572 309.063C238.556 309.015 238.556 308.963 238.572 308.915C238.587 308.857 238.619 308.804 238.665 308.764C238.71 308.723 238.767 308.698 238.827 308.69H238.925C238.974 308.687 239.022 308.698 239.064 308.723C239.106 308.747 239.14 308.784 239.161 308.827L240.26 311.389L241.104 313.352L242.331 308.189C242.324 308.157 242.324 308.123 242.331 308.091C242.353 308.037 242.387 307.989 242.432 307.951C242.476 307.913 242.529 307.887 242.586 307.875C242.638 307.86 242.692 307.86 242.743 307.875C242.802 307.89 242.856 307.921 242.899 307.965C242.942 308.008 242.973 308.061 242.989 308.12C242.989 308.199 242.989 308.297 242.989 308.395C243.316 311.719 243.486 313.588 243.499 314Z" fill="white"/>
<path d="M245.786 313.529C245.786 313.754 245.698 313.892 245.521 313.931C245.461 313.951 245.395 313.951 245.335 313.931C245.273 313.903 245.22 313.859 245.181 313.804C245.141 313.749 245.116 313.684 245.109 313.617L244.677 307.826C244.673 307.783 244.673 307.741 244.677 307.698C244.686 307.633 244.716 307.572 244.762 307.525C244.808 307.477 244.867 307.445 244.932 307.433C244.987 307.419 245.045 307.419 245.099 307.433C245.155 307.445 245.205 307.473 245.245 307.513C245.285 307.553 245.313 307.604 245.325 307.659C245.626 311.441 245.78 313.398 245.786 313.529Z" fill="white"/>
<path d="M250.527 312.871L247.769 313.45C247.708 313.469 247.643 313.469 247.582 313.45C247.527 313.417 247.478 313.373 247.439 313.321C247.4 313.269 247.372 313.209 247.357 313.146C247.357 313.041 247.213 311.111 246.925 307.355C246.925 307.355 246.925 307.276 246.925 307.237C246.934 307.172 246.964 307.111 247.01 307.063C247.055 307.016 247.115 306.984 247.18 306.972H247.337C247.396 306.989 247.449 307.022 247.491 307.067C247.532 307.112 247.561 307.167 247.573 307.227C247.573 307.483 247.651 308.013 247.71 308.817C247.906 311.281 248.004 312.587 248.024 312.744L250.36 312.253C250.421 312.238 250.485 312.238 250.547 312.253C250.614 312.264 250.677 312.295 250.726 312.342C250.775 312.39 250.808 312.451 250.821 312.518C250.836 312.61 250.815 312.704 250.762 312.781C250.709 312.858 250.628 312.911 250.537 312.93L250.527 312.871Z" fill="white"/>
<path d="M251.381 306.059L254.001 305.509C254.053 305.5 254.107 305.5 254.159 305.509C254.231 305.511 254.301 305.539 254.355 305.587C254.409 305.636 254.444 305.702 254.453 305.774C254.463 305.816 254.463 305.86 254.453 305.902C254.436 305.971 254.4 306.034 254.35 306.084C254.3 306.134 254.237 306.169 254.168 306.187L251.813 306.687L251.989 308.984L253.687 308.621H253.874C253.941 308.631 254.002 308.662 254.05 308.71C254.098 308.757 254.129 308.819 254.139 308.886C254.149 308.921 254.149 308.959 254.139 308.994C254.125 309.065 254.091 309.131 254.041 309.184C253.99 309.236 253.925 309.272 253.854 309.288L252.048 309.671L252.215 311.821L254.551 311.33C254.609 311.315 254.67 311.315 254.728 311.33C254.798 311.336 254.864 311.365 254.916 311.413C254.968 311.461 255.002 311.525 255.012 311.595V311.703C254.999 311.776 254.966 311.843 254.915 311.897C254.865 311.951 254.8 311.989 254.728 312.007L251.999 312.577C251.935 312.596 251.867 312.596 251.803 312.577C251.741 312.548 251.688 312.504 251.649 312.449C251.609 312.394 251.584 312.33 251.577 312.262C251.577 312.262 251.41 310.299 251.116 306.471C251.111 306.432 251.111 306.393 251.116 306.354C251.121 306.282 251.15 306.214 251.198 306.161C251.246 306.108 251.31 306.072 251.381 306.059Z" fill="white"/>
<path d="M259.115 304.449C259.167 304.435 259.221 304.435 259.272 304.449C259.329 304.467 259.38 304.499 259.422 304.542C259.463 304.585 259.492 304.637 259.508 304.695C259.802 308.346 259.959 310.309 259.979 310.584C260.012 311.141 259.918 311.698 259.704 312.213C259.559 312.546 259.333 312.836 259.046 313.059C258.76 313.282 258.423 313.43 258.065 313.489C257.689 313.539 257.306 313.504 256.946 313.385C256.585 313.266 256.257 313.066 255.984 312.802C255.951 312.755 255.928 312.701 255.915 312.645C255.901 312.587 255.901 312.527 255.915 312.469C255.934 312.414 255.966 312.365 256.009 312.327C256.052 312.289 256.104 312.264 256.161 312.253C256.211 312.243 256.263 312.245 256.312 312.259C256.362 312.272 256.407 312.297 256.446 312.331C256.648 312.537 256.898 312.691 257.173 312.78C257.448 312.869 257.741 312.89 258.026 312.841C258.238 312.794 258.437 312.698 258.607 312.562C258.777 312.426 258.914 312.253 259.007 312.056C259.278 311.474 259.363 310.823 259.253 310.191C259.177 310.381 259.071 310.556 258.939 310.712C258.694 310.981 258.372 311.166 258.016 311.242H257.829C257.601 311.25 257.374 311.207 257.165 311.115C256.956 311.023 256.77 310.885 256.622 310.712C256.184 310.222 255.892 309.621 255.778 308.974C255.709 308.641 255.65 308.297 255.611 307.934C255.543 307.365 255.503 306.55 255.484 305.48C255.479 305.447 255.479 305.414 255.484 305.382C255.487 305.314 255.513 305.249 255.557 305.197C255.602 305.145 255.662 305.11 255.729 305.097C255.784 305.083 255.841 305.083 255.896 305.097C255.95 305.11 255.999 305.138 256.038 305.178C256.076 305.218 256.102 305.268 256.112 305.323C256.177 305.749 256.216 306.178 256.23 306.609C256.255 307.266 256.318 307.921 256.416 308.572C256.505 309.085 256.695 309.576 256.976 310.015C257.07 310.187 257.214 310.326 257.389 310.416C257.564 310.505 257.762 310.54 257.957 310.515H258.065C258.387 310.332 258.629 310.034 258.742 309.681C258.974 309.158 259.098 308.594 259.105 308.022L258.86 304.803C258.855 304.754 258.855 304.704 258.86 304.655C258.879 304.601 258.914 304.553 258.959 304.516C259.004 304.48 259.058 304.457 259.115 304.449Z" fill="white"/>
<path d="M236.785 266.052C238.66 268.594 237.963 272.187 236.727 275.082C235.49 277.978 233.782 280.824 233.782 283.975C233.782 286.919 235.294 289.668 236.462 292.406C237.63 295.145 238.425 298.384 237.021 301.004C235.49 303.851 231.77 305.176 230.71 308.228C229.453 311.86 232.673 316.179 230.769 319.536C229.493 321.842 226.155 322.48 223.829 321.185C222.707 320.486 221.763 319.534 221.073 318.406C220.383 317.278 219.965 316.005 219.854 314.687C219.658 312.044 219.92 309.388 220.629 306.835C221.454 303.115 222.288 298.865 220.06 295.773C218.745 293.957 216.487 292.828 215.761 290.669C214.897 288.156 216.576 285.486 218.46 283.612C220.345 281.737 222.622 280.009 223.368 277.467C223.821 275.478 223.716 273.403 223.064 271.47C222.423 269.538 222.092 267.518 222.082 265.483C222.219 263.461 223.348 261.341 225.282 260.732C228.011 259.868 230.602 262.214 232.506 264.344" fill="#1DCEFD"/>
<path d="M211.432 360.819C211.432 361.535 243.254 360.819 243.254 360.819L244.49 353.055L219.118 345.438C219.118 345.438 211.776 354.39 211.432 360.819Z" fill="#1DCEFD"/>
<path d="M244.49 353.075L268.39 347.578C268.39 347.578 274.888 358.689 273.622 369.172L243.253 360.79L244.49 353.075Z" fill="#1DCEFD"/>
<path d="M247.533 359.386C249.684 360.564 251.466 362.317 252.679 364.449C253.892 366.581 254.489 369.007 254.404 371.459C254.325 373.009 253.962 374.55 253.992 376.101C253.955 376.878 254.097 377.653 254.404 378.367C254.712 379.082 255.179 379.716 255.768 380.224C257.064 381.205 259.213 381.5 259.37 383.09C259.372 383.786 259.109 384.456 258.634 384.965C257.25 386.741 254.954 388.115 252.745 387.497C250.331 386.82 249.172 384.111 248.525 381.676C246.561 374.187 246.336 366.355 246.139 358.61" fill="#1DCEFD"/>
<g opacity="0.3">
<path opacity="0.3" d="M248.093 359.72C250.164 360.867 251.859 362.591 252.972 364.681C254.085 366.771 254.569 369.139 254.365 371.498C254.286 373.049 253.923 374.59 253.952 376.141C253.916 376.918 254.057 377.693 254.365 378.407C254.673 379.121 255.139 379.756 255.729 380.263C257.025 381.245 259.174 381.539 259.331 383.129C259.333 383.825 259.07 384.495 258.595 385.004C257.211 386.781 254.914 388.155 252.706 387.536C250.291 386.859 249.133 384.15 248.485 381.716C246.522 374.227 247.239 368.838 247.042 361.104" fill="#1E1E1E"/>
</g>
<path d="M241.222 359.219C236.496 369.618 235.797 381.401 239.259 392.287C239.549 393.594 240.255 394.772 241.271 395.644C243.028 396.89 245.443 396.174 247.455 395.428C250.036 394.446 252.902 393.229 253.874 390.648C254.346 389.207 254.329 387.651 253.825 386.221C252.961 383.355 251.028 380.862 250.38 377.947C249.801 375.306 250.311 372.568 250.174 369.878C250.039 367.512 249.406 365.2 248.315 363.096C247.223 360.992 245.699 359.142 243.843 357.668" fill="#1DCEFD"/>
<g opacity="0.3">
<path opacity="0.3" d="M240.564 360.132C240.674 360.697 240.907 361.23 241.246 361.695C241.586 362.16 242.023 362.544 242.527 362.821C243.042 363.088 243.616 363.218 244.195 363.199C244.774 363.18 245.339 363.013 245.835 362.713C246.322 362.408 246.709 361.966 246.948 361.442C247.187 360.919 247.268 360.337 247.18 359.769C246.252 360.633 245.032 361.114 243.764 361.113C242.493 361.113 241.273 360.621 240.358 359.739" fill="#1E1E1E"/>
</g>
<path d="M248.446 356.059C247.69 353.929 244.962 351.867 242.724 352.182H242.773C242.11 352.188 241.461 352.364 240.887 352.695C240.313 353.025 239.833 353.497 239.494 354.066C239.073 355.018 238.93 356.07 239.08 357.1C239.231 358.131 239.669 359.097 240.345 359.889C241.021 360.681 241.907 361.266 242.901 361.576C243.895 361.887 244.956 361.91 245.963 361.643C246.995 361.186 247.821 360.362 248.28 359.329C248.739 358.297 248.798 357.132 248.446 356.059Z" fill="#1DCEFD"/>
<path d="M239.966 359.838C240.345 360.003 240.702 360.218 241.026 360.476C241.925 361.117 242.972 361.522 244.068 361.653C244.811 361.734 245.561 361.608 246.238 361.29C246.986 360.894 247.554 360.227 247.828 359.425C248.154 358.501 248.235 357.508 248.063 356.543C247.891 355.578 247.472 354.674 246.846 353.919C246.21 353.175 245.369 352.636 244.428 352.369C243.487 352.102 242.487 352.119 241.556 352.417C240.802 352.68 240.133 353.139 239.615 353.746C239.098 354.353 238.751 355.087 238.611 355.872C238.452 356.961 238.704 358.07 239.318 358.984C239.565 359.309 239.83 359.621 240.113 359.916C240.113 359.916 240.005 359.916 239.828 359.759C239.579 359.569 239.354 359.348 239.161 359.101C238.437 358.171 238.109 356.993 238.248 355.823C238.384 354.957 238.751 354.143 239.308 353.467C239.866 352.79 240.594 352.275 241.418 351.975C242.439 351.628 243.541 351.596 244.581 351.883C245.621 352.17 246.55 352.763 247.249 353.585C247.939 354.406 248.4 355.395 248.585 356.452C248.769 357.509 248.671 358.596 248.299 359.602C247.979 360.504 247.321 361.247 246.463 361.673C245.714 362.003 244.889 362.118 244.078 362.007C242.929 361.851 241.848 361.375 240.957 360.633C240.599 360.404 240.266 360.138 239.966 359.838Z" fill="#263238"/>
<path d="M243.872 352.083C243.921 352.152 243.44 352.495 242.891 353.212C242.138 354.142 241.65 355.257 241.477 356.441C241.335 357.63 241.522 358.835 242.017 359.926C242.39 360.77 242.773 361.231 242.714 361.28C242.655 361.329 242.184 360.946 241.732 360.093C241.097 358.966 240.842 357.665 241.006 356.382C241.184 355.1 241.765 353.907 242.665 352.976C243.273 352.28 243.843 352.034 243.872 352.083Z" fill="#263238"/>
<path d="M253.619 384.464C253.619 384.464 253.55 384.71 253.344 385.102C253.047 385.655 252.702 386.181 252.313 386.673C251.042 388.325 249.462 389.716 247.661 390.766C245.848 391.823 243.848 392.523 241.772 392.827C241.147 392.915 240.517 392.954 239.887 392.945C239.445 392.945 239.2 392.945 239.2 392.876C239.2 392.807 240.181 392.768 241.703 392.464C245.721 391.676 249.355 389.556 252.019 386.447C253 385.259 253.54 384.425 253.619 384.464Z" fill="#263238"/>
<path d="M245.639 396.095C245.59 396.223 244.549 395.762 243.921 394.584C243.692 394.258 243.542 393.884 243.484 393.49C243.426 393.096 243.462 392.694 243.588 392.316C243.735 392.316 243.794 393.298 244.363 394.338C244.932 395.379 245.717 395.968 245.639 396.095Z" fill="#263238"/>
<path d="M250.282 393.239C250.282 393.366 249.222 393.092 248.564 392.061C247.906 391.03 248.044 389.98 248.181 390.01C248.319 390.039 248.407 390.903 248.986 391.776C249.565 392.65 250.341 393.101 250.282 393.239Z" fill="#263238"/>
<path d="M253 392.179C252.861 391.43 252.667 390.692 252.421 389.97C251.921 388.822 251.361 387.909 251.499 387.821C252.149 388.321 252.635 389.005 252.892 389.784C253.133 390.32 253.248 390.904 253.226 391.492C253.177 391.933 253.049 392.198 253 392.179Z" fill="#263238"/>
<path d="M246.974 384.484C246.793 384.246 246.644 383.985 246.532 383.708C246.163 382.988 245.835 382.247 245.551 381.49C243.653 376.486 242.935 371.112 243.45 365.785C243.558 364.804 243.676 363.95 243.794 363.391C243.819 363.095 243.895 362.806 244.019 362.537C244.098 362.537 243.921 363.793 243.813 365.815C243.67 368.436 243.768 371.064 244.108 373.667C244.462 376.273 245.06 378.839 245.894 381.333C246.552 383.286 247.052 384.444 246.974 384.484Z" fill="#263238"/>
<g opacity="0.3">
<path opacity="0.3" d="M243.823 363.361C241.88 368.948 241.88 375.029 243.823 380.616C243.921 380.901 244.049 381.225 244.334 381.323C244.422 381.343 244.513 381.346 244.603 381.331C244.692 381.315 244.777 381.283 244.854 381.234C244.931 381.186 244.997 381.123 245.049 381.049C245.101 380.975 245.138 380.891 245.158 380.803C245.233 380.44 245.209 380.064 245.089 379.713C243.882 374.658 242.979 368.612 243.892 363.488" fill="#1E1E1E"/>
</g>
<path d="M224.202 354.243C224.874 354.066 225.569 353.987 226.263 354.007C227.926 353.957 229.59 354.039 231.24 354.252C232.902 354.463 234.544 354.814 236.147 355.303C236.836 355.455 237.497 355.71 238.11 356.058C238.11 356.206 235.058 355.254 231.24 354.763C227.422 354.272 224.212 354.38 224.202 354.243Z" fill="#263238"/>
<path d="M258.477 354.429C258.477 354.576 256.18 354.802 253.403 355.362C250.625 355.921 248.406 356.598 248.357 356.461C249.894 355.662 251.552 355.121 253.265 354.861C254.968 354.439 256.728 354.293 258.477 354.429Z" fill="#263238"/>
<path d="M268.283 361.359C267.301 361.093 266.337 360.765 265.397 360.377C263.094 359.558 260.744 358.876 258.359 358.336C255.97 357.808 253.551 357.424 251.116 357.187C250.099 357.142 249.087 357.037 248.083 356.873C249.1 356.76 250.127 356.76 251.145 356.873C253.609 356.995 256.058 357.324 258.467 357.855C260.878 358.389 263.239 359.128 265.525 360.063C266.488 360.395 267.412 360.83 268.283 361.359Z" fill="#263238"/>
<g opacity="0.3">
<path opacity="0.3" d="M259.37 349.767C259.9 358.051 264.563 364.303 271.591 368.73L273.622 369.221C273.779 368.907 273.514 368.053 273.397 367.719C271.936 363.569 270.154 359.539 268.067 355.666C267.085 353.929 266.683 349.659 265.24 348.304L259.351 349.767" fill="#1E1E1E"/>
</g>
<path d="M241.222 397.312C241.359 397.312 240.319 404.605 238.896 413.567C237.472 422.528 236.216 429.762 236.079 429.742C235.941 429.723 236.972 422.44 238.395 413.478C239.818 404.517 241.114 397.283 241.222 397.312Z" fill="#455A64"/>
<path d="M226.715 353.614C226.666 353.614 226.45 353.389 226.273 352.888C226.052 352.23 226.015 351.524 226.165 350.846C226.323 350.161 226.662 349.53 227.147 349.021C227.52 348.638 227.824 348.501 227.854 348.55C227.294 349.253 226.904 350.076 226.715 350.954C226.526 351.833 226.543 352.743 226.764 353.614H226.715Z" fill="#FAFAFA"/>
<path d="M229.12 360.888C229.12 360.888 228.747 360.721 228.413 360.191C227.985 359.482 227.835 358.639 227.99 357.826C228.146 357.012 228.597 356.285 229.257 355.784C229.758 355.411 230.15 355.342 230.17 355.401C230.189 355.46 229.885 355.656 229.493 356.059C228.984 356.559 228.639 357.203 228.504 357.904C228.369 358.605 228.45 359.331 228.737 359.985C228.953 360.544 229.178 360.829 229.12 360.888Z" fill="#FAFAFA"/>
<path d="M236.874 360.78C236.874 360.829 236.54 360.721 236.197 360.338C235.774 359.823 235.539 359.179 235.529 358.513C235.503 357.844 235.711 357.188 236.118 356.657C236.442 356.265 236.737 356.137 236.776 356.186C236.815 356.235 236.629 356.461 236.422 356.854C236.159 357.361 236.027 357.926 236.039 358.497C236.051 359.068 236.207 359.627 236.491 360.122C236.717 360.505 236.923 360.711 236.874 360.78Z" fill="#FAFAFA"/>
<path d="M217.547 361.045C217.269 360.318 217.129 359.546 217.135 358.768C216.933 354.993 218.147 351.279 220.541 348.354C221.001 347.731 221.566 347.193 222.21 346.763C222.268 346.832 221.65 347.45 220.826 348.579C219.758 350.052 218.924 351.681 218.352 353.408C217.79 355.136 217.502 356.941 217.498 358.758C217.498 360.132 217.665 361.025 217.547 361.045Z" fill="#FAFAFA"/>
<path d="M233.438 355.892C233.438 355.892 233.114 355.725 232.869 355.234C232.571 354.571 232.498 353.828 232.661 353.12C232.824 352.411 233.214 351.775 233.772 351.308C234.214 350.974 234.567 350.916 234.587 350.965C234.606 351.014 234.351 351.21 234.017 351.573C233.597 352.046 233.3 352.616 233.154 353.232C233.018 353.848 233.035 354.489 233.203 355.097C233.37 355.568 233.507 355.843 233.438 355.892Z" fill="#FAFAFA"/>
<path d="M255.513 354.243C255.376 354.243 255.513 353.389 255.366 352.407C255.219 351.426 254.885 350.68 255.013 350.601C255.14 350.523 255.729 351.229 255.876 352.338C256.024 353.448 255.641 354.243 255.513 354.243Z" fill="#FAFAFA"/>
<path d="M257.339 357.521C257.28 357.649 256.593 357.315 256.357 356.49C256.122 355.666 256.446 354.989 256.573 355.048C256.701 355.106 256.573 355.676 256.848 356.333C257.123 356.991 257.427 357.403 257.339 357.521Z" fill="#FAFAFA"/>
<path d="M260.725 365.668C260.548 365.668 261.167 364.097 261.029 362.203C260.892 360.309 260.048 358.925 260.166 358.846C261.001 359.755 261.488 360.93 261.54 362.164C261.687 363.391 261.398 364.631 260.725 365.668Z" fill="#FAFAFA"/>
<path d="M243.852 374.109C243.852 374.109 243.597 374.433 243.008 374.708C242.242 375.052 241.403 375.207 240.564 375.159C239.723 375.121 238.903 374.886 238.169 374.472C237.62 374.139 237.355 373.834 237.394 373.785C238.384 374.299 239.474 374.594 240.588 374.65C241.702 374.705 242.816 374.521 243.852 374.109Z" fill="#FAFAFA"/>
<path d="M249.575 369.084C248.584 368.814 247.556 368.715 246.532 368.789C245.536 369.008 244.581 369.386 243.705 369.908C243.705 369.908 243.842 369.545 244.314 369.172C244.943 368.696 245.684 368.389 246.465 368.279C247.247 368.169 248.043 368.26 248.78 368.544C249.329 368.77 249.604 369.025 249.575 369.084Z" fill="#FAFAFA"/>
<path d="M245.58 382.226C245.629 382.226 245.472 382.727 245.001 383.375C244.36 384.212 243.529 384.885 242.577 385.338C241.631 385.803 240.587 386.032 239.534 386.005C239.096 386.028 238.66 385.936 238.268 385.74C239.68 385.788 241.084 385.492 242.357 384.878C243.631 384.264 244.737 383.351 245.58 382.217V382.226Z" fill="#FAFAFA"/>
<path d="M250.704 379.223C250.704 379.38 249.378 379.164 247.867 379.586C246.965 379.913 246.084 380.293 245.227 380.724C245.871 379.937 246.745 379.37 247.726 379.101C248.707 378.832 249.748 378.874 250.704 379.223Z" fill="#FAFAFA"/>
<path d="M211.933 361.006C211.275 360.418 210.813 359.643 210.609 358.785C210.405 357.926 210.47 357.026 210.795 356.206C210.942 356.206 210.795 357.364 211.128 358.679C211.462 359.995 212.051 360.907 211.933 361.006Z" fill="#FAFAFA"/>
<path d="M372.433 310.986C371.544 310.036 371.019 308.802 370.951 307.502C370.89 306.212 370.662 304.935 370.274 303.703C370.114 303.242 369.828 302.834 369.449 302.526C369.258 302.374 369.031 302.275 368.79 302.239C368.549 302.203 368.302 302.231 368.075 302.319C367.842 302.446 367.648 302.633 367.513 302.861C367.378 303.089 367.308 303.35 367.31 303.615C367.388 305.449 367.565 307.277 367.84 309.092L372.433 310.986Z" fill="#FFBE9D"/>
<path d="M372.433 310.987C372.433 310.987 372.051 310.849 371.246 310.574C370.441 310.299 369.214 309.877 367.761 309.298H367.653V309.21C367.467 308.213 367.333 307.207 367.251 306.197C367.251 305.657 367.163 305.107 367.113 304.538C367.098 304.24 367.098 303.942 367.113 303.645C367.12 303.298 367.218 302.959 367.398 302.663C367.52 302.46 367.69 302.291 367.894 302.171C368.098 302.05 368.329 301.984 368.566 301.976C369.01 301.974 369.44 302.135 369.773 302.428C370.305 302.966 370.667 303.648 370.814 304.391C371.138 305.755 371.108 306.992 371.275 307.993C371.397 309.069 371.818 310.09 372.492 310.938L372.286 310.82C372.114 310.671 371.959 310.503 371.825 310.319C371.357 309.629 371.046 308.845 370.912 308.022C370.696 306.992 370.686 305.755 370.353 304.479C370.224 303.826 369.907 303.225 369.44 302.752C369.34 302.63 369.212 302.534 369.068 302.472C368.923 302.41 368.766 302.384 368.609 302.396C368.452 302.407 368.301 302.456 368.167 302.539C368.033 302.621 367.921 302.734 367.84 302.869C367.605 303.351 367.54 303.897 367.653 304.42L367.781 306.069C367.879 307.119 367.948 308.17 368.095 309.014L367.977 308.886C369.292 309.446 370.353 309.976 371.157 310.358L372.433 310.987Z" fill="#EB996E"/>
<path d="M371.83 342.635C379.496 312.159 361.005 281.24 330.53 273.574C300.055 265.907 269.135 284.398 261.469 314.873C253.803 345.348 272.293 376.268 302.768 383.934C333.244 391.6 364.163 373.11 371.83 342.635Z" fill="#1DCEFD"/>
<g opacity="0.3">
<path opacity="0.3" d="M369.116 323.049C369.793 323.049 370.578 324.512 371.079 327.398C371.719 331.503 371.662 335.688 370.912 339.775C370.745 341.09 370.372 342.415 370.058 343.828C369.744 345.242 369.233 346.665 368.762 348.157C367.634 351.299 366.228 354.334 364.561 357.226C360.71 363.971 355.421 369.786 349.07 374.257C342.719 378.729 335.461 381.748 327.813 383.1C324.529 383.701 321.198 384.003 317.86 384.003C314.97 383.973 312.087 383.704 309.242 383.198C305.145 382.527 301.19 381.174 297.542 379.193C295 377.721 293.852 376.474 294.117 375.846C294.706 374.413 300.624 376.062 309.9 376.003C312.409 375.977 314.915 375.82 317.408 375.532C320.232 375.176 323.03 374.632 325.781 373.903C338.373 370.716 349.345 362.991 356.591 352.211C358.198 349.864 359.651 347.415 360.939 344.879C361.499 343.662 362.098 342.494 362.579 341.335C363.06 340.177 363.56 339.068 363.904 337.969C367.123 329.253 367.565 323.118 369.116 323.049Z" fill="#1E1E1E"/>
</g>
<g opacity="0.3">
<path opacity="0.3" d="M314.052 276.182C314.052 276.368 312.805 276.437 310.607 276.604C307.511 276.835 304.441 277.328 301.429 278.076C299.363 278.608 297.331 279.264 295.344 280.039C293.074 280.929 290.87 281.979 288.748 283.18C278.921 288.662 271.457 297.573 267.782 308.209C266.96 310.505 266.304 312.857 265.819 315.247C265.411 317.338 265.133 319.452 264.985 321.577C264.772 324.671 264.825 327.778 265.142 330.863C265.368 333.061 265.515 334.298 265.328 334.337C265.142 334.377 264.69 333.228 264.16 331.03C263.449 327.907 263.12 324.71 263.179 321.509C263.21 319.29 263.393 317.077 263.729 314.883C264.135 312.36 264.739 309.872 265.535 307.443C269.168 296.126 277.084 286.678 287.59 281.119C289.844 279.918 292.187 278.891 294.598 278.046C296.721 277.318 298.892 276.738 301.095 276.309C304.235 275.689 307.439 275.455 310.636 275.612C312.874 275.72 314.071 276.024 314.052 276.182Z" fill="white"/>
</g>
<g opacity="0.3">
<path opacity="0.3" d="M269.853 348.206C269.274 348.599 267.606 347.097 266.742 344.584C265.878 342.072 266.261 339.873 266.958 339.824C267.655 339.775 268.401 341.581 269.166 343.75C269.932 345.919 270.452 347.814 269.853 348.206Z" fill="white"/>
</g>
<path d="M333.702 321.685C333.544 322.228 333.288 322.737 332.946 323.187C332.117 324.484 331.128 325.671 330.002 326.721C326.295 330.276 321.43 332.375 316.299 332.631C311.169 332.887 306.119 331.283 302.077 328.114C300.865 327.177 299.77 326.096 298.818 324.895C298.435 324.48 298.132 323.997 297.925 323.472C298.072 323.344 299.437 325.337 302.509 327.535C304.304 328.792 306.271 329.784 308.349 330.48C313.467 332.27 319.082 331.989 323.995 329.695C325.995 328.787 327.854 327.594 329.511 326.151C332.387 323.697 333.535 321.577 333.702 321.685Z" fill="white"/>
<path d="M351.635 313.695C351.428 313.695 351.399 311.948 349.917 309.769C349.056 308.491 347.923 307.418 346.599 306.628C345.019 305.621 343.155 305.153 341.286 305.295C339.417 305.436 337.645 306.18 336.234 307.414C335.048 308.396 334.09 309.625 333.427 311.016C332.289 313.43 332.534 315.197 332.328 315.187C332.122 315.177 332.161 314.775 332.132 313.99C332.125 312.873 332.338 311.765 332.76 310.731C333.383 309.179 334.365 307.796 335.626 306.697C337.16 305.283 339.127 304.429 341.208 304.272C343.288 304.115 345.361 304.665 347.09 305.833C348.503 306.726 349.68 307.945 350.525 309.386C351.101 310.343 351.481 311.403 351.644 312.508C351.743 313.263 351.693 313.695 351.635 313.695Z" fill="white"/>
<path d="M297.169 315.541C296.973 315.541 296.944 313.803 295.462 311.614C294.596 310.339 293.46 309.27 292.134 308.483C290.558 307.469 288.694 306.997 286.825 307.139C284.956 307.28 283.184 308.028 281.779 309.269C280.586 310.247 279.624 311.477 278.962 312.871C277.833 315.285 278.069 317.042 277.872 317.033C277.676 317.023 277.696 316.62 277.676 315.835C277.669 314.721 277.883 313.617 278.304 312.586C278.919 311.029 279.903 309.645 281.17 308.552C282.706 307.14 284.671 306.286 286.751 306.127C288.831 305.969 290.903 306.515 292.635 307.679C294.047 308.572 295.225 309.79 296.07 311.232C296.648 312.191 297.028 313.255 297.189 314.363C297.287 315.109 297.238 315.541 297.169 315.541Z" fill="white"/>
<path d="M466.242 82.9421C473.908 52.4668 455.417 21.5471 424.942 13.8809C394.467 6.21471 363.547 24.7052 355.881 55.1804C348.215 85.6557 366.705 116.576 397.18 124.242C427.656 131.908 458.575 113.417 466.242 82.9421Z" fill="#1DCEFD"/>
<g opacity="0.3">
<path opacity="0.3" d="M463.528 63.3567C464.205 63.3567 464.99 64.8192 465.491 67.7049C466.131 71.8107 466.074 75.995 465.324 80.082C465.157 81.3973 464.784 82.7223 464.47 84.1358C464.156 85.5492 463.645 86.9724 463.174 88.4643C462.046 91.6061 460.64 94.6412 458.973 97.5337C455.122 104.279 449.833 110.093 443.482 114.565C437.131 119.036 429.873 122.055 422.225 123.407C418.941 124.008 415.61 124.31 412.272 124.31C409.382 124.281 406.5 124.011 403.654 123.505C399.557 122.835 395.603 121.481 391.954 119.5C389.412 118.028 388.264 116.782 388.529 116.153C389.118 114.72 395.036 116.369 404.312 116.31C406.821 116.284 409.328 116.127 411.821 115.839C414.645 115.484 417.442 114.939 420.193 114.21C432.785 111.024 443.758 103.299 451.003 92.518C452.611 90.1711 454.063 87.7219 455.352 85.186C455.911 83.9689 456.51 82.8009 456.991 81.6427C457.472 80.4845 457.972 79.3753 458.316 78.276C461.535 69.56 461.977 63.4254 463.528 63.3567Z" fill="#1E1E1E"/>
</g>
<g opacity="0.3">
<path opacity="0.3" d="M364.266 88.5137C363.686 88.9063 362.018 87.4045 361.154 84.8918C360.29 82.3791 360.673 80.1804 361.37 80.1313C362.067 80.0823 362.813 81.8883 363.578 84.0575C364.344 86.2267 364.864 88.121 364.266 88.5137Z" fill="white"/>
</g>
<path d="M428.114 61.9927C427.956 62.5352 427.7 63.0442 427.358 63.4945C426.529 64.7916 425.54 65.9788 424.414 67.028C420.707 70.5838 415.842 72.6826 410.712 72.9386C405.582 73.1947 400.531 71.5908 396.489 68.4218C395.277 67.4842 394.183 66.4032 393.23 65.2023C392.847 64.7872 392.544 64.3046 392.337 63.7791C392.484 63.6515 393.849 65.644 396.921 67.8427C398.716 69.0995 400.683 70.0912 402.761 70.7873C407.879 72.5777 413.494 72.2959 418.407 70.002C420.407 69.0945 422.266 67.9009 423.923 66.4587C426.799 64.0049 427.947 61.8848 428.114 61.9927Z" fill="white"/>
<path d="M446.047 54.0027C445.841 54.0027 445.811 52.2556 444.329 50.0766C443.468 48.7982 442.335 47.7257 441.012 46.9357C439.431 45.9283 437.567 45.4604 435.698 45.6019C433.83 45.7435 432.057 46.487 430.647 47.7209C429.461 48.7036 428.503 49.9328 427.839 51.3231C426.701 53.7377 426.946 55.5045 426.74 55.4946C426.534 55.4848 426.573 55.0824 426.544 54.2972C426.537 53.1802 426.75 52.0728 427.172 51.0385C427.795 49.4861 428.777 48.1036 430.038 47.0044C431.573 45.5906 433.539 44.7362 435.62 44.5794C437.701 44.4227 439.773 44.9727 441.502 46.1406C442.915 47.0337 444.093 48.252 444.938 49.6938C445.513 50.65 445.894 51.7109 446.057 52.815C446.155 53.5708 446.106 54.0027 446.047 54.0027Z" fill="white"/>
<path d="M391.582 55.8482C391.385 55.8482 391.356 54.1109 389.874 51.9221C389.008 50.6467 387.872 49.5776 386.546 48.791C384.97 47.7766 383.106 47.3045 381.237 47.4462C379.368 47.5879 377.596 48.3358 376.191 49.5762C374.998 50.5546 374.036 51.7847 373.374 53.1785C372.245 55.593 372.481 57.35 372.285 57.3401C372.088 57.3303 372.108 56.9279 372.088 56.1427C372.081 55.0289 372.295 53.9247 372.716 52.8938C373.331 51.3369 374.315 49.9525 375.583 48.8597C377.118 47.4476 379.083 46.5935 381.163 46.4351C383.243 46.2766 385.316 46.823 387.047 47.9861C388.459 48.8792 389.637 50.0976 390.482 51.5393C391.06 52.4981 391.44 53.5626 391.601 54.6704C391.699 55.4163 391.65 55.8482 391.582 55.8482Z" fill="white"/>
<path d="M373.729 306.893C371.766 309.112 369.724 311.193 367.967 313.568C367.526 314.167 367.064 314.952 367.418 315.609C367.557 315.83 367.757 316.005 367.994 316.114C368.231 316.222 368.495 316.258 368.753 316.218C369.267 316.127 369.75 315.908 370.156 315.58C372.325 314.039 373.758 311.654 375.142 309.406C375.384 309.114 375.554 308.769 375.639 308.399C375.724 308.029 375.722 307.645 375.633 307.276C375.547 307.111 375.425 306.967 375.276 306.855C375.128 306.743 374.955 306.666 374.773 306.629C374.59 306.592 374.402 306.597 374.221 306.643C374.04 306.688 373.872 306.774 373.729 306.893Z" fill="#FFBE9D"/>
<path d="M373.729 306.894C373.729 306.894 373.964 306.462 374.71 306.521C374.937 306.54 375.155 306.619 375.341 306.75C375.528 306.881 375.676 307.06 375.77 307.267C375.863 307.547 375.894 307.843 375.861 308.136C375.829 308.429 375.735 308.711 375.584 308.965C374.911 310.222 374.164 311.438 373.346 312.606C372.368 314.092 371.066 315.337 369.538 316.248C369.073 316.481 368.539 316.537 368.036 316.405C367.775 316.332 367.543 316.182 367.368 315.976C367.193 315.77 367.084 315.516 367.054 315.246C367.04 314.764 367.181 314.289 367.457 313.892C367.685 313.552 367.931 313.224 368.193 312.91C369.175 311.654 370.156 310.584 370.99 309.701L372.953 307.64C373.183 307.374 373.439 307.134 373.719 306.923C373.553 307.235 373.345 307.522 373.101 307.777C372.679 308.297 372.041 309.033 371.246 309.946C370.451 310.859 369.518 311.909 368.556 313.195C368.095 313.823 367.496 314.51 367.575 315.227C367.598 315.398 367.672 315.558 367.788 315.686C367.903 315.813 368.055 315.903 368.222 315.943C368.605 316.048 369.014 315.999 369.361 315.806C370.811 314.928 372.056 313.75 373.012 312.351C373.935 311.085 374.701 309.848 375.299 308.837C375.438 308.629 375.531 308.393 375.573 308.146C375.616 307.9 375.606 307.647 375.545 307.404C375.475 307.233 375.363 307.083 375.218 306.968C375.074 306.853 374.902 306.776 374.72 306.746C374.383 306.677 374.032 306.729 373.729 306.894Z" fill="#EB996E"/>
<path d="M375.084 310.29C373.297 312.635 371.364 314.844 369.774 317.317C369.361 317.946 368.959 318.76 369.352 319.398C369.506 319.608 369.718 319.769 369.962 319.861C370.206 319.953 370.471 319.973 370.726 319.918C371.23 319.79 371.694 319.541 372.08 319.192C374.151 317.504 375.427 315.07 376.654 312.704C376.878 312.397 377.027 312.042 377.088 311.667C377.15 311.292 377.122 310.907 377.008 310.545C376.912 310.379 376.779 310.238 376.62 310.131C376.46 310.025 376.279 309.957 376.089 309.933C375.899 309.908 375.706 309.927 375.525 309.989C375.344 310.051 375.179 310.154 375.044 310.29" fill="#FFBE9D"/>
<path d="M375.083 310.29C375.083 310.29 375.29 309.838 376.065 309.848C376.293 309.853 376.516 309.918 376.711 310.037C376.905 310.156 377.065 310.325 377.174 310.525C377.285 310.799 377.335 311.093 377.321 311.388C377.308 311.682 377.231 311.971 377.096 312.233C376.518 313.531 375.862 314.793 375.133 316.012C374.249 317.554 373.031 318.878 371.57 319.889C371.124 320.165 370.589 320.256 370.078 320.144C369.812 320.089 369.568 319.956 369.377 319.762C369.187 319.568 369.058 319.322 369.008 319.055C368.968 318.575 369.078 318.095 369.322 317.68C369.538 317.288 369.773 316.954 369.999 316.62C370.902 315.295 371.815 314.176 372.581 313.244C373.346 312.311 373.906 311.654 374.416 311.055C374.625 310.774 374.866 310.517 375.133 310.29C374.987 310.608 374.799 310.905 374.573 311.173C374.18 311.732 373.592 312.508 372.855 313.47C372.119 314.432 371.265 315.57 370.392 316.885C369.97 317.533 369.41 318.26 369.508 318.976C369.539 319.146 369.621 319.303 369.744 319.424C369.867 319.545 370.025 319.626 370.195 319.653C370.585 319.726 370.988 319.648 371.324 319.437C372.709 318.465 373.873 317.21 374.74 315.757C375.574 314.432 376.261 313.146 376.791 312.096C376.916 311.879 376.995 311.639 377.022 311.391C377.049 311.142 377.024 310.891 376.948 310.653C376.867 310.488 376.745 310.346 376.594 310.241C376.443 310.136 376.268 310.072 376.085 310.054C375.733 310.009 375.378 310.092 375.083 310.29Z" fill="#EB996E"/>
<path d="M376.271 314.844C374.897 316.64 373.415 318.328 372.198 320.232C371.884 320.713 371.579 321.332 371.874 321.823C371.993 321.981 372.156 322.103 372.342 322.172C372.528 322.242 372.73 322.257 372.924 322.215C373.312 322.122 373.669 321.933 373.965 321.665C375.456 320.26 376.648 318.567 377.469 316.689C377.639 316.454 377.752 316.183 377.798 315.896C377.844 315.61 377.822 315.316 377.734 315.04C377.656 314.924 377.555 314.825 377.437 314.751C377.318 314.677 377.185 314.629 377.047 314.611C376.908 314.592 376.768 314.603 376.634 314.644C376.5 314.684 376.376 314.752 376.271 314.844Z" fill="#FFBE9D"/>
<path d="M376.271 314.844C376.271 314.844 376.409 314.491 377.007 314.491C377.187 314.489 377.363 314.537 377.517 314.629C377.671 314.72 377.797 314.853 377.881 315.011C377.967 315.226 378.007 315.457 377.999 315.688C377.99 315.92 377.933 316.147 377.832 316.355C377.385 317.351 376.877 318.318 376.31 319.251C375.637 320.444 374.7 321.468 373.572 322.245C373.218 322.466 372.792 322.54 372.384 322.451C372.168 322.407 371.971 322.299 371.817 322.142C371.663 321.984 371.559 321.784 371.521 321.567C371.539 320.861 371.811 320.186 372.286 319.663C372.983 318.682 373.68 317.788 374.249 317.082C374.845 316.286 375.501 315.538 376.212 314.844C375.72 315.718 375.145 316.543 374.495 317.308C373.945 318.044 373.287 318.917 372.62 319.928C372.296 320.429 371.884 320.988 371.952 321.489C372.021 321.989 372.738 322.137 373.258 321.803C374.313 321.065 375.199 320.111 375.859 319.006C376.497 318.024 377.027 317.042 377.439 316.208C377.534 316.049 377.594 315.871 377.616 315.687C377.638 315.502 377.621 315.316 377.567 315.138C377.508 315.015 377.418 314.909 377.306 314.83C377.195 314.751 377.065 314.702 376.929 314.687C376.699 314.672 376.47 314.727 376.271 314.844Z" fill="#EB996E"/>
<path d="M71.9562 531.076C64.1039 533.834 53.7684 531.37 47.0154 526.433C40.2625 521.496 35.4039 514.439 31.095 507.273C29.2595 504.221 27.4633 501.031 26.8842 497.458C26.3051 493.885 27.159 489.979 29.8877 487.643C34.1279 484.07 40.6846 485.886 45.4548 488.624C52.9766 493.007 59.3195 499.153 63.9364 506.533C68.5534 513.914 71.3057 522.306 71.9562 530.987" fill="#1DCEFD"/>
<path d="M63.4857 549.97C58.7449 556.223 50.5982 559.01 42.7557 559.373C34.9133 559.737 27.169 557.567 19.8467 554.75C17.1868 553.769 14.2814 552.336 13.3686 549.637C13.0814 548.595 13.0575 547.497 13.2991 546.444C13.5407 545.39 14.0401 544.413 14.7526 543.6C16.2052 541.997 18.0187 540.762 20.043 539.998C27.2475 536.926 35.5218 536.808 43.1091 538.771C50.6963 540.734 57.3315 545.141 63.4857 549.99" fill="#1DCEFD"/>
<path d="M72.0741 497.262C65.5273 497.389 60.6196 491.657 57.675 485.837C53.5532 477.693 52.176 468.434 53.7489 459.443C54.3378 456.106 55.604 452.504 58.5976 450.894C61.5913 449.285 65.5763 450.335 68.1283 452.661C70.6803 454.987 72.0545 458.305 73.036 461.593C76.5401 472.949 75.7843 485.994 72.0545 497.262" fill="#1DCEFD"/>
<path d="M93.5403 533.402C82.3999 514.439 80.5448 491.196 87.121 470.25C88.1909 466.854 90.2031 462.957 93.766 462.732C97.6922 462.476 100.175 466.874 101.265 470.672C105.083 484.001 104.278 498.155 103.434 511.985C102.914 520.514 99.9791 527.797 93.5403 533.402Z" fill="#1DCEFD"/>
<path d="M105.122 541.195C107.198 534.699 110.705 528.752 115.385 523.791C120.065 518.831 125.799 514.984 132.164 512.535C135.108 511.416 138.877 510.778 141.086 513.045C143.294 515.312 142.587 518.934 141.194 521.751C138.956 526.227 135.304 529.829 131.683 533.274C128.385 536.415 124.959 539.576 120.778 541.402C116.596 543.227 108.94 543.689 105.122 541.195Z" fill="#1DCEFD"/>
<path d="M36.0815 492.482C36.0815 492.482 36.1404 492.55 36.2779 492.658L36.8766 493.12L39.2126 494.867L40.9009 496.123C41.5094 496.594 42.1474 497.105 42.8639 497.703C44.2479 498.852 45.8772 500.098 47.5164 501.63L50.1469 504.015C51.0499 504.849 51.9235 505.791 52.8756 506.724C54.8386 508.569 56.6447 510.719 58.647 512.937C62.8488 517.888 66.6868 523.136 70.1309 528.641C73.4892 534.182 76.4416 539.959 78.9647 545.926C80.0641 548.704 81.1536 551.325 81.9093 553.867C82.3216 555.133 82.7731 556.34 83.1166 557.518C83.4602 558.696 83.7644 559.854 84.0982 560.944C84.7558 563.103 85.1386 565.115 85.5508 566.833C85.7471 567.716 85.9533 568.521 86.1005 569.277C86.2477 570.033 86.3459 570.73 86.4637 571.358C86.6796 572.565 86.8563 573.527 86.9741 574.224L87.1213 574.97C87.1213 575.137 87.1802 575.225 87.19 575.215C87.2051 575.131 87.2051 575.044 87.19 574.96C87.19 574.764 87.1311 574.508 87.0918 574.204C86.9937 573.507 86.8465 572.545 86.6698 571.318C86.5716 570.69 86.4735 569.993 86.3557 569.238C86.2379 568.482 86.0318 567.657 85.8453 566.774C85.4625 565.017 85.1091 562.995 84.4613 560.816C84.1669 559.717 83.8528 558.568 83.4798 557.381C83.1068 556.193 82.7044 554.976 82.302 553.7C81.5265 551.148 80.4469 548.508 79.3574 545.71C76.8454 539.709 73.8927 533.902 70.5236 528.337C67.0615 522.822 63.1934 517.573 58.9513 512.633C56.9882 510.414 55.0251 508.265 53.121 506.429C52.1394 505.497 51.2757 504.555 50.3629 503.73L47.7029 501.355C46.0441 499.814 44.3951 498.587 42.9915 497.429C42.2848 496.879 41.637 496.339 41.0285 495.878L39.301 494.671L36.906 493.002L36.2779 492.639L36.0815 492.482Z" fill="#263238"/>
<path d="M21.2996 545.043C21.5587 545.029 21.8155 544.986 22.0652 544.915C22.5657 544.827 23.2823 544.64 24.2343 544.483C26.899 543.978 29.5944 543.65 32.3026 543.502C41.2554 542.959 50.2139 544.469 58.4946 547.915C66.7753 551.361 74.1594 556.653 80.0836 563.388C81.8907 565.411 83.5567 567.556 85.0698 569.807C85.6293 570.592 86.0513 571.24 86.2869 571.652C86.4194 571.877 86.5705 572.09 86.7384 572.29C86.6435 572.05 86.5251 571.82 86.385 571.603C86.12 571.162 85.7765 570.494 85.2465 569.699C83.7762 567.394 82.1358 565.203 80.3388 563.142C74.4399 556.285 67.0178 550.903 58.6664 547.428C50.3149 543.953 41.266 542.48 32.2437 543.129C29.5259 543.314 26.8258 543.701 24.1656 544.287C23.1841 544.483 22.497 544.699 22.0063 544.827C21.7665 544.884 21.5304 544.956 21.2996 545.043Z" fill="#263238"/>
<path d="M62.4454 458.462C62.4297 458.559 62.4297 458.659 62.4454 458.756L62.6221 459.61L63.3582 462.879C63.9962 465.706 64.9778 469.799 66.2047 474.844C68.6585 484.934 72.2313 498.832 75.9415 514.242C77.7868 521.948 79.4652 529.309 80.9081 536.023C82.3509 542.736 83.5189 548.783 84.422 553.916C84.9029 556.468 85.2661 558.824 85.6096 560.787C85.9531 562.75 86.228 564.576 86.4341 566.009C86.6402 567.442 86.8267 568.521 86.9445 569.316C87.0165 569.67 87.0656 569.954 87.0917 570.17C87.1043 570.271 87.1273 570.369 87.1604 570.465C87.1752 570.367 87.1752 570.268 87.1604 570.17C87.1604 569.945 87.1015 569.66 87.0623 569.307C86.9641 568.511 86.8267 567.393 86.65 565.979C86.4734 564.566 86.228 562.779 85.9041 560.738C85.5802 558.696 85.2563 556.38 84.7949 553.818C83.941 548.694 82.773 542.619 81.389 535.885C80.0051 529.152 78.3168 521.8 76.4813 514.085C72.7712 498.675 69.1395 484.796 66.5973 474.726C65.3311 469.72 64.3103 465.657 63.584 462.8L62.7595 459.561C62.6614 459.208 62.5926 458.933 62.5338 458.717C62.5115 458.63 62.4819 458.544 62.4454 458.462Z" fill="#263238"/>
<path d="M88.0241 568.973C88.0622 568.899 88.0856 568.819 88.0928 568.737C88.1418 568.551 88.1909 568.325 88.2498 568.06C88.3872 567.412 88.5737 566.529 88.7995 565.42C89.2706 563.123 89.8988 559.795 90.6153 555.663C92.0385 547.418 93.7366 535.964 94.777 523.273C95.2776 516.893 95.5622 510.807 95.6898 505.271C95.8174 499.735 95.6898 494.739 95.5524 490.548C95.5524 488.458 95.3659 486.563 95.2776 484.904C95.1893 483.246 95.0715 481.813 94.9635 480.654C94.8555 479.496 94.777 478.623 94.7181 477.965C94.7181 477.68 94.6592 477.455 94.6396 477.268C94.6499 477.19 94.6499 477.111 94.6396 477.032C94.6396 477.032 94.6396 477.111 94.6396 477.268C94.6396 477.425 94.6396 477.69 94.6396 477.975C94.6396 478.632 94.7279 479.535 94.7966 480.664C94.8654 481.793 94.9537 483.255 95.0126 484.924C95.0715 486.593 95.1893 488.467 95.2187 490.558C95.3365 494.739 95.3463 499.726 95.2187 505.281C95.0911 510.836 94.777 516.883 94.2372 523.243C93.1967 536.003 91.5576 547.418 90.2227 555.634C89.5651 559.766 88.9958 563.103 88.5835 565.449C88.3872 566.568 88.24 567.412 88.132 568.099C88.132 568.384 88.0535 568.61 88.0241 568.796C88.0183 568.855 88.0183 568.914 88.0241 568.973Z" fill="#263238"/>
<path d="M87.1997 571.378C87.3172 571.168 87.4158 570.947 87.4942 570.72L88.2303 568.816L88.7505 567.432L89.467 565.832C89.7222 565.253 89.9971 564.644 90.2817 563.987C90.5664 563.329 90.9393 562.681 91.2633 561.974L92.4018 559.766L93.7564 557.43C94.6495 555.801 95.8078 554.171 96.9267 552.405C99.5279 548.684 102.34 545.115 105.348 541.716C108.391 538.34 111.605 535.123 114.977 532.077C116.577 530.732 118.049 529.378 119.531 528.249L121.632 526.561L123.595 525.088C124.861 524.107 126.049 523.331 127.099 522.625C128.149 521.918 129.062 521.31 129.798 520.858L131.526 519.759C131.736 519.642 131.933 519.504 132.115 519.346C131.893 519.436 131.679 519.544 131.477 519.67L129.69 520.652C128.915 521.084 127.992 521.633 126.932 522.35C125.872 523.066 124.665 523.812 123.379 524.755L121.357 526.207L119.217 527.876C117.716 528.995 116.273 530.34 114.614 531.684C111.209 534.726 107.972 537.95 104.916 541.343C101.902 544.77 99.096 548.375 96.5145 552.139C95.4053 553.926 94.2569 555.565 93.3736 557.224L92.0387 559.58L90.9295 561.817C90.586 562.534 90.2228 563.201 89.948 563.859L89.1628 565.724C88.9272 566.313 88.7015 566.853 88.4855 567.353L88.0046 568.757C87.7396 569.562 87.5236 570.2 87.3666 570.72C87.2927 570.934 87.2369 571.154 87.1997 571.378Z" fill="#263238"/>
<path d="M40.1843 514.478C40.1843 514.556 41.5388 514.566 43.6982 514.684C49.3543 514.978 54.9445 516.038 60.3156 517.835C61.4114 518.259 62.5286 518.626 63.6626 518.934C63.4038 518.75 63.1236 518.599 62.8283 518.482C62.2688 518.217 61.4542 517.874 60.4334 517.501C55.0931 515.498 49.4499 514.423 43.7473 514.321C42.648 514.321 41.7842 514.321 41.156 514.37C40.8285 514.354 40.5005 514.391 40.1843 514.478Z" fill="#263238"/>
<path d="M31.7822 555.526C33.0054 553.046 34.5463 550.736 36.366 548.655C38.3237 546.662 40.5386 544.939 42.9521 543.531C42.1484 543.734 41.3827 544.066 40.6847 544.513C37.1911 546.526 34.3861 549.547 32.6362 553.18C32.2249 553.91 31.9364 554.702 31.7822 555.526Z" fill="#263238"/>
<path d="M60.4433 473.862C60.3353 473.97 62.4063 476.002 64.6246 478.769C66.8429 481.537 68.4526 483.932 68.5507 483.854C67.6306 481.888 66.4341 480.063 64.9976 478.436C63.7064 476.701 62.1726 475.16 60.4433 473.862Z" fill="#263238"/>
<path d="M67.1665 462.211C66.6784 463.637 66.3492 465.111 66.185 466.609C65.8475 468.08 65.6796 469.585 65.6844 471.094C66.5297 468.203 67.0272 465.221 67.1665 462.211Z" fill="#263238"/>
<path d="M88.0142 498.715C88.9378 501.078 90.0268 503.374 91.2729 505.585C92.3678 507.874 93.6138 510.087 95.0027 512.211C94.0727 509.85 92.984 507.554 91.744 505.34C90.6536 503.049 89.4074 500.835 88.0142 498.715Z" fill="#263238"/>
<path d="M100.421 486.328C99.3439 487.893 98.4171 489.555 97.653 491.294C96.7317 492.955 95.9629 494.697 95.3562 496.497C96.4332 494.932 97.36 493.269 98.1241 491.53C99.0454 489.869 99.8142 488.128 100.421 486.328Z" fill="#263238"/>
<path d="M118.648 528.681C118.648 528.838 120.896 528.406 123.654 528.22C126.412 528.033 128.66 528.131 128.679 527.974C127.021 527.579 125.306 527.483 123.615 527.69C121.914 527.728 120.233 528.063 118.648 528.681Z" fill="#263238"/>
<path d="M106.202 566.126L99.9987 598.752C99.7978 599.797 99.2391 600.739 98.4186 601.416C97.5981 602.094 96.5672 602.463 95.5033 602.463H77.1781C76.096 602.465 75.0483 602.082 74.2227 601.383C73.3972 600.683 72.8478 599.712 72.6728 598.644L67.2744 566.126H106.202Z" fill="#263238"/>
<path d="M104.18 576.727H69.1393L67.2744 566.126H106.202L104.18 576.727Z" fill="#455A64"/>
<path d="M104.18 576.727L103.444 580.594H69.6793L69.1394 576.727H104.18Z" fill="#FAFAFA"/>
<path d="M156.692 249.66C178.414 249.66 196.022 232.051 196.022 210.33C196.022 188.609 178.414 171 156.692 171C134.971 171 117.362 188.609 117.362 210.33C117.362 232.051 134.971 249.66 156.692 249.66Z" fill="#1DCEFD"/>
<g opacity="0.3">
<path opacity="0.3" d="M192.969 206.394C193.303 206.394 193.715 207.376 193.951 209.388C194.24 212.19 194.101 215.02 193.539 217.78C193.17 219.703 192.649 221.594 191.978 223.433C191.173 225.549 190.188 227.592 189.033 229.539C186.394 234.067 182.809 237.973 178.524 240.991C174.239 244.01 169.353 246.069 164.201 247.03C161.98 247.45 159.727 247.68 157.467 247.717C155.496 247.73 153.527 247.585 151.578 247.285C148.79 246.881 146.08 246.057 143.539 244.841C141.773 243.938 140.928 243.202 141.056 242.878C141.35 242.132 145.375 243.516 151.912 243.673C153.678 243.707 155.444 243.638 157.202 243.467C159.187 243.253 161.155 242.902 163.091 242.416C172.074 240.256 179.893 234.748 184.95 227.016C186.073 225.345 187.076 223.596 187.954 221.784C188.695 220.185 189.35 218.547 189.917 216.877C192.145 210.674 192.145 206.414 192.969 206.394Z" fill="#1E1E1E"/>
</g>
<g opacity="0.3">
<path opacity="0.3" d="M154.906 173.994C154.906 174.426 151.451 174.219 146.239 175.574C143.21 176.366 140.302 177.561 137.591 179.127C130.903 182.9 125.81 188.972 123.261 196.216C122.205 199.161 121.545 202.234 121.298 205.354C120.876 210.713 121.681 214.07 121.298 214.188C121.141 214.188 120.758 213.442 120.316 211.92C119.766 209.759 119.495 207.535 119.511 205.305C119.517 201.971 120.043 198.66 121.072 195.489C123.579 187.561 129.123 180.948 136.492 177.095C139.436 175.523 142.609 174.423 145.895 173.837C148.089 173.431 150.325 173.309 152.55 173.473C154.081 173.64 154.925 173.827 154.906 173.994Z" fill="white"/>
</g>
<g opacity="0.3">
<path opacity="0.3" d="M124.35 223.777C123.771 224.17 122.446 223.198 121.838 221.411C121.229 219.625 121.661 218.035 122.348 217.986C123.035 217.937 123.742 219.124 124.252 220.577C124.763 222.03 124.949 223.394 124.35 223.777Z" fill="white"/>
</g>
<path d="M168.49 205.452C168.578 205.452 167.97 207.101 166.026 209.015C163.473 211.541 160.079 213.037 156.492 213.218C152.905 213.399 149.377 212.252 146.582 209.996C144.472 208.289 143.696 206.748 143.785 206.708C143.873 206.669 144.894 207.945 147.014 209.417C149.749 211.39 153.074 212.374 156.442 212.206C159.81 212.039 163.02 210.73 165.545 208.495C167.508 206.797 168.343 205.354 168.49 205.452Z" fill="white"/>
<path d="M140.615 197.492C140.281 196.852 139.76 196.329 139.122 195.992C138.484 195.656 137.758 195.521 137.042 195.607C136.606 195.629 136.184 195.771 135.825 196.019C135.272 196.446 134.847 197.015 134.594 197.665C134.341 198.316 134.272 199.023 134.392 199.71C134.502 200.169 134.705 200.6 134.989 200.977C135.273 201.354 135.631 201.669 136.042 201.902C136.452 202.134 136.906 202.281 137.375 202.331C137.844 202.381 138.319 202.334 138.769 202.193C139.202 202.009 139.593 201.74 139.92 201.403C140.248 201.066 140.505 200.667 140.677 200.229C140.848 199.791 140.931 199.324 140.921 198.854C140.91 198.384 140.806 197.921 140.615 197.492Z" fill="white"/>
<path d="M178.04 197.609C177.706 196.973 177.186 196.453 176.55 196.119C175.914 195.784 175.191 195.65 174.478 195.735C174.041 195.755 173.619 195.897 173.26 196.147C172.709 196.575 172.284 197.144 172.03 197.793C171.776 198.443 171.703 199.149 171.818 199.837C171.928 200.297 172.131 200.73 172.416 201.108C172.7 201.485 173.059 201.801 173.471 202.034C173.883 202.267 174.338 202.412 174.808 202.462C175.279 202.511 175.754 202.463 176.205 202.321C176.638 202.135 177.029 201.866 177.356 201.527C177.684 201.189 177.94 200.789 178.111 200.35C178.282 199.911 178.364 199.443 178.352 198.973C178.339 198.502 178.234 198.039 178.04 197.609Z" fill="white"/>
<path d="M155.801 396.816C160.074 378.425 148.629 360.052 130.238 355.78C111.847 351.507 93.4747 362.951 89.2017 381.342C84.9288 399.733 96.3737 418.106 114.765 422.379C133.156 426.652 151.528 415.207 155.801 396.816Z" fill="#1DCEFD"/>
<g opacity="0.3">
<path opacity="0.3" d="M154.032 385.652C154.543 385.652 155.122 386.525 155.534 388.282C156.025 390.774 156.065 393.334 155.652 395.84C155.084 399.622 153.813 403.265 151.902 406.578C149.57 410.734 146.337 414.315 142.441 417.06C138.545 419.804 134.085 421.643 129.386 422.44C125.628 423.12 121.776 423.09 118.03 422.351C115.531 421.896 113.134 420.995 110.953 419.691C109.441 418.71 108.784 417.866 108.99 417.395C109.422 416.344 113.034 417.139 118.52 416.953C121.681 416.859 124.818 416.384 127.865 415.54C135.217 413.584 141.625 409.056 145.925 402.78C147.744 400.199 149.243 397.407 150.391 394.466C152.423 389.401 152.884 385.73 154.032 385.652Z" fill="#1E1E1E"/>
</g>
<g opacity="0.3">
<path opacity="0.3" d="M120.955 357.521C120.955 357.933 117.951 357.806 113.446 359.013C110.833 359.713 108.325 360.756 105.986 362.115C100.231 365.385 95.8362 370.608 93.5992 376.838C92.6768 379.368 92.0894 382.008 91.8521 384.69C91.4496 389.333 92.1073 392.258 91.695 392.346C91.43 392.444 90.1049 389.598 90.046 384.621C90.0305 381.71 90.4778 378.814 91.3711 376.043C92.4476 372.607 94.1923 369.418 96.505 366.659C98.8177 363.9 101.653 361.625 104.848 359.965C107.421 358.601 110.193 357.654 113.063 357.158C117.971 356.432 121.004 357.246 120.955 357.521Z" fill="white"/>
</g>
<g opacity="0.3">
<path opacity="0.3" d="M94.4039 400.787C93.8248 401.18 92.5979 400.355 92.0581 398.824C91.5182 397.293 91.9697 395.879 92.6666 395.791C93.3635 395.703 94.0408 396.773 94.4726 397.99C94.9045 399.207 94.9732 400.375 94.4039 400.787Z" fill="white"/>
</g>
<path d="M132.763 384.857C132.861 384.857 132.34 386.309 130.652 387.988C128.432 390.2 125.47 391.511 122.339 391.667C119.208 391.823 116.131 390.813 113.701 388.832C111.856 387.33 111.198 385.975 111.287 385.887C111.375 385.799 112.268 386.947 114.133 388.213C116.507 389.902 119.38 390.742 122.29 390.597C125.2 390.453 127.976 389.333 130.171 387.418C131.879 386.005 132.615 384.758 132.763 384.857Z" fill="white"/>
<path d="M108.538 377.937C108.247 377.381 107.793 376.927 107.237 376.636C106.681 376.344 106.05 376.23 105.427 376.308C105.05 376.322 104.685 376.445 104.377 376.661C103.897 377.032 103.527 377.527 103.307 378.093C103.088 378.658 103.026 379.273 103.13 379.871C103.219 380.274 103.392 380.654 103.637 380.986C103.882 381.318 104.194 381.595 104.553 381.798C104.912 382.002 105.31 382.128 105.721 382.168C106.132 382.208 106.547 382.161 106.938 382.03C107.314 381.869 107.655 381.635 107.939 381.341C108.224 381.047 108.447 380.7 108.596 380.319C108.745 379.938 108.817 379.531 108.807 379.122C108.797 378.713 108.705 378.31 108.538 377.937Z" fill="white"/>
<path d="M144.403 381.235C144.282 380.353 144.088 379.483 143.824 378.634C143.473 377.777 142.904 377.026 142.175 376.455C141.275 375.792 140.182 375.443 139.065 375.463C137.948 375.482 136.868 375.869 135.991 376.563C135.282 377.157 134.738 377.925 134.411 378.791C134.176 379.649 134.011 380.526 133.92 381.411C133.822 381.47 133.273 380.381 133.714 378.575C133.994 377.525 134.57 376.578 135.373 375.846C136.395 374.963 137.695 374.467 139.045 374.444C140.396 374.42 141.712 374.872 142.764 375.718C143.59 376.423 144.196 377.35 144.511 378.388C145.031 380.175 144.501 381.284 144.403 381.235Z" fill="white"/>
<path d="M345.333 471.506C363.477 471.506 378.185 456.798 378.185 438.654C378.185 420.511 363.477 405.802 345.333 405.802C327.189 405.802 312.481 420.511 312.481 438.654C312.481 456.798 327.189 471.506 345.333 471.506Z" fill="#1DCEFD"/>
<g opacity="0.3">
<path opacity="0.3" d="M375.633 435.366C376.143 435.366 376.712 436.201 377.134 437.889C377.627 440.287 377.681 442.755 377.292 445.172C376.768 448.817 375.559 452.331 373.729 455.527C371.489 459.544 368.373 463.006 364.613 465.655C360.852 468.304 356.544 470.072 352.007 470.829C348.381 471.477 344.665 471.437 341.053 470.711C338.642 470.27 336.333 469.388 334.241 468.11C332.789 467.129 332.17 466.324 332.367 465.853C332.808 464.802 336.293 465.519 341.544 465.313C344.566 465.21 347.565 464.746 350.476 463.929C357.494 462.05 363.616 457.74 367.751 451.768C369.501 449.3 370.948 446.631 372.06 443.817C374.013 438.939 374.504 435.425 375.633 435.366Z" fill="#1E1E1E"/>
</g>
<g opacity="0.3">
<path opacity="0.3" d="M343.841 408.296C343.841 408.718 340.955 408.6 336.637 409.768C334.128 410.448 331.719 411.454 329.472 412.762C323.946 415.914 319.732 420.943 317.595 426.935C316.7 429.372 316.133 431.917 315.907 434.503C315.514 438.959 316.132 441.766 315.72 441.864C315.455 441.952 314.169 439.224 314.101 434.434C314.078 431.629 314.505 428.839 315.367 426.169C316.401 422.863 318.079 419.794 320.304 417.139C322.529 414.484 325.258 412.296 328.333 410.7C330.812 409.382 333.486 408.471 336.254 408.001C340.975 407.245 343.89 408.021 343.841 408.296Z" fill="white"/>
</g>
<g opacity="0.3">
<path opacity="0.3" d="M318.321 449.893C317.742 450.276 316.545 449.491 316.025 447.979C315.504 446.467 315.956 445.103 316.653 445.034C317.35 444.966 318.017 445.947 318.439 447.135C318.861 448.323 318.92 449.5 318.321 449.893Z" fill="white"/>
</g>
<path d="M346.835 446.615C350.247 446.411 353.468 444.97 355.894 442.561C357.209 441.128 358.417 438.949 358.27 437.015C358.216 436.041 357.836 435.112 357.192 434.379C356.548 433.646 355.676 433.15 354.716 432.971C353.323 432.948 351.963 433.39 350.849 434.228C349.752 435.069 348.516 435.714 347.198 436.132C345.235 436.564 343.272 435.798 341.475 435.033C339.679 434.267 337.706 433.462 335.763 433.806C335.098 433.853 334.458 434.076 333.908 434.452C333.358 434.828 332.917 435.343 332.632 435.945C332.632 435.945 331.65 438.085 333.613 440.951C335.144 442.953 337.165 444.526 339.481 445.518C341.797 446.51 344.33 446.888 346.835 446.615Z" fill="white"/>
<path d="M331.906 427.926C331.631 427.397 331.203 426.964 330.677 426.684C330.151 426.403 329.553 426.289 328.961 426.356C328.609 426.38 328.27 426.499 327.979 426.699C327.518 427.058 327.162 427.535 326.95 428.079C326.737 428.623 326.676 429.215 326.772 429.791C326.873 430.17 327.048 430.524 327.288 430.834C327.528 431.144 327.827 431.403 328.168 431.596C328.509 431.789 328.885 431.912 329.274 431.957C329.663 432.003 330.057 431.971 330.433 431.862C330.791 431.703 331.113 431.475 331.381 431.19C331.649 430.905 331.858 430.57 331.995 430.203C332.132 429.837 332.195 429.447 332.18 429.056C332.164 428.665 332.071 428.281 331.906 427.926Z" fill="white"/>
<path d="M363.167 428.025C362.892 427.498 362.463 427.066 361.937 426.788C361.412 426.509 360.814 426.396 360.223 426.464C359.872 426.485 359.533 426.601 359.241 426.798C358.78 427.154 358.424 427.629 358.211 428.172C357.999 428.714 357.937 429.305 358.034 429.88C358.126 430.263 358.296 430.624 358.534 430.939C358.771 431.254 359.071 431.517 359.414 431.711C359.758 431.905 360.137 432.027 360.53 432.068C360.922 432.109 361.319 432.069 361.695 431.951C362.051 431.792 362.373 431.564 362.64 431.279C362.907 430.995 363.115 430.661 363.252 430.296C363.389 429.93 363.452 429.541 363.438 429.152C363.423 428.762 363.331 428.379 363.167 428.025Z" fill="white"/>
</svg>
