<svg width="77" height="72" viewBox="0 0 77 72" fill="none" xmlns="http://www.w3.org/2000/svg">
<path d="M54.2164 0H8.79126V35.8098H54.2164C62.5435 35.8098 69.2934 27.7939 69.2934 17.9043C69.2934 8.01596 62.5435 0 54.2164 0Z" fill="#1DCEFD"/>
<path d="M60.004 35.8098H8.79126V71.6156H60.004C69.3904 71.6156 77.0002 63.5997 77.0002 53.7114C77.0008 43.8238 69.3911 35.8098 60.004 35.8098Z" fill="#2F455C"/>
<path d="M26.2769 23.2884L2.02368 22.5071L0.99991 54.2853L25.2531 55.0667L26.2769 23.2884Z" fill="white"/>
<path fill-rule="evenodd" clip-rule="evenodd" d="M1.54004 21.9915L26.7928 22.805L25.7368 55.5828L0.484067 54.7692L1.54004 21.9915ZM2.50734 23.0232L1.51577 53.8019L24.7695 54.5511L25.7611 23.7723L2.50734 23.0232Z" fill="url(#paint0_linear_3323_18041)"/>
<path d="M3.06543 52.7651L4.08992 20.9863C6.87433 21.3744 26.1724 23.2708 26.1724 23.2708L25.1807 55.0383C25.1807 55.0376 5.2864 52.8186 3.06543 52.7651Z" fill="white"/>
<path fill-rule="evenodd" clip-rule="evenodd" d="M3.60797 20.4146L4.15882 20.4913C5.5389 20.6837 11.046 21.2536 16.2255 21.7769C18.8114 22.0381 21.3103 22.2873 23.1629 22.4711C24.0891 22.563 24.8537 22.6386 25.3868 22.6912L26.2203 22.7734C26.2205 22.7734 26.2212 22.7735 26.1723 23.2711L26.2203 22.7734L26.6867 22.8192L25.6804 55.0541L24.6806 55.0385C24.8052 55.3687 25.1188 55.5346 25.1208 55.5349L24.2663 55.4398C23.7181 55.3789 22.9325 55.292 21.9828 55.1875C20.0833 54.9786 17.5276 54.6996 14.9027 54.4189C9.63402 53.8555 4.13675 53.2913 3.05325 53.2652L2.54932 53.253L3.60797 20.4146ZM25.658 23.7228L25.2886 23.6864C24.7554 23.6338 23.9906 23.5582 23.0641 23.4662C21.2112 23.2824 18.7116 23.0332 16.1249 22.7718C11.484 22.3029 6.54555 21.7933 4.5718 21.5526L3.58083 52.2918C5.38691 52.4137 10.3285 52.9241 15.009 53.4245C17.6352 53.7054 20.192 53.9845 22.0921 54.1935C23.0422 54.298 23.8281 54.385 24.3766 54.4459L24.6978 54.4816L25.658 23.7228Z" fill="url(#paint1_linear_3323_18041)"/>
<path d="M5.13452 51.2476L6.15701 19.4702C11.7318 20.2491 26.0721 23.2524 26.0721 23.2524L25.1092 55.0117C25.1092 55.0117 9.57512 51.3574 5.13452 51.2476Z" fill="white"/>
<path fill-rule="evenodd" clip-rule="evenodd" d="M5.67523 18.8979L6.22627 18.9749C9.03019 19.3667 14.0231 20.3152 18.3023 21.1628C20.4447 21.5872 22.4126 21.9872 23.8449 22.281C24.5611 22.428 25.1434 22.5484 25.5467 22.6321L26.174 22.7627C26.1741 22.7628 26.1747 22.7629 26.0722 23.2523L26.174 22.7627L26.5846 22.8487L25.5943 55.5116H25.1092V55.0116C24.9948 55.4983 24.9947 55.4983 24.9946 55.4983L24.992 55.4977L24.8201 55.4575C24.7056 55.4308 24.5369 55.3915 24.3205 55.3416C23.8878 55.2416 23.2645 55.0986 22.5026 54.9267C20.9786 54.5827 18.9008 54.1231 16.6849 53.6602C12.2289 52.7292 7.28665 51.8009 5.12224 51.7474L4.61865 51.735L5.67523 18.8979ZM24.628 54.3863L25.5597 23.6562L25.3435 23.6113C24.9408 23.5277 24.3592 23.4074 23.6439 23.2606C22.2132 22.9671 20.2476 22.5676 18.108 22.1438C14.0942 21.3487 9.48364 20.4712 6.63884 20.0452L5.65017 50.7714C8.10833 50.9339 12.7697 51.8206 16.8894 52.6813C19.1121 53.1457 21.1953 53.6065 22.7227 53.9512C23.4865 54.1236 24.1115 54.2669 24.5456 54.3672C24.5739 54.3737 24.6014 54.3801 24.628 54.3863Z" fill="url(#paint2_linear_3323_18041)"/>
<path d="M7.2019 49.7298L8.22439 17.9524C16.5863 19.1194 25.9714 23.2388 25.9714 23.2388L25.0406 54.9848C25.0406 54.9855 13.8628 49.8951 7.2019 49.7298Z" fill="white"/>
<path fill-rule="evenodd" clip-rule="evenodd" d="M7.74237 17.3804L8.29333 17.4573C12.5212 18.0473 16.9931 19.3808 20.3972 20.5609C22.1017 21.1518 23.5436 21.7061 24.5599 22.1128C25.0682 22.3162 25.4702 22.4828 25.7456 22.5988C25.8834 22.6568 25.9895 22.7021 26.0614 22.7331L26.1434 22.7685L26.1645 22.7777L26.1715 22.7808C26.1717 22.7808 26.1722 22.7811 25.9712 23.2389L26.1715 22.7808L26.4809 22.9166L25.5402 54.9995L25.5325 54.9993C25.3053 55.4028 24.8419 55.4438 24.8389 55.4425L24.8357 55.4411L24.8329 55.4398L24.8028 55.4262L24.7094 55.3843C24.6269 55.3475 24.5047 55.2933 24.3466 55.2241C24.0304 55.0857 23.5705 54.8875 22.9976 54.6489C21.8514 54.1716 20.2543 53.5335 18.451 52.8906C14.8257 51.598 10.4324 50.3102 7.18933 50.2297L6.68579 50.2173L7.74237 17.3804ZM25.4615 23.5643C25.4292 23.5507 25.3946 23.536 25.3576 23.5204C25.0871 23.4066 24.6906 23.2422 24.1883 23.0412C23.1836 22.6391 21.7567 22.0906 20.0697 21.5057C16.8404 20.3863 12.6771 19.1404 8.70594 18.5286L7.7174 49.251C11.0675 49.4443 15.3335 50.7174 18.7868 51.9487C20.6105 52.5989 22.2242 53.2436 23.382 53.7257C23.8579 53.9239 24.257 54.0947 24.5624 54.2273L25.4615 23.5643Z" fill="url(#paint3_linear_3323_18041)"/>
<path d="M9.26904 48.2143C18.1502 48.4297 24.9724 54.9595 24.9724 54.9595L25.8744 23.2248C25.8744 23.2248 21.4425 17.9906 10.2922 16.4375L9.26904 48.2143Z" fill="white"/>
<path fill-rule="evenodd" clip-rule="evenodd" d="M9.8102 15.8655L10.361 15.9422C16.0053 16.7284 19.9647 18.4489 22.522 19.9849C23.7999 20.7525 24.7261 21.4731 25.3365 22.006C25.6416 22.2725 25.8678 22.4921 26.0195 22.6472C26.0954 22.7248 26.1526 22.7862 26.1918 22.8293C26.2114 22.8509 26.2265 22.8679 26.2372 22.8801L26.2498 22.8946L26.2537 22.8991L26.255 22.9006C26.2552 22.9009 26.2559 22.9017 25.8743 23.2248L26.2559 22.9017L26.3795 23.0477L25.4401 56.0993L24.6267 55.3207L24.6234 55.3176L24.6103 55.3053C24.5984 55.2941 24.58 55.277 24.5553 55.2543C24.5058 55.2088 24.4309 55.1411 24.3319 55.0542C24.1339 54.8803 23.8393 54.6299 23.4574 54.3279C22.6932 53.7237 21.5818 52.9143 20.1972 52.0983C17.4227 50.4633 13.5814 48.819 9.25676 48.714L8.75293 48.7018L9.8102 15.8655ZM24.5025 53.8868L25.3687 23.4128C25.3496 23.3928 25.3283 23.3706 25.3046 23.3465C25.1704 23.2093 24.9633 23.0078 24.6787 22.7593C24.1096 22.2623 23.2309 21.5772 22.0071 20.8421C19.6432 19.4223 15.9857 17.8121 10.7738 17.0132L9.78464 47.7332C14.1329 47.9527 17.9537 49.6155 20.7049 51.2368C22.136 52.0802 23.2851 52.9168 24.0777 53.5436C24.2331 53.6665 24.3749 53.7814 24.5025 53.8868Z" fill="url(#paint4_linear_3323_18041)"/>
<path d="M23.5944 55.1007L47.8477 55.8821L48.8714 24.1038L24.6182 23.3225L23.5944 55.1007Z" fill="white"/>
<path fill-rule="evenodd" clip-rule="evenodd" d="M48.3313 56.3979L23.0786 55.5844L24.1346 22.8066L49.3873 23.6202L48.3313 56.3979ZM47.364 55.3662L48.3556 24.5875L25.1019 23.8383L24.1103 54.6171L47.364 55.3662Z" fill="url(#paint5_linear_3323_18041)"/>
<path d="M45.8736 54.2468L46.8995 22.4653C44.0916 22.6768 24.7126 23.3199 24.7126 23.3199L23.6553 55.0872C23.6553 55.0872 43.6513 54.1571 45.8736 54.2468Z" fill="white"/>
<path fill-rule="evenodd" clip-rule="evenodd" d="M47.4172 21.9248L46.3571 54.7666L45.8535 54.7462C44.7692 54.7025 39.2463 54.9108 33.952 55.1328C31.3143 55.2435 28.7459 55.3569 26.8368 55.4427C25.8823 55.4856 25.0927 55.5216 24.5417 55.5468C24.3789 55.5543 24.2346 55.5609 24.1122 55.5666C24.0577 55.5691 24.0076 55.5714 23.962 55.5735L23.0842 57.2132L24.2284 22.8355L24.696 22.82L24.7126 23.3197C24.696 22.82 24.6958 22.82 24.696 22.82L25.5339 22.792C26.0692 22.774 26.8371 22.748 27.7673 22.7162C29.6278 22.6527 32.1376 22.5657 34.7351 22.4721C39.938 22.2846 45.4706 22.0714 46.8619 21.9666L47.4172 21.9248ZM25.1967 23.8038L24.173 54.5627C24.268 54.5583 24.3757 54.5534 24.4959 54.5479C25.0472 54.5226 25.8371 54.4866 26.7919 54.4437C28.7016 54.3579 31.2711 54.2444 33.9101 54.1337C38.6138 53.9364 43.5789 53.746 45.3897 53.7408L46.382 22.9995C44.3949 23.1137 39.4327 23.3035 34.7711 23.4714C32.1728 23.5651 29.6623 23.6521 27.8015 23.7157C26.871 23.7475 26.103 23.7734 25.5675 23.7914L25.1967 23.8038Z" fill="url(#paint6_linear_3323_18041)"/>
<path d="M43.9072 52.5992L44.9317 20.8191C39.3181 21.236 24.8132 23.3151 24.8132 23.3151L23.7278 55.0664C23.7271 55.0664 39.4679 52.4185 43.9072 52.5992Z" fill="white"/>
<path fill-rule="evenodd" clip-rule="evenodd" d="M45.4493 20.2791L44.3906 53.1191L43.8868 53.0985C41.7233 53.0105 36.7307 53.6179 32.223 54.2598C29.9814 54.579 27.8779 54.9039 26.3347 55.1491C25.5631 55.2716 24.9318 55.3742 24.4935 55.4462C24.3889 55.4633 24.2953 55.4787 24.2135 55.4923L24.2109 55.5662H23.7277C23.5435 55.397 23.484 55.2173 23.4822 55.0578L23.228 55.0491L24.3277 22.8793L24.7422 22.8199L24.8131 23.3149C24.7422 22.8199 24.7421 22.8199 24.7422 22.8199L25.3773 22.7296C25.7852 22.6719 26.3741 22.589 27.0983 22.4883C28.5466 22.2867 30.5364 22.0136 32.7018 21.7275C37.027 21.156 42.071 20.5299 44.8946 20.3202L45.4493 20.2791ZM25.2985 23.7508L24.2483 54.473C24.2752 54.4686 24.303 54.4641 24.3316 54.4594C24.7713 54.3872 25.4043 54.2843 26.1778 54.1615C27.7245 53.9158 29.8335 53.59 32.082 53.2698C36.2491 52.6764 40.959 52.0923 43.4233 52.0902L44.4139 21.3616C41.5476 21.6031 36.8898 22.1828 32.8328 22.7189C30.6703 23.0046 28.6829 23.2774 27.2361 23.4787C26.5128 23.5794 25.9246 23.6622 25.5174 23.7198L25.2985 23.7508Z" fill="url(#paint7_linear_3323_18041)"/>
<path d="M41.9424 50.9522L42.9649 19.1721C34.5454 19.7985 24.9134 23.3062 24.9134 23.3062L23.7986 55.0475C23.7993 55.0469 35.2815 50.6826 41.9424 50.9522Z" fill="white"/>
<path fill-rule="evenodd" clip-rule="evenodd" d="M43.4826 18.6323L42.426 51.4723L41.9222 51.4519C38.6793 51.3206 34.2117 52.3224 30.5103 53.3794C28.669 53.9051 27.0341 54.4395 25.8595 54.8425C25.2723 55.0439 24.8006 55.2124 24.4761 55.3303C24.3138 55.3893 24.1884 55.4356 24.1038 55.4671L24.0757 55.4776L23.2544 56.299L24.4256 22.9519L24.7424 22.8365L24.9135 23.3063C24.7424 22.8365 24.7423 22.8366 24.7424 22.8365L24.7502 22.8337L24.772 22.8258L24.856 22.7957C24.9298 22.7695 25.0386 22.7311 25.1798 22.682C25.4622 22.584 25.8742 22.4436 26.3945 22.2733C27.435 21.9327 28.9097 21.4723 30.6489 20.9922C34.1222 20.0334 38.6709 18.9903 42.9279 18.6736L43.4826 18.6323ZM25.4012 23.6639L24.3245 54.3217C24.6378 54.2089 25.0472 54.0639 25.535 53.8966C26.7216 53.4895 28.3736 52.9495 30.2357 52.4178C33.7616 51.411 38.1015 50.4155 41.4587 50.4408L42.4472 19.7161C38.4449 20.0711 34.2098 21.0466 30.915 21.9561C29.1937 22.4313 27.7342 22.887 26.7056 23.2236C26.1914 23.392 25.785 23.5305 25.5078 23.6267C25.4698 23.6399 25.4343 23.6523 25.4012 23.6639Z" fill="url(#paint8_linear_3323_18041)"/>
<path d="M39.9796 49.3068C31.0984 48.9502 23.8721 55.0262 23.8721 55.0262L25.0177 23.297C25.0177 23.297 29.7741 18.3592 41.0008 17.5254L39.9796 49.3068Z" fill="white"/>
<path fill-rule="evenodd" clip-rule="evenodd" d="M41.5184 16.9856L40.4632 49.8267L39.9596 49.8065C35.6348 49.6328 31.695 51.0262 28.821 52.479C27.3867 53.2041 26.2256 53.94 25.4242 54.4938C25.0238 54.7705 24.7137 55.0014 24.5049 55.1621C24.4006 55.2424 24.3215 55.3052 24.2692 55.3474C24.2431 55.3684 24.2236 55.3844 24.211 55.3948L24.1972 55.4061L24.1942 55.4086L23.3318 56.1338L24.5249 23.0878L24.6576 22.9501L25.0177 23.297C24.6576 22.9501 24.6574 22.9503 24.6576 22.9501L24.6586 22.9491L24.66 22.9477L24.6641 22.9434L24.6777 22.9297C24.6891 22.9183 24.7052 22.9023 24.7261 22.882C24.768 22.8415 24.8291 22.7839 24.9097 22.7114C25.071 22.5663 25.3108 22.3618 25.6323 22.1155C26.2753 21.6229 27.2456 20.9634 28.5699 20.2796C31.2199 18.9112 35.2808 17.4488 40.9638 17.0268L41.5184 16.9856ZM25.5101 23.5171L24.41 53.986C24.544 53.8891 24.6928 53.7837 24.8557 53.6711C25.6869 53.0967 26.8874 52.336 28.3699 51.5866C31.2198 50.1459 35.1404 48.7328 39.4959 48.7936L40.4831 18.0691C35.2309 18.5315 31.4782 19.9033 29.0287 21.1681C27.7605 21.823 26.84 22.4501 26.2404 22.9094C25.9406 23.139 25.721 23.3267 25.5783 23.455C25.5532 23.4776 25.5305 23.4983 25.5101 23.5171Z" fill="url(#paint9_linear_3323_18041)"/>
<defs>
<linearGradient id="paint0_linear_3323_18041" x1="13.1047" y1="55.4032" x2="14.1753" y2="22.1705" gradientUnits="userSpaceOnUse">
<stop stop-color="#2F455C"/>
<stop offset="1" stop-color="#1DCEFD"/>
</linearGradient>
<linearGradient id="paint1_linear_3323_18041" x1="14.6185" y1="55.4103" x2="14.6185" y2="20.6032" gradientUnits="userSpaceOnUse">
<stop stop-color="#2F455C"/>
<stop offset="1" stop-color="#1DCEFD"/>
</linearGradient>
<linearGradient id="paint2_linear_3323_18041" x1="15.6029" y1="55.4312" x2="15.6029" y2="19.087" gradientUnits="userSpaceOnUse">
<stop stop-color="#2F455C"/>
<stop offset="1" stop-color="#1DCEFD"/>
</linearGradient>
<linearGradient id="paint3_linear_3323_18041" x1="16.5845" y1="55.4985" x2="16.5845" y2="17.5696" gradientUnits="userSpaceOnUse">
<stop stop-color="#2F455C"/>
<stop offset="1" stop-color="#1DCEFD"/>
</linearGradient>
<linearGradient id="paint4_linear_3323_18041" x1="17.5675" y1="55.7219" x2="17.5675" y2="16.0548" gradientUnits="userSpaceOnUse">
<stop stop-color="#2F455C"/>
<stop offset="1" stop-color="#1DCEFD"/>
</linearGradient>
<linearGradient id="paint5_linear_3323_18041" x1="36.7681" y1="22.9867" x2="35.6975" y2="56.2168" gradientUnits="userSpaceOnUse">
<stop stop-color="#2F455C"/>
<stop offset="1" stop-color="#1DCEFD"/>
</linearGradient>
<linearGradient id="paint6_linear_3323_18041" x1="35.2775" y1="55.4382" x2="35.2775" y2="22.104" gradientUnits="userSpaceOnUse">
<stop stop-color="#2F455C"/>
<stop offset="1" stop-color="#1DCEFD"/>
</linearGradient>
<linearGradient id="paint7_linear_3323_18041" x1="34.3288" y1="55.4642" x2="34.3288" y2="20.4571" gradientUnits="userSpaceOnUse">
<stop stop-color="#2F455C"/>
<stop offset="1" stop-color="#1DCEFD"/>
</linearGradient>
<linearGradient id="paint8_linear_3323_18041" x1="33.3793" y1="55.5382" x2="33.3793" y2="18.8105" gradientUnits="userSpaceOnUse">
<stop stop-color="#2F455C"/>
<stop offset="1" stop-color="#1DCEFD"/>
</linearGradient>
<linearGradient id="paint9_linear_3323_18041" x1="32.4283" y1="55.7669" x2="32.4283" y2="17.1637" gradientUnits="userSpaceOnUse">
<stop stop-color="#2F455C"/>
<stop offset="1" stop-color="#1DCEFD"/>
</linearGradient>
</defs>
</svg>
