<svg width="55" height="55" viewBox="0 0 55 55" fill="none" xmlns="http://www.w3.org/2000/svg">
<circle cx="27.5" cy="27.5" r="27.5" fill="white"/>
<g clip-path="url(#clip0_1370_8114)">
<path d="M14.5495 43.3728C14.3574 43.3728 14.2016 43.3085 14.082 43.1798C13.9624 43.0493 13.9026 42.8763 13.9026 42.6606V39.994C13.9026 39.8726 13.9325 39.7602 13.9923 39.6569C14.0521 39.5536 14.1318 39.473 14.2315 39.415C14.3312 39.3552 14.4408 39.3253 14.5604 39.3253H15.4846C15.5625 39.3253 15.6441 39.3307 15.7293 39.3416C15.9123 39.3652 16.0763 39.4123 16.2213 39.4829C16.3662 39.5536 16.4904 39.6424 16.5937 39.7493C16.697 39.8544 16.7758 39.9741 16.8302 40.1082C16.8863 40.2422 16.9144 40.3845 16.9144 40.5349C16.9144 40.5893 16.9126 40.6319 16.909 40.6627C16.8891 40.8765 16.8211 41.0614 16.7051 41.2172L16.716 41.2308L16.7921 41.2797L16.8709 41.3287L16.9036 41.3586C16.9796 41.422 17.044 41.4954 17.0966 41.5787C17.1509 41.6621 17.1917 41.7518 17.2189 41.8478C17.246 41.9421 17.2596 42.0418 17.2596 42.1469C17.2596 42.2719 17.2406 42.3951 17.2026 42.5166C17.1645 42.6361 17.1056 42.7512 17.0259 42.8617C16.9606 42.9433 16.8945 43.0131 16.8274 43.0711C16.7078 43.1744 16.5765 43.2505 16.4333 43.2994C16.2901 43.3483 16.1243 43.3728 15.9358 43.3728H14.5495ZM15.1965 40.7959H15.4901C15.5444 40.7959 15.5943 40.775 15.6396 40.7334C15.6776 40.7044 15.6966 40.6654 15.6966 40.6165C15.6966 40.5675 15.6758 40.5268 15.6341 40.4942C15.5924 40.4579 15.5408 40.4398 15.4792 40.4398H15.1965V40.7959ZM15.1883 42.2529H15.7972C15.8461 42.2529 15.8878 42.2366 15.9223 42.2039C15.9567 42.1713 15.9739 42.1287 15.9739 42.0762C15.9739 42.02 15.9576 41.9729 15.925 41.9348C15.8924 41.895 15.8498 41.875 15.7972 41.875H15.1883V42.2529ZM18.7547 43.4163C18.327 43.3674 18.0099 43.2278 17.8033 42.9977C17.5985 42.7657 17.4961 42.4359 17.4961 42.0082V40.9236C17.4961 40.8077 17.5242 40.7026 17.5804 40.6083C17.6366 40.5141 17.7118 40.4398 17.806 40.3854C17.9021 40.3292 18.0072 40.3011 18.1213 40.3011C18.2917 40.3011 18.4366 40.3628 18.5563 40.486C18.6777 40.6074 18.7384 40.7569 18.7384 40.9345V42.0028C18.7384 42.1079 18.7628 42.1858 18.8118 42.2366C18.8535 42.2873 18.9105 42.3208 18.983 42.3371C19.1171 42.3371 19.2123 42.3036 19.2684 42.2366C19.3156 42.1894 19.3391 42.1115 19.3391 42.0028V40.9345C19.3391 40.8204 19.3672 40.7153 19.4234 40.6192C19.4796 40.5213 19.5548 40.4443 19.649 40.3881C19.745 40.3302 19.8501 40.3011 19.9643 40.3011C20.0803 40.3011 20.1854 40.3292 20.2796 40.3854C20.3739 40.4398 20.4482 40.5141 20.5025 40.6083C20.5587 40.7026 20.5868 40.8077 20.5868 40.9236V42.0082C20.5868 42.2945 20.5424 42.5365 20.4536 42.734C20.3648 42.9297 20.2271 43.0846 20.0404 43.1988C19.8538 43.3112 19.6164 43.3837 19.3283 43.4163C19.2177 43.429 19.1235 43.4353 19.0456 43.4353C18.9622 43.4353 18.8652 43.429 18.7547 43.4163ZM21.5192 43.4054C21.3488 43.4054 21.2048 43.3465 21.087 43.2287C20.9692 43.1109 20.9103 42.9605 20.9103 42.7775V39.5808C20.9103 39.4123 20.9701 39.2673 21.0897 39.1459C21.2093 39.0245 21.3543 38.9619 21.5246 38.9583C21.6406 38.9583 21.7457 38.9873 21.8399 39.0453C21.936 39.1015 22.0112 39.1776 22.0656 39.2737C22.1199 39.3679 22.1471 39.4721 22.1471 39.5863V40.3936C22.1562 40.39 22.1878 40.3791 22.2422 40.361C22.4144 40.3048 22.5739 40.2767 22.7206 40.2767C22.8022 40.2767 22.8874 40.2867 22.9762 40.3066C23.1791 40.3446 23.3603 40.4171 23.5198 40.524C23.6793 40.6292 23.8125 40.7642 23.9194 40.9291C24.0263 41.094 24.1015 41.2815 24.145 41.4917C24.1686 41.6059 24.1804 41.7156 24.1804 41.8207C24.1804 42.0798 24.126 42.3226 24.0172 42.5492C23.9104 42.7757 23.7654 42.9633 23.5823 43.1119C23.3993 43.2586 23.2009 43.351 22.987 43.3891C22.8819 43.4072 22.7913 43.4163 22.7152 43.4163C22.4198 43.4163 22.1842 43.3202 22.0084 43.1281V43.1064L21.5192 43.4054ZM22.1036 41.875C22.1054 42.0182 22.1471 42.1342 22.2286 42.223C22.3102 42.3099 22.409 42.3534 22.5249 42.3534C22.5485 42.3534 22.5784 42.3498 22.6146 42.3426C22.6744 42.3299 22.7288 42.3036 22.7777 42.2637C22.8285 42.2239 22.8683 42.1713 22.8973 42.1061C22.9263 42.0408 22.9417 41.9675 22.9436 41.8859C22.9436 41.7264 22.9001 41.6023 22.8131 41.5135C22.7261 41.4247 22.6083 41.3803 22.4597 41.3803C22.3691 41.3966 22.2921 41.4392 22.2286 41.5081C22.167 41.5751 22.1272 41.6621 22.109 41.769C22.1054 41.7962 22.1036 41.8316 22.1036 41.875ZM25.0638 43.4054C24.8935 43.4054 24.7494 43.3465 24.6316 43.2287C24.5138 43.1109 24.4549 42.9605 24.4549 42.7775V39.5808C24.4549 39.4123 24.5147 39.2673 24.6343 39.1459C24.7539 39.0245 24.8989 38.9619 25.0692 38.9583C25.1852 38.9583 25.2903 38.9873 25.3845 39.0453C25.4806 39.1015 25.5558 39.1776 25.6101 39.2737C25.6645 39.3679 25.6917 39.4721 25.6917 39.5863V40.3936C25.7008 40.39 25.7325 40.3791 25.7868 40.361C25.959 40.3048 26.1185 40.2767 26.2653 40.2767C26.3468 40.2767 26.432 40.2867 26.5208 40.3066C26.7237 40.3446 26.905 40.4171 27.0644 40.524C27.2239 40.6292 27.3571 40.7642 27.464 40.9291C27.5709 41.094 27.6462 41.2815 27.6897 41.4917C27.7132 41.6059 27.725 41.7156 27.725 41.8207C27.725 42.0798 27.6706 42.3226 27.5619 42.5492C27.4549 42.7757 27.31 42.9633 27.127 43.1119C26.9439 43.2586 26.7455 43.351 26.5316 43.3891C26.4265 43.4072 26.3359 43.4163 26.2598 43.4163C25.9644 43.4163 25.7289 43.3202 25.5531 43.1281V43.1064L25.0638 43.4054ZM25.6482 41.875C25.65 42.0182 25.6917 42.1342 25.7733 42.223C25.8548 42.3099 25.9536 42.3534 26.0695 42.3534C26.0931 42.3534 26.123 42.3498 26.1592 42.3426C26.2191 42.3299 26.2734 42.3036 26.3224 42.2637C26.3731 42.2239 26.4129 42.1713 26.442 42.1061C26.471 42.0408 26.4864 41.9675 26.4882 41.8859C26.4882 41.7264 26.4447 41.6023 26.3577 41.5135C26.2707 41.4247 26.1529 41.3803 26.0043 41.3803C25.9137 41.3966 25.8367 41.4392 25.7733 41.5081C25.7117 41.5751 25.6718 41.6621 25.6536 41.769C25.65 41.7962 25.6482 41.8316 25.6482 41.875ZM29.5979 43.4353C29.2934 43.4353 29.0152 43.3656 28.7633 43.226C28.5133 43.0865 28.3158 42.8971 28.1708 42.6579C28.0258 42.4169 27.9524 42.1541 27.9506 41.8696C27.9506 41.5851 28.0222 41.3205 28.1653 41.0758C28.3103 40.8294 28.5087 40.6346 28.7606 40.4914C29.0125 40.3483 29.2916 40.2767 29.5979 40.2767C29.8153 40.2767 30.0174 40.312 30.204 40.3827C30.3907 40.4516 30.5583 40.5503 30.7069 40.679C30.7975 40.7569 30.8764 40.8421 30.9434 40.9345C31.0123 41.0269 31.0685 41.123 31.112 41.2226C31.1572 41.3223 31.1908 41.4256 31.2125 41.5325C31.2342 41.6395 31.2451 41.7464 31.2451 41.8533C31.2451 42.0327 31.2143 42.2085 31.1527 42.3806C31.0929 42.5528 31.0023 42.7114 30.8809 42.8563C30.7595 42.9995 30.6136 43.12 30.4432 43.2178C30.1877 43.3628 29.9059 43.4353 29.5979 43.4353ZM29.1629 41.8642C29.1629 42.0182 29.2046 42.1442 29.288 42.242C29.3732 42.3399 29.4764 42.3888 29.5979 42.3888C29.6087 42.3888 29.6368 42.3842 29.6821 42.3752C29.8779 42.3353 29.9911 42.2039 30.0219 41.981C30.0292 41.9231 30.0328 41.8823 30.0328 41.8587C30.0328 41.7518 30.0083 41.6612 29.9594 41.5869C29.8706 41.4383 29.7501 41.364 29.5979 41.364C29.4475 41.364 29.3269 41.4383 29.2363 41.5869C29.1874 41.6666 29.1629 41.7591 29.1629 41.8642ZM33.1153 43.4353C32.8109 43.4353 32.5327 43.3656 32.2808 43.226C32.0307 43.0865 31.8332 42.8971 31.6882 42.6579C31.5432 42.4169 31.4698 42.1541 31.468 41.8696C31.468 41.5851 31.5396 41.3205 31.6828 41.0758C31.8278 40.8294 32.0262 40.6346 32.2781 40.4914C32.53 40.3483 32.809 40.2767 33.1153 40.2767C33.3327 40.2767 33.5348 40.312 33.7215 40.3827C33.9081 40.4516 34.0758 40.5503 34.2244 40.679C34.3149 40.7569 34.3938 40.8421 34.4608 40.9345C34.5297 41.0269 34.5859 41.123 34.6294 41.2226C34.6747 41.3223 34.7082 41.4256 34.73 41.5325C34.7517 41.6395 34.7626 41.7464 34.7626 41.8533C34.7626 42.0327 34.7318 42.2085 34.6702 42.3806C34.6103 42.5528 34.5197 42.7114 34.3983 42.8563C34.2769 42.9995 34.131 43.12 33.9607 43.2178C33.7052 43.3628 33.4234 43.4353 33.1153 43.4353ZM32.6804 41.8642C32.6804 42.0182 32.722 42.1442 32.8054 42.242C32.8906 42.3399 32.9939 42.3888 33.1153 42.3888C33.1262 42.3888 33.1543 42.3842 33.1996 42.3752C33.3953 42.3353 33.5085 42.2039 33.5394 41.981C33.5466 41.9231 33.5502 41.8823 33.5502 41.8587C33.5502 41.7518 33.5258 41.6612 33.4768 41.5869C33.388 41.4383 33.2675 41.364 33.1153 41.364C32.9649 41.364 32.8444 41.4383 32.7538 41.5869C32.7049 41.6666 32.6804 41.7591 32.6804 41.8642ZM35.2193 43.2505C35.096 43.1273 35.0344 42.9787 35.0344 42.8047V39.5754C35.0344 39.4086 35.0942 39.2646 35.2138 39.1432C35.3352 39.02 35.4802 38.9583 35.6487 38.9583C35.7593 38.9583 35.8617 38.9864 35.9559 39.0426C36.0519 39.097 36.1271 39.1722 36.1815 39.2682C36.2377 39.3624 36.2658 39.4648 36.2658 39.5754V41.1302L36.7061 40.5567C36.755 40.4914 36.8221 40.4335 36.9073 40.3827C37.0033 40.3319 37.1048 40.3066 37.2117 40.3066C37.277 40.3066 37.344 40.3175 37.4129 40.3392C37.5361 40.3809 37.6331 40.4525 37.7037 40.554C37.7762 40.6536 37.8125 40.7678 37.8125 40.8964C37.8125 40.9925 37.7925 41.0813 37.7527 41.1628C37.7056 41.248 37.6494 41.326 37.5841 41.3966L37.2851 41.7092L37.9131 42.4431C37.9946 42.5464 38.0353 42.6652 38.0353 42.7992C38.0353 42.8971 38.0136 42.9895 37.9701 43.0765C37.9357 43.1544 37.884 43.2224 37.8152 43.2804C37.7481 43.3365 37.6729 43.3764 37.5896 43.4C37.5406 43.4145 37.4835 43.4217 37.4183 43.4217C37.3186 43.4217 37.2235 43.3991 37.1329 43.3538C37.0423 43.3085 36.9689 43.2441 36.9127 43.1608L36.2658 42.2094V42.8101C36.2658 42.8935 36.2494 42.9741 36.2168 43.052C36.186 43.1281 36.1407 43.1961 36.0809 43.2559C35.9613 43.3755 35.8191 43.4353 35.6542 43.4353C35.482 43.4353 35.337 43.3737 35.2193 43.2505ZM38.4241 43.207C38.1849 43.0584 38.0653 42.898 38.0653 42.7258C38.0653 42.6733 38.0734 42.6271 38.0897 42.5872C38.1205 42.4894 38.1785 42.4123 38.2637 42.3561C38.3489 42.2982 38.4522 42.2692 38.5736 42.2692C38.6479 42.2692 38.7385 42.2864 38.8454 42.3208L38.9569 42.3534L39.0357 42.3806C39.1589 42.4314 39.2704 42.4631 39.37 42.4758H39.4026H39.4706C39.5195 42.4758 39.5522 42.4595 39.5685 42.4269C39.5685 42.3707 39.5485 42.3299 39.5087 42.3045C39.5069 42.3027 39.5032 42.3009 39.4978 42.2991C39.4923 42.2955 39.4869 42.2927 39.4815 42.2909C39.4779 42.2873 39.4742 42.2846 39.4706 42.2828L39.419 42.2637L39.3075 42.2366L39.1634 42.1931L39.0574 42.1659C38.8907 42.1206 38.7521 42.0716 38.6415 42.0191C38.5328 41.9648 38.4467 41.904 38.3833 41.837C38.3217 41.7699 38.2701 41.6884 38.2284 41.5923C38.1867 41.489 38.1658 41.3849 38.1658 41.2797C38.1658 41.1058 38.2211 40.9426 38.3317 40.7904C38.4422 40.6364 38.5998 40.5141 38.8046 40.4235C39.0112 40.3329 39.2513 40.2876 39.525 40.2876C39.737 40.2876 39.9264 40.3102 40.0931 40.3555C40.3559 40.428 40.5343 40.5268 40.6286 40.6518C40.6757 40.7153 40.6993 40.7932 40.6993 40.8856C40.6993 40.9744 40.6712 41.0568 40.615 41.1329C40.5588 41.2072 40.4827 41.2562 40.3867 41.2797C40.3432 41.2906 40.2988 41.296 40.2535 41.296C40.1828 41.296 40.0904 41.2815 39.9762 41.2525L39.8077 41.2118L39.7261 41.19L39.6364 41.1737C39.6074 41.1665 39.5866 41.1628 39.5739 41.1628C39.467 41.1628 39.4063 41.1647 39.3918 41.1683L39.3809 41.1792L39.3646 41.1955C39.3519 41.2082 39.3456 41.2199 39.3456 41.2308C39.3456 41.2544 39.3646 41.2798 39.4026 41.3069C39.4099 41.3106 39.4162 41.3142 39.4217 41.3178C39.4271 41.3214 39.4334 41.325 39.4407 41.3287L39.4923 41.3477L39.5739 41.3749L39.7696 41.4401L39.9082 41.4809L40.0306 41.5244C40.1465 41.5606 40.2698 41.6222 40.4002 41.7092C40.5235 41.7944 40.6168 41.9004 40.6802 42.0272C40.7455 42.1523 40.7781 42.2818 40.7781 42.416C40.7781 42.6987 40.6521 42.9415 40.4002 43.1445C40.1665 43.3329 39.8539 43.4272 39.4625 43.4272C39.4117 43.4272 39.3302 43.4235 39.2178 43.4163C38.8826 43.3909 38.618 43.3211 38.4241 43.207Z" fill="#1DCEFD"/>
<path d="M33.1212 9H16.2625V22.2902H33.1212C36.2117 22.2902 38.7168 19.3153 38.7168 15.6449C38.7168 11.975 36.2117 9 33.1212 9Z" fill="#1DCEFD"/>
<path d="M35.2692 22.2902H16.2625V35.579H35.2692C38.7529 35.579 41.5771 32.604 41.5771 28.9341C41.5773 25.2645 38.7531 22.2902 35.2692 22.2902Z" fill="#2F455C"/>
<path d="M22.7523 17.6431L13.7511 17.3532L13.3711 29.1472L22.3723 29.4372L22.7523 17.6431Z" fill="white" stroke="url(#paint0_linear_1370_8114)" stroke-width="0.371134" stroke-miterlimit="10"/>
<path d="M14.1377 28.5829L14.5179 16.7888C15.5513 16.9328 22.7135 17.6366 22.7135 17.6366L22.3454 29.4266C22.3454 29.4263 14.962 28.6028 14.1377 28.5829Z" fill="white" stroke="url(#paint1_linear_1370_8114)" stroke-width="0.371134" stroke-miterlimit="10"/>
<path d="M14.9055 28.0197L15.285 16.226C17.354 16.5151 22.6761 17.6297 22.6761 17.6297L22.3188 29.4167C22.3188 29.4167 16.5536 28.0604 14.9055 28.0197Z" fill="white" stroke="url(#paint2_linear_1370_8114)" stroke-width="0.371134" stroke-miterlimit="10"/>
<path d="M15.6726 27.4565L16.0521 15.6628C19.1555 16.0959 22.6386 17.6247 22.6386 17.6247L22.2931 29.4068C22.2931 29.407 18.1447 27.5178 15.6726 27.4565Z" fill="white" stroke="url(#paint3_linear_1370_8114)" stroke-width="0.371134" stroke-miterlimit="10"/>
<path d="M16.4402 26.8939C19.7363 26.9739 22.2682 29.3973 22.2682 29.3973L22.603 17.6195C22.603 17.6195 20.9582 15.6769 16.8199 15.1005L16.4402 26.8939Z" fill="white" stroke="url(#paint4_linear_1370_8114)" stroke-width="0.371134" stroke-miterlimit="10"/>
<path d="M21.7566 29.4498L30.7578 29.7398L31.1377 17.9458L22.1366 17.6558L21.7566 29.4498Z" fill="white" stroke="url(#paint5_linear_1370_8114)" stroke-width="0.371134" stroke-miterlimit="10"/>
<path d="M30.0253 29.1328L30.406 17.3376C29.3639 17.4161 22.1717 17.6548 22.1717 17.6548L21.7793 29.4447C21.7793 29.4447 29.2005 29.0996 30.0253 29.1328Z" fill="white" stroke="url(#paint6_linear_1370_8114)" stroke-width="0.371134" stroke-miterlimit="10"/>
<path d="M29.2957 28.5213L29.6759 16.7267C27.5925 16.8814 22.2092 17.653 22.2092 17.653L21.8064 29.437C21.8062 29.437 27.6481 28.4543 29.2957 28.5213Z" fill="white" stroke="url(#paint7_linear_1370_8114)" stroke-width="0.371134" stroke-miterlimit="10"/>
<path d="M28.5663 27.9102L28.9458 16.1155C25.8211 16.348 22.2463 17.6498 22.2463 17.6498L21.8325 29.4301C21.8328 29.4298 26.0942 27.8101 28.5663 27.9102Z" fill="white" stroke="url(#paint8_linear_1370_8114)" stroke-width="0.371134" stroke-miterlimit="10"/>
<path d="M27.8379 27.2995C24.5418 27.1671 21.8599 29.4221 21.8599 29.4221L22.285 17.6463C22.285 17.6463 24.0503 15.8138 28.2169 15.5043L27.8379 27.2995Z" fill="white" stroke="url(#paint9_linear_1370_8114)" stroke-width="0.371134" stroke-miterlimit="10"/>
</g>
<defs>
<linearGradient id="paint0_linear_1370_8114" x1="17.8636" y1="29.562" x2="18.261" y2="17.2282" gradientUnits="userSpaceOnUse">
<stop stop-color="#2F455C"/>
<stop offset="1" stop-color="#1DCEFD"/>
</linearGradient>
<linearGradient id="paint1_linear_1370_8114" x1="18.4255" y1="29.5646" x2="18.4255" y2="16.6465" gradientUnits="userSpaceOnUse">
<stop stop-color="#2F455C"/>
<stop offset="1" stop-color="#1DCEFD"/>
</linearGradient>
<linearGradient id="paint2_linear_1370_8114" x1="18.7907" y1="29.5724" x2="18.7907" y2="16.0838" gradientUnits="userSpaceOnUse">
<stop stop-color="#2F455C"/>
<stop offset="1" stop-color="#1DCEFD"/>
</linearGradient>
<linearGradient id="paint3_linear_1370_8114" x1="19.1549" y1="29.5973" x2="19.1549" y2="15.5207" gradientUnits="userSpaceOnUse">
<stop stop-color="#2F455C"/>
<stop offset="1" stop-color="#1DCEFD"/>
</linearGradient>
<linearGradient id="paint4_linear_1370_8114" x1="19.5201" y1="29.6803" x2="19.5201" y2="14.9585" gradientUnits="userSpaceOnUse">
<stop stop-color="#2F455C"/>
<stop offset="1" stop-color="#1DCEFD"/>
</linearGradient>
<linearGradient id="paint5_linear_1370_8114" x1="26.6458" y1="17.5312" x2="26.2485" y2="29.8639" gradientUnits="userSpaceOnUse">
<stop stop-color="#2F455C"/>
<stop offset="1" stop-color="#1DCEFD"/>
</linearGradient>
<linearGradient id="paint6_linear_1370_8114" x1="26.0927" y1="29.575" x2="26.0927" y2="17.2036" gradientUnits="userSpaceOnUse">
<stop stop-color="#2F455C"/>
<stop offset="1" stop-color="#1DCEFD"/>
</linearGradient>
<linearGradient id="paint7_linear_1370_8114" x1="25.7408" y1="29.5847" x2="25.7408" y2="16.5924" gradientUnits="userSpaceOnUse">
<stop stop-color="#2F455C"/>
<stop offset="1" stop-color="#1DCEFD"/>
</linearGradient>
<linearGradient id="paint8_linear_1370_8114" x1="25.3882" y1="29.6122" x2="25.3882" y2="15.9813" gradientUnits="userSpaceOnUse">
<stop stop-color="#2F455C"/>
<stop offset="1" stop-color="#1DCEFD"/>
</linearGradient>
<linearGradient id="paint9_linear_1370_8114" x1="25.0354" y1="29.697" x2="25.0354" y2="15.3701" gradientUnits="userSpaceOnUse">
<stop stop-color="#2F455C"/>
<stop offset="1" stop-color="#1DCEFD"/>
</linearGradient>
<clipPath id="clip0_1370_8114">
<rect width="28.5773" height="36" fill="white" transform="translate(13 9)"/>
</clipPath>
</defs>
</svg>
