<svg width="528" height="513" viewBox="0 0 528 513" fill="none" xmlns="http://www.w3.org/2000/svg">
<path d="M0.00170898 422.753L66.0075 422.466L132.001 422.358L264.001 422.166L396 422.358L461.994 422.466L528 422.753L461.994 423.053L396 423.161L264.001 423.352L132.001 423.161L66.0075 423.053L0.00170898 422.753Z" fill="#263238"/>
<path d="M264.001 512.199C399.195 512.199 508.791 498.555 508.791 481.725C508.791 464.894 399.195 451.25 264.001 451.25C128.808 451.25 19.2119 464.894 19.2119 481.725C19.2119 498.555 128.808 512.199 264.001 512.199Z" fill="#EBEBEB"/>
<path d="M202.309 408.241L448.824 408.241V359.599H202.309V408.241Z" fill="#1DCEFD"/>
<path d="M402.807 408.241H426.894V359.599H402.807V408.241Z" fill="#37474F"/>
<path d="M383.813 408.241H393.867V359.599H383.813V408.241Z" fill="#37474F"/>
<path d="M224.719 408.241H248.806V359.599H224.719V408.241Z" fill="#37474F"/>
<path d="M162.77 235.942L99.4666 474.19L134.409 483.474L197.713 245.226L162.77 235.942Z" fill="#37474F"/>
<path d="M111.277 429.711L105.091 452.991L140.033 462.275L146.219 438.996L111.277 429.711Z" fill="#1DCEFD"/>
<path d="M157.016 257.613L150.83 280.893L185.773 290.177L191.958 266.898L157.016 257.613Z" fill="#1DCEFD"/>
<path d="M150.133 482.444L435.642 482.444V458.129L150.133 458.129V482.444Z" fill="#1DCEFD"/>
<path d="M360.349 482.444H371.985V458.129H360.349V482.444Z" fill="#A6A6A6"/>
<path d="M379.679 482.444H391.315V458.129H379.679V482.444Z" fill="#A6A6A6"/>
<path d="M178.618 482.444H190.254V458.129H178.618V482.444Z" fill="#A6A6A6"/>
<path d="M197.935 482.444H209.571V458.129H197.935V482.444Z" fill="#A6A6A6"/>
<path d="M348.054 323.313H177.048V359.6H348.054V323.313Z" fill="#455A64"/>
<path d="M445.529 323.313H348.042V359.6H445.529V323.313Z" fill="#455A64"/>
<path d="M348.054 327.076H177.048V355.837H348.054V327.076Z" fill="white"/>
<path d="M188.109 332.996C201.434 332.788 214.764 332.649 228.098 332.577L268.075 332.445L308.065 332.577C321.39 332.649 334.716 332.788 348.042 332.996C334.716 333.196 321.39 333.34 308.065 333.427L268.075 333.547L228.05 333.415C214.756 333.344 201.442 333.204 188.109 332.996Z" fill="#DBDBDB"/>
<path d="M188.109 338.64C201.434 338.441 214.764 338.297 228.098 338.209L268.075 338.089L308.065 338.209C321.39 338.297 334.716 338.441 348.042 338.64C334.716 338.84 321.39 338.98 308.065 339.06L268.075 339.192L228.05 339.06C214.756 338.988 201.442 338.848 188.109 338.64Z" fill="#DBDBDB"/>
<path d="M188.109 344.285C201.434 344.085 214.764 343.941 228.098 343.853L268.075 343.733L308.065 343.853C321.39 343.925 334.716 344.069 348.042 344.285C334.716 344.492 321.39 344.632 308.065 344.704L268.075 344.836L228.05 344.704C214.756 344.632 201.442 344.492 188.109 344.285Z" fill="#DBDBDB"/>
<path d="M188.109 349.929C201.434 349.721 214.764 349.577 228.098 349.498L268.075 349.366L308.065 349.498C321.39 349.569 334.716 349.713 348.042 349.929C334.716 350.137 321.39 350.276 308.065 350.348L268.075 350.48L228.05 350.348C214.756 350.276 201.442 350.137 188.109 349.929Z" fill="#DBDBDB"/>
<path d="M333.662 216.563H193.705V242.615H333.662V216.563Z" fill="#A6A6A6"/>
<path d="M413.449 216.563H333.662V242.615H413.449V216.563Z" fill="#A6A6A6"/>
<path d="M333.662 219.271H193.705V239.919H333.662V219.271Z" fill="white"/>
<path d="M202.765 223.514C213.678 223.37 224.587 223.27 235.492 223.214L268.219 223.118L300.946 223.214C311.852 223.262 322.757 223.362 333.662 223.514C322.757 223.657 311.852 223.761 300.946 223.825L268.219 223.909L235.492 223.825C224.587 223.769 213.678 223.665 202.765 223.514Z" fill="#DBDBDB"/>
<path d="M202.765 227.564C213.678 227.42 224.587 227.32 235.492 227.265L268.219 227.169L300.946 227.265C311.852 227.313 322.757 227.412 333.662 227.564C322.757 227.708 311.852 227.812 300.946 227.876L268.219 227.96L235.492 227.876C224.587 227.82 213.678 227.716 202.765 227.564Z" fill="#DBDBDB"/>
<path d="M202.765 231.614C213.678 231.471 224.587 231.371 235.492 231.315L268.219 231.219L300.946 231.315C311.852 231.363 322.757 231.463 333.662 231.614C322.757 231.766 311.852 231.87 300.946 231.926L268.219 232.01L235.492 231.926C224.587 231.87 213.678 231.766 202.765 231.614Z" fill="#DBDBDB"/>
<path d="M202.765 235.725C213.678 235.581 224.587 235.481 235.492 235.425L268.219 235.33L300.946 235.425C311.852 235.473 322.757 235.573 333.662 235.725C322.757 235.885 311.852 235.989 300.946 236.037L268.219 236.121L235.492 236.037C224.587 235.941 213.678 235.837 202.765 235.725Z" fill="#DBDBDB"/>
<path d="M150.923 282.449L116.842 410.494L97.4045 483.498L78.6501 478.501L98.0876 405.497L132.169 277.452L150.923 282.449Z" fill="#1DCEFD"/>
<path opacity="0.1" d="M150.923 282.449L116.842 410.494L97.4045 483.498L78.6501 478.501L98.0876 405.497L132.169 277.452L150.923 282.449Z" fill="#1E1E1E"/>
<path d="M114.887 409.948L148.98 281.906L134.111 277.947L100.018 405.989L114.887 409.948Z" fill="white"/>
<path d="M143.709 289.4C141.169 299.402 138.588 309.388 135.968 319.359L128.059 349.318L120.03 379.277C117.329 389.247 114.597 399.21 111.833 409.164C114.39 399.154 116.974 389.167 119.586 379.205L127.484 349.246L135.525 319.287C138.225 309.316 140.953 299.354 143.709 289.4Z" fill="#DBDBDB"/>
<path d="M140.797 288.621C138.249 298.639 135.664 308.625 133.044 318.58L125.147 348.539L117.106 378.498C114.413 388.468 111.685 398.43 108.921 408.385C111.469 398.383 114.054 388.396 116.674 378.426L124.572 348.467L132.613 318.508C135.313 308.537 138.041 298.575 140.797 288.621Z" fill="#DBDBDB"/>
<path d="M137.885 287.854C135.337 297.864 132.752 307.85 130.132 317.813L122.235 347.772L114.194 377.731C111.501 387.701 108.773 397.66 106.009 407.606C108.549 397.596 111.13 387.609 113.75 377.647L121.659 347.688L129.688 317.729C132.381 307.798 135.113 297.84 137.885 287.854Z" fill="#DBDBDB"/>
<path d="M134.961 287.075C132.421 297.077 129.84 307.064 127.22 317.034L119.311 346.993L111.282 376.952C108.589 386.922 105.857 396.881 103.085 406.827C105.633 396.825 108.218 386.839 110.838 376.868L118.735 346.909L126.776 316.95C129.477 306.98 132.205 297.021 134.961 287.075Z" fill="#DBDBDB"/>
<path d="M272.713 458.117H415.977V408.241H272.713V458.117Z" fill="#263238"/>
<path d="M172.086 458.117H272.713V408.241H172.086V458.117Z" fill="#263238"/>
<path d="M272.713 452.94H415.977V413.418H272.713V452.94Z" fill="white"/>
<path d="M406.702 444.815C395.517 445.015 384.353 445.155 373.208 445.235L339.714 445.366L306.159 445.235C294.975 445.163 283.79 445.023 272.605 444.815C283.79 444.615 294.975 444.472 306.159 444.384L339.714 444.264L373.208 444.384C384.376 444.472 395.541 444.615 406.702 444.815Z" fill="#DBDBDB"/>
<path d="M406.702 437.05C395.517 437.249 384.353 437.389 373.208 437.469L339.714 437.601L306.159 437.469C294.975 437.397 283.79 437.257 272.605 437.05C283.79 436.85 294.975 436.706 306.159 436.618L339.714 436.499L373.208 436.618C384.376 436.698 395.541 436.842 406.702 437.05Z" fill="#DBDBDB"/>
<path d="M406.702 429.308C395.517 429.508 384.353 429.648 373.208 429.728L339.714 429.86L306.159 429.728C294.975 429.656 283.79 429.516 272.605 429.308C283.79 429.101 294.975 428.957 306.159 428.877L339.714 428.745L373.208 428.877C384.376 428.949 395.541 429.093 406.702 429.308Z" fill="#DBDBDB"/>
<path d="M406.702 421.555C395.517 421.763 384.353 421.902 373.208 421.974L339.714 422.106L306.159 421.974C294.975 421.902 283.79 421.763 272.605 421.555C283.79 421.339 294.975 421.195 306.159 421.124L339.714 420.992L373.208 421.124C384.376 421.195 395.541 421.339 406.702 421.555Z" fill="#DBDBDB"/>
<path d="M449.567 289.472H186.623V323.457H449.567V289.472Z" fill="#C7C7C7"/>
<path d="M312.475 296.41H211.345V316.806H312.475V296.41Z" fill="white"/>
<path d="M431.819 296.41H336.885V299.562H431.819V296.41Z" fill="white"/>
<path d="M431.819 304.895H336.885V308.046H431.819V304.895Z" fill="white"/>
<path d="M431.819 313.367H336.885V316.519H431.819V313.367Z" fill="white"/>
<path d="M398.697 242.615H204.802V289.316H398.697V242.615Z" fill="#1DCEFD"/>
<path d="M378.133 242.615H360.062V289.316H378.133V242.615Z" fill="#263238"/>
<path d="M348.21 242.615H341.199V289.316H348.21V242.615Z" fill="#263238"/>
<path d="M57.9785 390.469C65.5881 374.819 78.9019 366.79 93.9294 371.236C108.957 375.682 111.258 396.593 100.065 401.878C88.8723 407.163 77.6556 391.728 71.7357 388.564C65.8158 385.4 57.9785 390.469 57.9785 390.469Z" fill="#1DCEFD"/>
<path d="M50.6086 432.101C50.6086 430.207 50.7285 428.326 50.7884 426.444C50.9202 422.681 51.052 418.907 51.1958 415.144C51.4475 408.265 52.1905 401.506 55.0426 395.155C57.5603 389.4 61.7691 384.548 67.1101 381.242C69.0941 380.049 71.2306 379.13 73.4614 378.51C75.4767 376.463 78.047 375.051 80.8553 374.447C84.3313 373.737 87.9057 373.648 91.4129 374.184C91.5447 374.184 91.5327 374.387 91.4129 374.376C88.0674 373.95 84.6708 374.19 81.4185 375.083C80.0307 375.469 78.6857 375.995 77.404 376.652C76.5963 377.09 75.8195 377.582 75.0792 378.126C78.1066 377.501 81.233 377.534 84.2467 378.222C85.3313 378.485 86.3932 378.833 87.4223 379.265C88.2445 379.086 89.0863 379.014 89.9269 379.049C91.0234 379.084 92.1125 379.241 93.1745 379.516C95.3454 380.128 97.422 381.036 99.346 382.213C99.4659 382.273 99.346 382.44 99.2502 382.381C97.3681 381.35 95.3514 380.588 93.2583 380.116C92.2418 379.88 91.2078 379.728 90.1666 379.66C89.5918 379.63 89.0158 379.63 88.4409 379.66C92.7164 381.633 96.1521 385.061 98.1357 389.331C98.1357 389.451 98.0158 389.547 97.9679 389.427C96.7811 386.948 95.0489 384.77 92.901 383.056C90.753 381.342 88.245 380.136 85.5649 379.528C85.2293 379.445 84.8938 379.397 84.5582 379.325C84.6781 379.816 84.6541 380.367 84.726 380.847C84.8219 381.602 84.9537 382.357 85.0975 383.112C85.4069 384.66 85.807 386.188 86.2959 387.689C86.8056 389.209 87.4141 390.694 88.1174 392.135C88.7926 393.656 89.6453 395.092 90.6579 396.413C90.7418 396.521 90.574 396.653 90.5021 396.533C89.5914 395.119 88.5488 393.813 87.7219 392.351C86.9368 390.949 86.2559 389.491 85.6847 387.989C85.1161 386.461 84.6713 384.89 84.3545 383.291C84.1867 382.452 84.0549 381.602 83.9591 380.751C83.8556 380.242 83.8233 379.722 83.8632 379.205C82.0986 378.931 80.3056 378.891 78.5305 379.085C79.2016 382.824 79.9206 386.707 82.0057 389.954C82.0776 390.062 81.8859 390.158 81.826 390.05C80.8522 388.326 79.9916 386.541 79.2495 384.705C78.5664 382.924 78.1348 381.057 77.9673 379.157C74.87 379.568 71.8802 380.569 69.1593 382.105C64.0289 385.084 59.9344 389.563 57.4273 394.939C54.7824 400.725 53.3081 406.977 53.0893 413.334C52.5859 421.327 52.4901 429.368 51.6872 437.301C51.6872 437.817 50.8124 437.997 50.7165 437.409C50.5092 435.647 50.4731 433.869 50.6086 432.101Z" fill="#263238"/>
<path d="M68.2008 379.996C68.6984 379.387 69.2793 378.85 69.9264 378.402C70.5496 377.887 71.1248 377.384 71.8558 376.928C73.1765 376.025 74.6386 375.349 76.1819 374.927C76.3017 374.927 76.3497 375.095 76.1819 375.119C74.627 375.507 73.1726 376.222 71.9157 377.216C71.2806 377.683 70.7174 378.187 70.0702 378.702C69.5424 379.254 68.9602 379.752 68.3326 380.188C68.2607 380.248 68.1169 380.104 68.2008 379.996Z" fill="#263238"/>
<path d="M92.4795 385.664C93.7401 387.125 94.9049 388.666 95.9667 390.278C97.0106 391.9 97.8821 393.627 98.5672 395.43C98.5672 395.43 98.5672 395.514 98.4713 395.43C96.7337 392.022 94.6794 388.784 92.3357 385.76C92.2518 385.7 92.3956 385.52 92.4795 385.664Z" fill="#263238"/>
<path d="M76.1101 384.118C76.2712 385.095 76.5613 386.046 76.9729 386.946C77.3905 387.817 77.8753 388.655 78.4229 389.451C78.4229 389.451 78.4229 389.558 78.339 389.511C77.0335 388.002 76.2 386.144 75.9423 384.166C75.8584 384.034 76.0861 383.986 76.1101 384.118Z" fill="#263238"/>
<path d="M51.6751 390.853C51.6751 390.853 40.8899 377.311 20.1103 382.105C0.361277 386.719 -8.78223 422.909 11.1465 427.247C31.0753 431.585 27.6 398.043 34.8741 392.351C40.2667 388.181 47.9482 389.115 51.6751 390.853Z" fill="#1DCEFD"/>
<path d="M4.04032 401.902C5.39595 400.714 6.82916 399.617 8.33046 398.618C9.73843 397.65 11.2753 396.883 12.8962 396.342C13.6999 395.105 14.6058 393.939 15.6045 392.854C17.4488 390.875 19.5821 389.186 21.9319 387.845H21.3087C20.2062 387.845 19.1037 387.845 18.0012 387.845C15.7844 387.987 13.6119 388.531 11.59 389.451C11.4702 389.451 11.3863 389.319 11.5061 389.271C13.5563 388.38 15.7041 387.732 17.9054 387.342C18.9765 387.145 20.0638 387.048 21.1529 387.054C21.7401 387.054 22.3513 387.054 22.9025 387.162H23.2381C25.1442 386.2 27.1547 385.46 29.2299 384.957L28.6547 384.801C27.6224 384.581 26.578 384.421 25.527 384.322C23.4547 384.078 21.3593 384.111 19.2955 384.418C19.1756 384.418 19.1397 384.238 19.2955 384.214C21.3826 383.963 23.4864 383.879 25.5869 383.963C27.3506 384.018 29.1047 384.247 30.8237 384.646C32.074 384.411 33.3396 384.267 34.6105 384.214C41.8007 383.903 49.7698 386.611 54.2277 392.603C58.6856 398.594 59.5724 406.528 60.3633 413.73C61.573 423.757 61.8378 433.876 61.1543 443.953C61.1543 444.552 60.2675 444.432 60.2555 443.869C59.9799 435.324 59.6803 426.78 58.8654 418.26C58.4819 414.317 58.0625 410.362 57.4034 406.456C56.934 403.089 55.9689 399.81 54.5393 396.725C52.9999 393.544 50.5465 390.894 47.4929 389.115C44.4335 387.372 41.0226 386.336 37.5106 386.084C34.3723 385.822 31.2126 386.114 28.1753 386.946C28.2652 387.558 28.2652 388.18 28.1753 388.792C28.1011 389.564 27.9486 390.327 27.72 391.069C27.4881 391.764 27.1953 392.438 26.8451 393.082C26.4617 393.801 25.9823 394.436 25.5509 395.119C25.479 395.227 25.3112 395.119 25.3832 394.999C26.2368 393.779 26.7911 392.375 27.0009 390.901C27.1327 390.2 27.2168 389.492 27.2526 388.78C27.2526 388.253 27.2526 387.701 27.2526 387.174C23.9542 388.187 20.8765 389.813 18.181 391.968C17.6657 392.375 17.1864 392.806 16.707 393.238C17.3894 393.878 17.982 394.608 18.4686 395.407C19.2183 396.444 19.8721 397.547 20.4219 398.702C21.3835 401.002 22.0324 403.42 22.3513 405.893C22.3439 405.914 22.3302 405.932 22.3119 405.945C22.2937 405.958 22.2718 405.965 22.2494 405.965C22.227 405.965 22.2052 405.958 22.1869 405.945C22.1687 405.932 22.1549 405.914 22.1476 405.893C21.755 403.485 20.9438 401.165 19.7508 399.038C19.2004 397.985 18.584 396.969 17.9054 395.994C17.5578 395.491 17.1983 394.999 16.8149 394.52C16.6111 394.268 16.3835 394.005 16.1917 393.729C13.7458 396.123 11.7489 398.935 10.2958 402.034C11.2649 403.074 12.0728 404.253 12.6925 405.533C13.4741 406.901 14.1588 408.323 14.7417 409.787C15.7478 412.556 16.5764 415.386 17.2223 418.26C17.2223 418.391 17.0545 418.427 17.0306 418.26C16.3988 415.352 15.4086 412.535 14.0826 409.871C13.4594 408.577 12.8004 407.295 12.1173 406.024C11.3931 404.867 10.7407 403.667 10.164 402.429C8.76956 405.446 7.95645 408.698 7.76723 412.016C7.76723 412.148 7.55152 412.124 7.5635 412.016C7.94522 406.79 9.54584 401.725 12.2371 397.228C10.9669 397.768 9.68461 398.295 8.46228 398.954C6.89702 399.781 5.44332 400.804 4.13619 401.998C4.07628 402.142 3.95644 401.986 4.04032 401.902Z" fill="#263238"/>
<path d="M19.2954 402.669C19.9186 404.718 20.7095 406.719 21.2727 408.793C21.8448 410.781 22.1511 412.836 22.1835 414.904C22.1835 414.964 22.0996 414.964 22.0876 414.904C21.5277 410.751 20.5274 406.67 19.1037 402.729C19.0998 402.716 19.0983 402.703 19.0995 402.69C19.1007 402.677 19.1045 402.664 19.1106 402.652C19.1167 402.641 19.1251 402.63 19.1352 402.622C19.1453 402.613 19.157 402.607 19.1696 402.603C19.1822 402.599 19.1954 402.598 19.2086 402.599C19.2217 402.6 19.2345 402.604 19.2462 402.61C19.2579 402.616 19.2682 402.624 19.2767 402.634C19.2851 402.645 19.2915 402.656 19.2954 402.669Z" fill="#263238"/>
<path d="M6.12559 397.576C6.9395 396.785 7.86885 396.122 8.88182 395.611C9.90807 395.139 10.975 394.762 12.0695 394.484C12.1893 394.484 12.2253 394.652 12.0695 394.676C10.9946 394.954 9.96249 395.378 9.00166 395.934C8.02021 396.448 7.07526 397.028 6.17352 397.672C6.1674 397.68 6.15928 397.686 6.14995 397.691C6.14062 397.695 6.13038 397.696 6.12021 397.695C6.11004 397.695 6.10027 397.691 6.09183 397.685C6.08339 397.68 6.07656 397.672 6.072 397.663C6.06743 397.653 6.06528 397.643 6.06573 397.633C6.06619 397.623 6.06925 397.613 6.07462 397.604C6.07999 397.596 6.08749 397.588 6.09641 397.583C6.10533 397.578 6.11538 397.576 6.12559 397.576Z" fill="#263238"/>
<path d="M41.4292 372.77C41.4292 372.77 39.4519 348.443 21.3567 340.558C6.25731 333.967 -2.38288 350.936 8.29453 361.325C16.9227 369.726 30.7758 365.939 41.4292 372.77Z" fill="#1DCEFD"/>
<path d="M11.6379 345.267C14.3916 346.376 17.0767 347.649 19.6789 349.078C21.8471 350.324 23.9326 351.709 25.9224 353.224C25.6228 352.601 25.3591 351.954 25.0596 351.355C24.5802 350.42 24.0769 349.497 23.5257 348.611C22.4105 346.773 21.0699 345.082 19.5351 343.577C19.4512 343.494 19.5351 343.35 19.6789 343.446C21.2101 344.952 22.613 346.583 23.8732 348.323C24.4986 349.209 25.0746 350.129 25.5988 351.079C26.1219 351.952 26.525 352.891 26.7972 353.871C26.7972 353.931 26.929 353.967 27.0009 354.027C30.1597 356.539 33.051 359.37 35.6291 362.476C35.6291 362.236 35.5332 361.996 35.4733 361.781C35.1378 360.582 34.7663 359.384 34.3708 358.245C33.5984 355.749 32.5026 353.364 31.1113 351.151C31.0986 351.129 31.0952 351.102 31.102 351.078C31.1087 351.053 31.125 351.032 31.1472 351.019C31.1695 351.006 31.1959 351.003 31.2206 351.01C31.2453 351.017 31.2663 351.033 31.2791 351.055C32.7225 353.26 34.0041 355.567 35.1138 357.958C35.6018 359.125 36.0024 360.326 36.3122 361.553C36.578 362.334 36.7784 363.135 36.9114 363.95C37.6903 364.944 38.4692 365.951 39.2002 366.993C46.9656 378.042 50.8603 391.416 51.795 404.79C52.0666 408.778 52.1346 412.778 51.9987 416.773C51.9649 420.79 51.6082 424.797 50.9322 428.757C50.9322 429.009 50.4888 428.925 50.5008 428.685C50.5847 425.162 50.9562 421.663 51.0161 418.151C51.0848 414.661 50.9768 411.169 50.6925 407.69C50.1255 400.666 48.8037 393.723 46.7499 386.982C44.6298 380.089 41.5174 373.541 37.5105 367.545C36.7436 367.389 35.9886 367.185 35.2336 366.993L32.5373 366.274C30.8003 365.823 29.1108 365.205 27.4922 364.429C27.3724 364.369 27.4922 364.189 27.6001 364.249C29.1939 365.121 30.9241 365.717 32.7171 366.011C34.1312 366.286 35.6051 366.478 37.0192 366.802C35.7163 364.887 34.3123 363.043 32.813 361.277C29.3661 361.582 25.8926 361.319 22.531 360.498C20.742 360.077 18.9842 359.532 17.2702 358.869C15.4487 358.161 13.6751 357.275 11.9495 356.472C11.8177 356.472 11.9495 356.22 12.0334 356.292C15.2699 358.06 18.8039 359.218 22.4591 359.707C25.6851 360.226 28.9464 360.494 32.2138 360.51C30.9315 359.036 29.6013 357.61 28.1873 356.256C23.3938 351.726 17.7975 347.58 11.542 345.411C11.4581 345.411 11.5181 345.219 11.6379 345.267Z" fill="#263238"/>
<path d="M26.354 345.339C27.1662 346.37 27.9069 347.455 28.571 348.587C29.2511 349.777 29.7862 351.044 30.1648 352.362C30.1648 352.362 30.1648 352.422 30.0929 352.362C29.4937 351.163 28.9784 349.965 28.3673 348.767C27.7699 347.597 27.0466 346.496 26.2102 345.483C26.1263 345.375 26.2701 345.243 26.354 345.339Z" fill="#263238"/>
<path d="M55.4861 368.384C55.5939 369.438 58.2183 359.552 73.4615 350.78C87.3505 342.811 103.924 322.091 90.3105 308.993C79.3814 298.435 50.417 321.468 55.4861 368.384Z" fill="#1DCEFD"/>
<path d="M44.9644 425.066C45.1754 414.783 45.9756 404.52 47.3611 394.328C48.5652 384.944 50.7296 375.708 53.8203 366.766C55.0187 363.554 56.217 360.39 57.6671 357.275C57.5934 356.077 57.6134 354.875 57.727 353.68C57.7989 352.122 57.9427 350.576 58.0865 349.018C58.2303 347.46 58.3861 345.914 58.5778 344.368C58.7696 342.822 59.0931 341.277 59.153 339.731C59.153 339.718 59.1555 339.706 59.1603 339.694C59.1651 339.682 59.1722 339.672 59.1811 339.663C59.19 339.654 59.2006 339.647 59.2122 339.642C59.2238 339.637 59.2363 339.635 59.2489 339.635C59.2615 339.635 59.274 339.637 59.2856 339.642C59.2972 339.647 59.3078 339.654 59.3167 339.663C59.3256 339.672 59.3327 339.682 59.3375 339.694C59.3423 339.706 59.3448 339.718 59.3448 339.731C59.0416 341.357 58.8573 343.003 58.7935 344.656C58.6857 346.154 58.5898 347.664 58.5538 349.162C58.5179 350.66 58.5538 352.17 58.5538 353.68C58.5538 354.219 58.5538 354.794 58.5538 355.381C59.9919 352.337 61.5378 349.389 63.2035 346.43C62.1729 340.09 63.5151 333.463 64.8093 327.256C64.8093 327.136 65.025 327.184 65.001 327.316C64.3661 330.554 64.0292 333.843 63.9944 337.142C63.9944 339.743 64.0543 342.343 64.0663 344.944C64.4378 344.32 64.7973 343.745 65.1688 343.086C67.1581 339.843 69.2752 336.679 71.5201 333.595C71.344 332.09 71.3965 330.567 71.6759 329.077C71.9224 327.407 72.2909 325.757 72.7784 324.14C73.2697 322.522 73.833 320.928 74.4801 319.347C75.1272 317.765 76.014 316.207 76.6611 314.553C76.6666 314.541 76.6744 314.531 76.684 314.522C76.6936 314.513 76.7048 314.506 76.7171 314.502C76.7293 314.497 76.7423 314.495 76.7553 314.496C76.7683 314.497 76.7811 314.5 76.7929 314.505C76.8047 314.511 76.8153 314.518 76.8241 314.528C76.8329 314.538 76.8397 314.549 76.8442 314.561C76.8486 314.573 76.8506 314.586 76.8501 314.599C76.8495 314.612 76.8464 314.625 76.8409 314.637C76.0221 316.157 75.3788 317.765 74.9235 319.43C74.4276 321.003 74.0274 322.603 73.7251 324.224C73.4016 325.83 73.1379 327.447 72.9102 329.017C72.7544 330.096 72.6586 331.21 72.4788 332.301C75.7486 327.9 79.3246 323.736 83.1802 319.838C83.2003 319.828 83.2229 319.825 83.2449 319.829C83.2669 319.833 83.2872 319.843 83.3029 319.859C83.3187 319.875 83.3292 319.895 83.333 319.917C83.3367 319.939 83.3336 319.962 83.324 319.982C77.4855 326.533 72.27 333.614 67.7453 341.133L67.254 341.984C68.1048 341.456 69.0635 341.037 69.8544 340.593C71.3404 339.779 72.8263 338.952 74.3243 338.197C75.8222 337.442 77.2123 336.627 78.6504 335.8C79.3934 335.393 80.1244 334.961 80.8793 334.602C81.7787 334.191 82.6442 333.71 83.4678 333.164C83.5876 333.08 83.7075 333.26 83.5876 333.319C82.1136 334.134 80.8194 335.333 79.3934 336.243C77.9673 337.154 76.5053 338.029 75.0313 338.856C72.311 340.378 69.3511 341.468 66.6428 343.038C64.7853 346.286 63.0477 349.617 61.5018 353.009C63.1196 351.966 64.7853 350.983 66.463 350.037C67.5536 349.437 68.6321 348.838 69.7346 348.251C70.8298 347.754 71.8634 347.13 72.8144 346.394C72.9102 346.31 73.042 346.453 72.9462 346.537C71.1707 348.144 69.1974 349.517 67.0742 350.624C65.1089 351.822 63.1316 352.889 61.0824 353.883C59.4526 357.478 57.9667 361.074 56.6604 364.824C50.2252 383.051 47.8525 402.393 46.726 421.615C46.3905 427.343 46.2227 433.071 46.1508 438.799C46.0789 444.527 46.3785 450.256 46.3665 455.984C46.3665 456.152 46.0909 456.187 46.0669 455.984C45.3719 450.903 45.252 445.738 45.0363 440.621C44.8206 435.504 44.8566 430.255 44.9644 425.066Z" fill="#263238"/>
<path d="M72.7544 342.547C75.5428 341.306 78.2558 339.901 80.8793 338.341C83.5299 336.84 86.1018 335.204 88.5847 333.44C88.5847 333.44 88.6806 333.44 88.5847 333.512C86.2401 335.408 83.7654 337.138 81.1789 338.689C78.4702 340.206 75.6684 341.551 72.7903 342.715C72.7304 342.763 72.6345 342.595 72.7544 342.547Z" fill="#263238"/>
<path d="M68.3204 321.935C68.5481 321.049 68.8237 320.174 69.1233 319.311C69.1233 319.311 69.1233 319.251 69.1233 319.215C69.3151 318.712 69.5188 318.232 69.7225 317.741L69.7944 317.561L69.9023 317.286L69.7585 317.789C69.7361 317.886 69.708 317.982 69.6746 318.077C68.6876 321.482 67.9506 324.954 67.4696 328.466C67.4696 328.574 67.2779 328.586 67.2898 328.466C67.4239 326.261 67.769 324.074 68.3204 321.935Z" fill="#263238"/>
<path d="M28.8105 428.745L29.9011 441.675L33.2445 481.114H69.0276L72.359 441.675L73.4495 428.745H28.8105Z" fill="#455A64"/>
<path d="M28.8105 428.745L29.9011 441.675H72.359L73.4495 428.745H28.8105Z" fill="#263238"/>
<path d="M25.2993 435.947H76.9607V423.544H25.2993V435.947Z" fill="#455A64"/>
<path d="M436.169 215.653C433.653 216.563 359.246 218.049 356.442 216.324C356.107 216.144 354.896 191.53 354.896 191.53C354.992 191.182 353.698 188.809 351.852 185.538C346.544 176.274 336.166 159.689 336.166 159.689L380.337 146.339L398.481 182.674L403.106 191.949C403.106 191.949 413.245 195.916 422.1 199.87C425.967 201.473 429.737 203.302 433.389 205.347C436.265 207.54 438.686 214.766 436.169 215.653Z" fill="#D3766A"/>
<path d="M436.169 215.653C433.653 216.564 359.246 218.049 356.442 216.324C356.107 216.144 354.896 191.53 354.896 191.53C354.992 191.182 353.698 188.809 351.852 185.538L398.481 182.674L403.106 191.949C403.106 191.949 413.245 195.916 422.1 199.87C425.967 201.473 429.737 203.302 433.389 205.347C436.265 207.54 438.686 214.766 436.169 215.653Z" fill="white"/>
<path d="M436.481 215.928C433.892 216.851 359.378 218.121 356.502 216.384C355.412 215.725 354.105 204.256 354.896 191.53L402.939 190.763C402.939 190.763 430.765 203.058 433.713 205.311C436.66 207.564 439.069 215.018 436.481 215.928Z" fill="#1DCEFD"/>
<path opacity="0.1" d="M375.999 217.223C365.394 217.223 357.413 216.923 356.502 216.384C355.412 215.725 354.105 204.256 354.896 191.53H356.095L375.999 217.223Z" fill="#1E1E1E"/>
<path d="M435.366 212.956C422.879 212.861 372.464 213.675 360.109 214.526C360.013 214.526 360.013 214.61 360.109 214.61C372.488 214.97 422.891 213.759 435.378 213.16C435.63 213.16 435.63 212.956 435.366 212.956Z" fill="#263238"/>
<path d="M428.871 202.723C427.482 202.707 426.104 202.981 424.827 203.528C423.55 204.074 422.401 204.882 421.453 205.898C419.728 207.706 418.767 210.11 418.769 212.609C418.769 212.681 418.913 212.681 418.925 212.609C419.302 210.127 420.476 207.836 422.271 206.08C424.065 204.325 426.382 203.201 428.871 202.878C428.967 202.866 428.967 202.723 428.871 202.723Z" fill="#263238"/>
<path d="M406.881 191.949C401.884 191.949 396.096 193.83 393.076 197.941C392.956 198.097 393.196 198.264 393.34 198.18C397.673 195.835 402.245 193.959 406.977 192.584C407.061 192.571 407.137 192.526 407.187 192.457C407.238 192.389 407.259 192.303 407.247 192.219C407.234 192.134 407.188 192.059 407.12 192.008C407.051 191.957 406.965 191.936 406.881 191.949Z" fill="#263238"/>
<path d="M410.764 193.387C405.767 193.387 399.979 195.269 396.959 199.379C396.851 199.535 397.079 199.703 397.223 199.619C401.554 197.252 406.125 195.356 410.86 193.962C410.915 193.931 410.958 193.883 410.985 193.826C411.012 193.768 411.021 193.704 411.011 193.642C411 193.579 410.971 193.521 410.927 193.476C410.883 193.43 410.826 193.399 410.764 193.387Z" fill="#263238"/>
<path d="M414.647 194.825C409.649 194.825 403.861 196.707 400.853 200.817C400.734 200.973 400.961 201.141 401.105 201.057C405.439 198.688 410.015 196.792 414.754 195.4C414.809 195.368 414.853 195.319 414.879 195.261C414.906 195.203 414.913 195.138 414.902 195.075C414.89 195.012 414.859 194.955 414.813 194.91C414.768 194.865 414.71 194.836 414.647 194.825Z" fill="#263238"/>
<path d="M418.589 196.263C413.58 196.263 407.804 198.145 404.784 202.255C404.664 202.411 404.892 202.579 405.036 202.495C409.341 200.145 413.885 198.261 418.589 196.874C418.66 196.86 418.724 196.822 418.769 196.766C418.815 196.711 418.84 196.641 418.84 196.569C418.84 196.497 418.815 196.427 418.769 196.371C418.724 196.315 418.66 196.277 418.589 196.263Z" fill="#263238"/>
<path d="M363.069 202.626C357.461 202.734 357.628 211.446 363.249 211.339C368.869 211.231 368.689 202.507 363.069 202.626Z" fill="#263238"/>
<path d="M412.058 178.516C409.494 176.466 406.33 178.516 404.808 180.769C402.271 184.609 400.784 189.046 400.494 193.639C400.494 193.735 400.566 193.783 400.65 193.771C400.669 193.865 400.71 193.954 400.77 194.029C400.83 194.104 400.908 194.164 400.996 194.203C401.084 194.241 401.181 194.258 401.277 194.252C401.373 194.246 401.466 194.216 401.549 194.166C405.072 191.638 409.146 189.373 411.783 185.85C413.317 183.788 414.479 180.457 412.058 178.516ZM406.066 189.301C404.365 190.595 402.615 191.782 400.961 193.124C401.735 190.596 402.635 188.108 403.658 185.67C404.173 184.5 404.761 183.363 405.419 182.267C406.486 180.601 411.315 176.275 411.902 181.763C412.274 184.699 408.128 187.719 406.102 189.241L406.066 189.301Z" fill="#263238"/>
<path d="M388.103 195.7C392.465 196.299 396.935 194.981 401.201 194.238C401.293 194.213 401.377 194.167 401.448 194.104C401.519 194.04 401.574 193.961 401.609 193.873C401.644 193.784 401.657 193.689 401.649 193.594C401.641 193.5 401.61 193.408 401.56 193.327C401.576 193.314 401.588 193.297 401.596 193.279C401.605 193.26 401.609 193.24 401.609 193.22C401.609 193.199 401.605 193.179 401.596 193.16C401.588 193.142 401.576 193.125 401.56 193.112C398.087 190.083 393.881 188.017 389.361 187.12C386.713 186.665 383.01 187.431 382.674 190.715C382.339 193.999 385.55 195.353 388.103 195.7ZM385.035 192.908C381.572 188.678 388.007 188.222 389.936 188.642C391.185 188.926 392.41 189.303 393.603 189.768C396.054 190.749 398.454 191.853 400.793 193.076C398.672 193.315 396.599 193.723 394.49 194.034C391.997 194.406 386.94 195.245 385.035 192.908Z" fill="#263238"/>
<path d="M348.485 185.034L400.889 177.089C400.889 177.089 375.724 126.89 360.145 99.6511C351.481 84.5038 327.789 83.7608 316.225 101.916C300.79 126.159 288.831 148.868 281.976 161.427L270.088 162.445L272.653 181.859L312.199 190.703C327.334 192.524 337.951 165.537 338.203 166.04C340.061 169.611 348.485 185.034 348.485 185.034Z" fill="#37474F"/>
<path d="M338.431 166.22C336.933 163.164 335.77 159.929 334.452 156.801L330.605 147.729C328.041 141.606 325.381 135.506 322.888 129.359C321.486 125.907 320.204 122.408 318.897 118.921C318.897 118.837 318.73 118.921 318.754 118.921C319.772 122.216 320.827 125.512 321.929 128.771C321.63 128.208 321.342 127.645 321.03 127.094C320.192 125.596 319.329 124.11 318.454 122.624H318.37C319.173 124.122 319.976 125.608 320.767 127.082C321.174 127.825 321.63 128.544 322.073 129.275C325.124 138.447 328.755 147.417 332.942 156.13C334.608 159.545 336.537 162.817 338.227 166.232C338.299 166.4 338.479 166.304 338.431 166.22Z" fill="#263238"/>
<path d="M349.659 175.711C347.131 171.816 341.115 160.025 338.958 155.938C334.608 147.693 330.57 139.269 326.843 130.773C324.71 125.979 322.72 121.09 320.743 116.2C320.743 116.2 320.683 116.2 320.743 116.2C323.754 124.997 327.206 133.636 331.085 142.085C334.92 150.557 347.323 173.374 349.552 175.843C349.588 175.903 349.731 175.807 349.659 175.711Z" fill="#263238"/>
<path d="M317.136 122.684C312.618 130.749 308.004 138.754 303.475 146.807C301.186 150.869 298.885 154.944 296.62 159.018C295.553 160.948 294.523 162.889 293.408 164.782C292.462 166.577 291.029 168.068 289.274 169.085C287.174 170.081 284.972 170.849 282.707 171.373C280.154 172.116 277.626 172.919 275.061 173.626C274.942 173.626 275.001 173.83 275.061 173.806C277.338 173.195 279.639 172.608 281.94 172.104C284.05 171.655 286.135 171.091 288.183 170.415C290.001 169.816 291.608 168.705 292.809 167.215C294.042 165.508 295.128 163.7 296.057 161.811C300.626 153.566 305.12 145.261 309.538 136.897C312.079 132.163 314.583 127.418 317.136 122.708C317.184 122.684 317.148 122.66 317.136 122.684Z" fill="#263238"/>
<path d="M347.299 177.677C350.438 177.102 353.65 176.838 356.814 176.478L366.341 175.28C372.668 174.453 394.227 171.014 395.856 170.487C395.877 170.479 395.896 170.466 395.909 170.447C395.922 170.429 395.929 170.407 395.929 170.385C395.929 170.362 395.922 170.341 395.909 170.322C395.896 170.304 395.877 170.29 395.856 170.283C394.31 170.283 380.194 172.116 377.03 172.584C370.703 173.519 364.411 174.633 358.096 175.7C356.298 175.999 354.501 176.347 352.703 176.67C350.906 176.994 349.108 177.377 347.311 177.605C347.305 177.587 347.294 177.571 347.278 177.56C347.263 177.549 347.244 177.544 347.225 177.545C347.206 177.546 347.188 177.553 347.174 177.566C347.16 177.579 347.151 177.596 347.147 177.615C347.144 177.633 347.148 177.653 347.157 177.669C347.166 177.686 347.181 177.699 347.198 177.706C347.216 177.713 347.235 177.714 347.254 177.709C347.272 177.704 347.288 177.692 347.299 177.677Z" fill="#263238"/>
<path d="M378.72 232.13C377.881 229.602 332.966 170.247 329.898 169.108C329.539 168.953 309.466 183.249 309.466 183.249C308.639 184.352 270.472 176.287 270.472 176.287L270.088 222.328L339.593 220.854C339.593 220.854 348.976 226.366 357.569 230.872C361.221 232.925 364.995 234.753 368.869 236.349C372.404 237.199 379.57 234.611 378.72 232.13Z" fill="#D3766A"/>
<path d="M368.929 236.301C365.05 234.716 361.276 232.887 357.629 230.824C349.048 226.33 339.653 220.794 339.653 220.794L324.182 221.129L299.951 182.039C305.26 182.985 309.227 183.549 309.538 183.237C309.538 183.237 329.611 168.953 329.97 169.108C333.038 170.247 377.905 229.59 378.792 232.13C379.678 234.671 372.404 237.199 368.929 236.301Z" fill="white"/>
<path d="M379.127 232.13C378.24 229.53 333.122 170.223 329.994 169.036C328.796 168.593 318.981 174.657 309.49 183.165L338.623 221.369C338.623 221.369 365.502 235.605 369.097 236.528C372.692 237.451 380.014 234.767 379.127 232.13Z" fill="#1DCEFD"/>
<path d="M376.107 233.113C368.294 223.358 337.76 183.273 330.749 173.039C330.749 172.955 330.749 172.907 330.821 173.039C338.766 182.542 369.013 222.867 376.275 233.041C376.419 233.209 376.275 233.329 376.107 233.113Z" fill="#263238"/>
<path d="M364.04 234.371C363.167 233.288 362.53 232.035 362.169 230.692C361.808 229.348 361.731 227.945 361.943 226.57C362.289 224.099 363.577 221.858 365.538 220.314C365.598 220.314 365.682 220.374 365.622 220.434C363.912 222.271 362.843 224.612 362.575 227.107C362.307 229.603 362.854 232.118 364.136 234.275C364.142 234.289 364.144 234.304 364.142 234.319C364.139 234.333 364.132 234.347 364.122 234.357C364.111 234.368 364.098 234.375 364.083 234.377C364.068 234.38 364.053 234.378 364.04 234.371Z" fill="#263238"/>
<path d="M341.966 223.742C338.886 219.799 336.777 214.155 338.155 209.17C338.155 208.978 338.479 209.062 338.515 209.17C339.333 214.036 340.671 218.801 342.505 223.382C342.553 223.454 342.57 223.541 342.553 223.626C342.536 223.71 342.487 223.784 342.415 223.832C342.344 223.879 342.256 223.897 342.172 223.88C342.088 223.863 342.014 223.813 341.966 223.742Z" fill="#263238"/>
<path d="M345.489 225.923C342.409 221.992 340.3 216.336 341.678 211.351C341.678 211.159 342.002 211.243 342.026 211.41C342.854 216.276 344.196 221.04 346.028 225.623C346.055 225.693 346.056 225.77 346.03 225.841C346.004 225.911 345.954 225.97 345.889 226.007C345.823 226.043 345.747 226.055 345.673 226.039C345.6 226.024 345.534 225.982 345.489 225.923Z" fill="#263238"/>
<path d="M349.084 228.08C346.004 224.149 343.895 218.493 345.273 213.52C345.273 213.328 345.597 213.4 345.621 213.52C346.449 218.385 347.791 223.15 349.624 227.732C349.67 227.804 349.685 227.891 349.667 227.974C349.649 228.057 349.599 228.13 349.528 228.176C349.456 228.222 349.369 228.238 349.286 228.22C349.203 228.202 349.13 228.151 349.084 228.08Z" fill="#263238"/>
<path d="M352.571 230.249C349.492 226.306 347.383 220.662 348.761 215.677C348.761 215.485 349.084 215.569 349.108 215.677C349.936 220.542 351.278 225.307 353.111 229.889C353.158 229.961 353.176 230.048 353.159 230.133C353.142 230.217 353.092 230.291 353.021 230.339C352.949 230.386 352.862 230.404 352.777 230.387C352.693 230.37 352.619 230.32 352.571 230.249Z" fill="#263238"/>
<path d="M323.236 182.746C319.856 178.276 326.831 173.015 330.186 177.497C333.542 181.979 326.627 187.228 323.236 182.746Z" fill="#263238"/>
<path d="M340.216 231.387C341.355 227.133 340.6 222.531 340.408 218.205C340.396 218.105 340.359 218.01 340.301 217.927C340.242 217.845 340.165 217.778 340.075 217.733C339.984 217.688 339.885 217.666 339.784 217.669C339.683 217.672 339.585 217.7 339.497 217.75C339.486 217.732 339.471 217.718 339.454 217.708C339.436 217.698 339.416 217.693 339.395 217.693C339.375 217.693 339.355 217.698 339.337 217.708C339.319 217.718 339.304 217.732 339.293 217.75C335.859 220.815 333.295 224.735 331.864 229.11C331.073 231.663 331.372 235.45 334.572 236.193C337.772 236.936 339.497 233.868 340.216 231.387ZM337.1 234.083C332.475 236.972 332.822 230.488 333.505 228.679C333.959 227.48 334.487 226.312 335.087 225.18C336.37 222.869 337.77 220.625 339.281 218.457C339.281 220.578 339.389 222.699 339.437 224.82C339.413 227.337 339.605 232.478 337.1 234.083Z" fill="#263238"/>
<path d="M326.052 205.503C323.655 207.792 325.381 211.183 327.382 212.969C330.864 215.975 335.075 218.012 339.593 218.876C339.613 218.88 339.634 218.879 339.654 218.874C339.674 218.868 339.692 218.858 339.707 218.844C339.722 218.83 339.734 218.813 339.741 218.793C339.749 218.774 339.751 218.753 339.749 218.733C339.845 218.724 339.937 218.692 340.019 218.64C340.1 218.589 340.168 218.518 340.217 218.435C340.266 218.352 340.295 218.259 340.301 218.163C340.307 218.067 340.29 217.97 340.252 217.882C338.191 214.071 336.453 209.745 333.29 206.689C331.444 204.904 328.281 203.37 326.052 205.503ZM335.95 212.753C337.005 214.598 337.963 216.48 339.09 218.289C336.693 217.091 334.296 216.084 332.031 214.694C330.933 214.035 329.88 213.302 328.88 212.501C327.358 211.243 323.739 205.91 329.203 206.006C332.211 206.066 334.704 210.56 335.902 212.753H335.95Z" fill="#263238"/>
<path d="M290.424 165.597C290.424 165.597 214.245 152.224 192.578 156.634C162.355 162.757 156.795 198.504 179.216 211.758C207.677 228.679 322.001 225.408 322.001 225.408L294.679 179.115C294.679 179.115 252.652 170.259 214.544 171.541L290.76 183.189L290.424 165.597Z" fill="#37474F"/>
<path d="M296.5 182.098C296.469 182.022 296.449 181.941 296.44 181.859C296.44 181.799 296.44 181.727 296.44 181.667C296.44 181.607 296.356 181.367 296.32 181.211C296.229 180.906 296.121 180.606 295.997 180.313C295.884 180.011 295.756 179.715 295.613 179.426C295.469 179.141 295.3 178.868 295.11 178.611H295.038H294.966H294.894C290.281 177.748 258.872 173.266 254.21 172.727C249.548 172.188 244.779 171.756 240.057 171.361C230.634 170.542 221.174 170.202 211.716 170.342L209.056 170.414C208.876 170.414 208.672 170.318 208.48 170.27C208.025 170.163 207.57 170.055 207.114 169.971C206.263 169.803 205.401 169.683 204.55 169.551C202.752 169.276 200.955 169.084 199.181 168.749C199.159 168.749 199.138 168.757 199.122 168.773C199.106 168.789 199.097 168.81 199.097 168.832C199.097 168.855 199.106 168.876 199.122 168.892C199.138 168.907 199.159 168.916 199.181 168.916C200.967 169.312 202.776 169.827 204.514 170.223L206.06 170.546C202.596 170.738 199.145 171.001 195.682 171.313C195.574 171.313 195.574 171.493 195.682 171.481C200.392 171.205 205.125 171.169 209.847 171.253C214.568 171.337 219.206 171.433 223.879 171.708C233.334 172.248 242.778 173.099 252.197 174.105C257.481 174.656 289.502 179.33 294.81 179.546C294.81 179.666 294.894 179.785 294.954 179.905C295.014 180.025 295.254 180.481 295.41 180.756C295.565 181.032 295.709 181.295 295.877 181.559L296.141 181.942L296.272 182.134C296.33 182.195 296.378 182.264 296.416 182.338C296.356 182.278 296.56 182.206 296.5 182.098Z" fill="#263238"/>
<path d="M312.139 222.543C310.449 219.847 309.011 216.959 307.465 214.155L302.791 205.766C299.688 200.182 288.531 181.427 287.428 180.109C287.357 180.025 287.213 180.109 287.249 180.217C287.776 181.679 294.738 194.094 296.344 196.862C299.544 202.399 302.911 207.827 306.231 213.304C307.189 214.862 308.172 216.396 309.131 217.953C310.09 219.511 311.108 221.033 311.995 222.627C312.043 222.783 312.199 222.687 312.139 222.543Z" fill="#263238"/>
<path d="M287.117 184.843C284.325 184.172 281.472 183.74 278.644 183.201L270.172 181.607C264.524 180.561 258.863 179.558 253.191 178.599C241.879 176.694 230.53 175.124 219.11 174.022C212.674 173.41 206.215 173.003 199.756 172.524C199.624 172.524 199.624 172.739 199.756 172.739C211.26 173.255 222.741 174.813 234.125 176.454C245.51 178.096 256.642 179.846 267.883 181.739L277.386 183.369C280.61 183.932 283.821 184.567 287.069 185.023C287.189 185.047 287.237 184.867 287.117 184.843Z" fill="#263238"/>
<path d="M277.65 94.1745C279.855 107.92 291.551 150.605 304.014 155.159C312.151 158.143 354.633 155.686 361.535 148.472C364.567 145.321 360.9 118.453 356.238 118.789C351.577 119.124 318.526 124.709 315.326 123.283C312.127 121.857 297.027 93.863 288.842 83.3653C276.236 67.1994 275.984 83.3653 277.65 94.1745Z" fill="#D3766A"/>
<path d="M282.599 119.868L305.943 106.23C305.943 106.23 296.356 91.1189 288.687 82.1791C281.017 73.2393 274.414 71.1422 276.344 89.5251C277.34 99.8335 279.437 110.006 282.599 119.868Z" fill="#263238"/>
<path d="M296.129 165.022C294.87 166.052 224.335 158.826 224.035 158.335C223.22 157.005 237.912 113.504 247.415 97.3743C259.591 76.6906 265.127 75.3844 268.447 74.4856C272.689 73.2872 279.639 74.2459 282.827 76.5468C284.6 77.8171 289.37 88.2548 290.988 96.4995C294.247 113.025 297.219 164.075 296.129 165.022Z" fill="#1DCEFD"/>
<path d="M281.077 86.3613C277.051 87.332 270.112 81.2084 267.368 76.2352C267.176 75.8876 267.692 72.2806 268.099 67.8466C268.339 65.1743 268.542 62.1784 268.53 59.4581C268.53 58.8949 285.727 63.5565 285.727 63.5565C284.761 66.9847 284.218 70.5181 284.109 74.0781C284.117 74.4563 284.158 74.8331 284.229 75.2046C284.236 75.2643 284.236 75.3246 284.229 75.3843C284.612 77.5414 284.96 85.4146 281.077 86.3613Z" fill="#D3766A"/>
<path d="M269.585 59.5662C270.4 64.1918 273.324 75.3606 282.491 75.5283C283.08 75.5412 283.669 75.5092 284.253 75.4325C284.261 75.3688 284.261 75.3044 284.253 75.2407C284.176 74.8697 284.132 74.4929 284.121 74.1143C284.229 70.5534 284.777 67.0195 285.751 63.5927C285.751 63.5927 273.312 60.2013 269.585 59.5662Z" fill="#263238"/>
<path d="M269.441 36.7969C266.421 42.4053 266.121 60.2848 269.597 64.9824C274.63 71.8011 284.612 74.3536 290.832 67.8944C296.823 61.6509 296.823 38.3308 292.797 33.8849C286.841 27.3059 273.899 28.4803 269.441 36.7969Z" fill="#D3766A"/>
<path d="M283.019 52.7473C283.019 52.7473 282.923 52.7473 282.923 52.8552C282.923 54.0535 282.743 55.4436 281.652 55.8151V55.887C282.995 55.7312 283.174 53.8858 283.019 52.7473Z" fill="#263238"/>
<path d="M281.976 51.4651C280.047 51.2734 279.807 55.1561 281.605 55.3358C283.402 55.5156 283.594 51.6329 281.976 51.4651Z" fill="#263238"/>
<path d="M289.741 53.1909C289.741 53.1909 289.837 53.2628 289.837 53.3108C289.717 54.5091 289.837 55.8992 290.856 56.3666V56.4385C289.526 56.1629 289.454 54.3174 289.741 53.1909Z" fill="#263238"/>
<path d="M290.892 52.0044C292.845 52.0044 292.749 55.8631 290.952 55.8871C289.154 55.9111 289.274 52.0284 290.892 52.0044Z" fill="#263238"/>
<path d="M280.37 48.2897C280.901 48.2695 281.429 48.2134 281.952 48.122C282.52 48.1464 283.081 47.9821 283.546 47.6546C283.672 47.5244 283.751 47.3559 283.77 47.1758C283.79 46.9957 283.749 46.8142 283.654 46.66C283.42 46.3799 283.116 46.1676 282.772 46.0454C282.428 45.9231 282.058 45.8953 281.7 45.9649C280.959 45.9971 280.256 46.2998 279.723 46.8158C279.611 46.9426 279.537 47.0989 279.511 47.2661C279.485 47.4334 279.507 47.6046 279.575 47.7596C279.643 47.9146 279.754 48.0469 279.895 48.1408C280.036 48.2348 280.201 48.2864 280.37 48.2897Z" fill="#263238"/>
<path d="M292.845 49.284C292.333 49.1452 291.828 48.9771 291.335 48.7807C290.777 48.6877 290.266 48.4091 289.885 47.9898C289.787 47.8344 289.744 47.6505 289.764 47.4677C289.783 47.285 289.864 47.1142 289.993 46.9832C290.281 46.7613 290.622 46.6209 290.983 46.5766C291.344 46.5323 291.709 46.5859 292.042 46.7315C292.752 46.9043 293.374 47.3305 293.792 47.9299C293.891 48.0784 293.943 48.2533 293.941 48.4318C293.939 48.6103 293.883 48.7841 293.781 48.9304C293.679 49.0767 293.535 49.1887 293.368 49.2518C293.201 49.3149 293.018 49.3261 292.845 49.284Z" fill="#263238"/>
<path d="M281.808 60.2732C282.083 60.7692 282.459 61.2023 282.91 61.5448C283.362 61.8874 283.881 62.1318 284.433 62.2625C284.912 62.3931 285.41 62.4457 285.907 62.4183C285.998 62.4305 286.091 62.4305 286.182 62.4183H286.446C286.511 62.4112 286.573 62.3826 286.62 62.3372C286.668 62.2917 286.699 62.2317 286.709 62.1666V61.9629V61.8551C286.793 60.9323 286.793 59.4583 286.793 59.4583C287.117 59.6501 288.795 60.5369 288.795 60.0455C288.938 55.8939 288.661 51.7384 287.968 47.6425C287.96 47.6185 287.945 47.5976 287.924 47.5828C287.904 47.568 287.879 47.5601 287.854 47.5601C287.829 47.5601 287.804 47.568 287.784 47.5828C287.763 47.5976 287.748 47.6185 287.74 47.6425C287.584 51.5132 288.112 55.3719 288.016 59.2546C287.416 58.9329 286.775 58.695 286.11 58.5476C285.978 58.5476 286.17 61.2798 286.11 61.6993C285.354 61.735 284.599 61.6188 283.889 61.3574C283.179 61.0959 282.528 60.6947 281.976 60.1773C281.844 60.1054 281.748 60.1773 281.808 60.2732Z" fill="#263238"/>
<path d="M285.379 61.9629C284.833 62.596 284.131 63.0752 283.342 63.353C282.909 63.4907 282.445 63.4907 282.012 63.353C281.065 63.0414 281.101 62.1546 281.317 61.4116C281.444 61.0194 281.613 60.6418 281.82 60.2852C282.799 61.207 284.045 61.7945 285.379 61.9629Z" fill="#263238"/>
<path d="M283.342 63.3049C282.909 63.4426 282.445 63.4426 282.012 63.3049C281.065 62.9933 281.101 62.1065 281.317 61.3635C281.825 61.4083 282.303 61.6251 282.671 61.9781C283.039 62.3311 283.276 62.7991 283.342 63.3049Z" fill="#FF98B9"/>
<path d="M267.787 52.8071C271.502 53.8737 275.277 37.8755 275.277 37.8755C277.172 39.5158 279.305 40.8574 281.604 41.8541C283.99 42.6965 286.462 43.2713 288.974 43.5677C289.537 43.5677 283.809 39.2057 283.809 39.2057C287.34 40.6926 291.135 41.4508 294.966 41.4347C297.83 41.2669 297.674 40.0446 297.794 39.1098C297.914 38.1751 294.259 28.5163 282.671 27.4018C280.329 27.2335 277.981 27.6477 275.838 28.6075C273.694 29.5673 271.822 31.0428 270.388 32.9023C270.388 32.9023 265.055 36.4974 264.504 39.1578C263.749 42.7049 263.869 51.6807 267.787 52.8071Z" fill="#263238"/>
<path d="M289.07 53.754C289.262 51.0218 290.892 48.9606 292.665 49.0445C294.439 49.1283 295.781 51.4412 295.589 54.2214C295.397 57.0016 293.768 59.0148 291.994 58.919C290.221 58.8231 288.878 56.4743 289.07 53.754ZM289.729 53.754C289.561 56.1508 290.592 58.1161 292.03 58.2119C293.468 58.3078 294.774 56.4743 294.942 54.1255C295.11 51.7767 294.079 49.7635 292.641 49.6556C291.203 49.5478 289.909 51.4412 289.729 53.802V53.754Z" fill="#455A64"/>
<path d="M276.655 52.867C276.779 51.971 277.162 51.1308 277.758 50.4498C278.353 49.7689 279.135 49.2769 280.006 49.0346C280.878 48.7922 281.801 48.81 282.663 49.0857C283.524 49.3615 284.286 49.8832 284.855 50.5865C285.424 51.2899 285.775 52.1443 285.864 53.0444C285.953 53.9446 285.777 54.8512 285.358 55.6527C284.939 56.4542 284.294 57.1155 283.504 57.5553C282.713 57.9951 281.811 58.1941 280.909 58.1279C279.648 57.992 278.493 57.3621 277.696 56.3761C276.898 55.3901 276.524 54.1283 276.655 52.867ZM277.314 52.867C277.321 53.6378 277.552 54.3899 277.979 55.0314C278.406 55.673 279.011 56.1761 279.72 56.4793C280.429 56.7826 281.21 56.8728 281.969 56.7389C282.728 56.6051 283.432 56.253 283.994 55.7256C284.556 55.1983 284.953 54.5186 285.135 53.7696C285.317 53.0206 285.277 52.2348 285.02 51.5083C284.762 50.7817 284.299 50.1459 283.686 49.6785C283.073 49.2111 282.337 48.9324 281.568 48.8765C280.471 48.8475 279.406 49.2551 278.609 50.01C277.811 50.7649 277.345 51.8053 277.314 52.903V52.867Z" fill="#455A64"/>
<path d="M285.691 53.059C288.219 52.3639 289.286 53.2627 289.286 53.2627L289.729 52.7713C289.729 52.7713 288.423 51.573 285.499 52.4238L285.691 53.059Z" fill="#455A64"/>
<path d="M277.015 52.4478L277.182 51.8127C276.763 51.7048 266.805 49.1163 265.714 48.9845C264.624 48.8527 261.76 50.1829 261.448 50.3027L261.736 50.9019C262.94 50.2725 264.24 49.8435 265.582 49.6316C266.469 49.7515 273.444 51.525 277.015 52.4478Z" fill="#455A64"/>
<path d="M270.316 51.561C270.316 51.561 267.404 45.2576 264.612 46.2043C261.819 47.151 263.305 55.7912 266.086 57.433C266.429 57.6681 266.815 57.8316 267.223 57.9137C267.631 57.9959 268.051 57.9949 268.458 57.911C268.865 57.8271 269.251 57.662 269.593 57.4254C269.935 57.1888 270.226 56.8857 270.448 56.5342L270.316 51.561Z" fill="#D3766A"/>
<path d="M265.091 48.6611C265.091 48.6611 265.091 48.6611 265.091 48.745C267.032 49.9434 267.787 52.1004 268.195 54.2575C268.111 54.0297 267.978 53.8226 267.807 53.6501C267.636 53.4776 267.43 53.3437 267.203 53.2575C266.976 53.1712 266.733 53.1345 266.491 53.1499C266.249 53.1653 266.012 53.2324 265.798 53.3467C265.726 53.3467 265.798 53.4666 265.798 53.4666C266.185 53.4166 266.579 53.4877 266.924 53.67C267.27 53.8524 267.55 54.1371 267.727 54.4852C268.022 55.0734 268.251 55.6923 268.411 56.3307C268.482 56.5344 268.83 56.4864 268.806 56.2587C269.309 53.5744 267.907 49.4521 265.091 48.6611Z" fill="#263238"/>
<path d="M311.216 139.736C311.216 144.158 298.681 143.044 295.553 143.427C292.426 143.811 291.958 144.626 293.54 145.537C293.867 145.691 294.208 145.811 294.559 145.896C289.693 144.889 273.611 139.281 273.611 139.281C273.611 139.281 283.27 136.081 288.387 135.051C293.504 134.02 311.228 135.29 311.216 139.736Z" fill="#D3766A"/>
<path d="M341.283 116.992C343.791 114.725 346.539 112.739 349.48 111.072C353.386 109.07 362.098 105.475 363.584 104.385L366.293 103.774L357.473 163.033L334.272 173.41L292.21 169.048L298.118 113.109L300.862 112.45C300.862 112.45 306.231 113.217 310.605 113.409C314.979 113.6 329.707 111.707 341.283 116.992Z" fill="white"/>
<path d="M330.917 175.412L338.155 118.526L296.296 112.797L290.065 170.654L330.917 175.412Z" fill="#1DCEFD"/>
<path opacity="0.1" d="M330.917 175.412L338.155 118.526L296.296 112.797L290.065 170.654L330.917 175.412Z" fill="#1E1E1E"/>
<path d="M330.917 175.412L336.777 174.752L344.075 117.866L338.155 118.525L330.917 175.412Z" fill="#1DCEFD"/>
<path d="M336.777 174.753L344.075 117.866L367.395 103.079L358.252 163.452L336.777 174.753Z" fill="#1DCEFD"/>
<path opacity="0.1" d="M336.777 174.753L344.075 117.866L367.395 103.079L358.252 163.452L336.777 174.753Z" fill="#1E1E1E"/>
<path d="M248.829 88.8901C239.997 98.7766 211.596 140.036 215.395 152.703C217.888 161.007 264.192 172.572 274.115 173.818C278.453 174.357 284.145 144.542 281.089 141.019C278.033 137.496 250.135 137.424 249.368 133.96C248.602 130.497 263.054 99.4476 265.427 87.7996C269.585 67.5233 254.414 82.6107 248.829 88.8901Z" fill="#D3766A"/>
<path d="M320.815 157.292C320.611 161.199 314.547 162.505 314.128 162.577C314.499 162.577 319.892 162.002 319.413 165.885C318.933 169.767 313.601 171.972 313.601 171.972C313.601 171.972 315.386 172.895 313.768 175.567C311.432 179.402 301.785 180.565 296.644 179.989C291.503 179.414 272.964 173.47 270.148 172.5L273.587 139.281C273.587 139.281 289.669 144.889 294.535 145.896H294.607C297.967 146.684 301.373 147.269 304.805 147.646C310.257 148.029 317.759 144.05 318.67 148.005C319.496 151.54 314.02 153.793 314.02 153.793C314.02 153.793 321.03 153.254 320.815 157.292Z" fill="#D3766A"/>
<path d="M313.745 153.781C305.907 156.394 302.025 156.178 294.139 154.225C294.111 154.223 294.082 154.231 294.058 154.246C294.034 154.262 294.016 154.286 294.006 154.313C293.997 154.34 293.997 154.369 294.005 154.397C294.014 154.424 294.032 154.448 294.055 154.464C301.605 157.077 306.435 158.06 313.888 154.153C314.248 153.961 314.116 153.662 313.745 153.781Z" fill="#263238"/>
<path d="M314.428 162.397C306.039 164.399 301.845 164.195 293.432 162.769C293.312 162.769 293.265 162.949 293.432 162.973C301.569 165.07 306.411 165.933 314.512 162.841C314.823 162.697 314.811 162.302 314.428 162.397Z" fill="#263238"/>
<path d="M313.493 171.925C305.248 173.279 300.623 173.255 292.629 170.822C292.595 170.819 292.56 170.828 292.53 170.847C292.501 170.866 292.479 170.895 292.468 170.928C292.457 170.961 292.457 170.997 292.469 171.03C292.481 171.063 292.504 171.091 292.534 171.11C300.431 174.381 306.195 174.453 313.505 172.176C313.996 172.032 314.008 171.841 313.493 171.925Z" fill="#263238"/>
<path d="M366.976 119.544C369.6 123.283 375.364 127.501 376.287 130.761C376.554 131.553 376.558 132.41 376.299 133.204C376.04 133.999 375.532 134.688 374.849 135.171C374.849 135.171 378.444 136.261 378.84 139.365C379.043 140.959 376.671 142.685 376.671 142.685C377.473 142.974 378.18 143.48 378.713 144.146C379.246 144.812 379.584 145.613 379.691 146.459C379.834 148.664 377.438 150.054 377.438 150.054C377.438 150.054 379.727 152.271 379.139 154.572C377.941 159.246 359.211 162.446 355.172 156.034C353.279 153.038 357.904 152.511 357.904 152.511C357.904 152.511 351.062 151.672 350.307 147.826C349.552 143.979 355.591 143.643 355.591 143.643C355.591 143.643 348.977 142.768 348.593 138.694C348.21 134.62 354.297 135.159 354.297 135.159C354.297 135.159 349.648 133.05 350.067 129.862C350.762 124.601 359.726 129.539 363.68 127.849L364.795 120.659L366.976 119.544Z" fill="#D3766A"/>
<path d="M371.745 124.805C369.564 121.054 373.686 115.218 372.117 111.359C369.996 106.086 364.759 112.498 364.747 120.671L365.861 127.022L371.745 124.805Z" fill="#D3766A"/>
<path d="M377.09 150.33C377.15 150.33 377.186 150.402 377.09 150.426C370.953 153.111 364.144 153.863 357.569 152.583C357.365 152.583 357.341 152.176 357.569 152.188C364.131 152.523 370.708 151.897 377.09 150.33Z" fill="#100E3A"/>
<path d="M376.766 142.708C376.838 142.708 376.874 142.804 376.766 142.84C369.967 145.729 362.358 146.09 355.316 143.859C355.076 143.775 354.944 143.451 355.232 143.523C360.109 144.818 370.81 144.254 376.766 142.708Z" fill="#100E3A"/>
<path d="M353.794 134.835C360.696 136.944 367.575 136.633 374.609 135.291C374.693 135.291 374.717 135.41 374.609 135.446C371.35 137.04 366.784 137.424 363.201 137.424C359.874 137.469 356.594 136.643 353.686 135.027C353.602 135.063 353.65 134.787 353.794 134.835Z" fill="#100E3A"/>
<path d="M232.4 106.626L257.409 116.992C257.409 116.992 263.653 100.215 266.11 88.6983C268.566 77.182 266.241 70.627 252.724 83.3176C245.141 90.3435 238.328 98.157 232.4 106.626Z" fill="#263238"/>
<path d="M332.823 28.0848C331.96 33.4654 327.322 37.9593 327.322 37.9593C327.322 37.9593 320.947 36.9047 317.184 32.9501C314.033 29.6666 313.949 25.0769 316.705 23.2075C320.66 20.5231 324.147 27.7732 324.147 27.7732C324.147 27.7732 322.889 19.8281 327.67 19.7801C331.001 19.7562 333.506 23.6149 332.823 28.0848Z" fill="#1DCEFD"/>
<path d="M311.216 51.2491C309.024 52.9768 306.393 54.0561 303.619 54.3649C301.791 52.2605 300.587 49.6871 300.144 46.935C299.844 43.6515 301.869 41.0031 304.278 41.1949C307.729 41.4585 306.435 47.1867 306.435 47.1867C306.435 47.1867 309.323 42.1176 312.043 44.2507C313.949 45.7127 313.649 49.0202 311.216 51.2491Z" fill="#1DCEFD"/>
<path d="M308.173 4.44113C307.419 5.92682 306.265 7.17212 304.841 8.03622C303.311 7.36326 301.999 6.27574 301.054 4.89651C300.048 3.18285 300.479 1.21754 301.833 0.702245C303.775 -0.0287563 304.53 3.39856 304.53 3.39856C304.53 3.39856 304.805 -0.100661 306.83 0.3667C308.244 0.678274 308.939 2.5597 308.173 4.44113Z" fill="#1DCEFD"/>
</svg>
